<?xml version="1.0" standalone="no"?>
<!DOCTYPE svg PUBLIC "-//W3C//DTD SVG 1.1//EN" "http://www.w3.org/Graphics/SVG/1.1/DTD/svg11.dtd" >
<svg>
<metadata>
Created by FontForge 20090914 at Wed Jun 19 22:08:46 2013
 By www-data
Copyright (c) 2012 by Brian J. Bonislawsky DBA Astigmatic (AOETI) (astigma@astigmatic.com), with Reserved Font Name "Marcellus"
</metadata>
<defs>
<font id="MarcellusSC-Regular" horiz-adv-x="1024" >
  <font-face 
    font-family="Marcellus SC"
    font-weight="400"
    font-stretch="normal"
    units-per-em="2048"
    panose-1="2 14 6 2 5 2 3 2 3 7"
    ascent="1638"
    descent="-410"
    x-height="1075"
    cap-height="1434"
    bbox="-340 -572.997 2531 1995"
    underline-thickness="102"
    underline-position="-103"
    unicode-range="U+0020-U+FB02"
  />
<missing-glyph horiz-adv-x="512" 
 />
    <glyph glyph-name="fi" unicode="fi" horiz-adv-x="1325" 
d="M334 412c0 -60 0.667969 -112.332 2.00098 -156.999s3.16602 -83.167 5.49902 -115.5s5.16602 -59.5 8.49902 -81.5s7.33301 -40 12 -54v-4h-231v4c4.66699 14 8.83398 32 12.501 54s6.66699 49.167 9 81.5s4.16602 70.833 5.49902 115.5s2 97 2 157v252
c0 60 -0.666992 112.167 -2 156.5s-3.16602 82.666 -5.49902 114.999s-5.33301 59.5 -9 81.5s-7.83398 40 -12.501 54v4h134.5c46.333 0 92 0.166992 137 0.5s88 0.833008 129 1.5s78 1.5 111 2.5s61.167 2 84.5 3s39.666 2.5 48.999 4.5l-41 -108
c-17.333 4.66699 -37.333 9 -60 13c-19.333 3.33301 -43.5 6.5 -72.5 9.5s-61.833 4.5 -98.5 4.5c-13.333 0 -29.5 -0.5 -48.5 -1.5s-37.5 -2.16699 -55.5 -3.5l-66 -4v-364c54 0.666992 103.333 2.16699 148 4.5s83.334 4.83301 116.001 7.5c38 2.66699 72 6 102 10
l-22 -120c-39.333 4.66699 -79 9 -119 13c-34 3.33301 -71.167 6.33301 -111.5 9s-78.166 4 -113.499 4v-149zM975.001 664.001c0 60 -0.666992 112.167 -2 156.5s-3.16602 82.666 -5.49902 114.999s-5.33301 59.5 -9 81.5s-7.83398 40 -12.501 54v4h232v-4
c-4.66699 -14 -8.83398 -32 -12.501 -54s-6.66699 -49.167 -9 -81.5s-4.16602 -70.666 -5.49902 -114.999s-2 -96.5 -2 -156.5v-252c0 -60 0.666992 -112.333 2 -157s3.16602 -83.167 5.49902 -115.5s5.33301 -59.5 9 -81.5s7.83398 -40 12.501 -54v-4h-232v4
c4.66699 14 8.83398 32 12.501 54s6.66699 49.167 9 81.5s4.16602 70.833 5.49902 115.5s2 97 2 157v252z" />
    <glyph glyph-name="fl" unicode="fl" horiz-adv-x="1616" 
d="M334 412c0 -60 0.667969 -112.332 2.00098 -156.999s3.16602 -83.167 5.49902 -115.5s5.16602 -59.5 8.49902 -81.5s7.33301 -40 12 -54v-4h-231v4c4.66699 14 8.83398 32 12.501 54s6.66699 49.167 9 81.5s4.16602 70.833 5.49902 115.5s2 97 2 157v252
c0 60 -0.666992 112.167 -2 156.5s-3.16602 82.666 -5.49902 114.999s-5.33301 59.5 -9 81.5s-7.83398 40 -12.501 54v4h134.5c46.333 0 92 0.166992 137 0.5s88 0.833008 129 1.5s78 1.5 111 2.5s61.167 2 84.5 3s39.666 2.5 48.999 4.5l-41 -108
c-17.333 4.66699 -37.333 9 -60 13c-19.333 3.33301 -43.5 6.5 -72.5 9.5s-61.833 4.5 -98.5 4.5c-13.333 0 -29.5 -0.5 -48.5 -1.5s-37.5 -2.16699 -55.5 -3.5l-66 -4v-364c54 0.666992 103.333 2.16699 148 4.5s83.334 4.83301 116.001 7.5c38 2.66699 72 6 102 10
l-22 -120c-39.333 4.66699 -79 9 -119 13c-34 3.33301 -71.167 6.33301 -111.5 9s-78.166 4 -113.499 4v-149zM1141 78.001c62 0 119.165 2.50195 171.498 7.50195s98.166 10.5 137.499 16.5c46 7.33301 87.667 15.666 125 24.999l-23 -133
c-9.33301 0.666992 -25.166 1.5 -47.499 2.5s-45.833 1.66699 -70.5 2s-47.667 0.666016 -69 0.999023s-36 0.5 -44 0.5h-383v4c4.66699 14 8.83398 32 12.501 54s6.66699 49.167 9 81.5s4.16602 70.833 5.49902 115.5s2 97 2 157v252c0 60 -0.666992 112.167 -2 156.5
s-3.16602 82.666 -5.49902 114.999s-5.33301 59.5 -9 81.5s-7.83398 40 -12.501 54v4h231v-4c-4.66699 -14 -8.66699 -32 -12 -54s-6.16602 -49.167 -8.49902 -81.5s-4.16602 -70.666 -5.49902 -114.999s-2 -96.5 -2 -156.5v-586z" />
    <glyph glyph-name=".notdef" horiz-adv-x="512" 
 />
    <glyph glyph-name="space" unicode=" " horiz-adv-x="614" 
 />
    <glyph glyph-name="exclam" unicode="!" horiz-adv-x="502" 
d="M143 88c0 14.667 2.83301 28.5 8.5 41.5s13.167 24.333 22.5 34s20.5 17.334 33.5 23.001s27.167 8.5 42.5 8.5s29.5 -2.83301 42.5 -8.5s24.333 -13.334 34 -23.001s17.334 -21 23.001 -34s8.5 -26.833 8.5 -41.5c0 -30.667 -10.333 -56.334 -31 -77.001
s-46.334 -31 -77.001 -31c-15.333 0 -29.5 2.83301 -42.5 8.5s-24.167 13.334 -33.5 23.001s-16.833 21 -22.5 34s-8.5 27.167 -8.5 42.5zM231 328l-32.499 390l-23 283c-6.33301 78.667 -11.833 143.5 -16.5 194.5l-11.5 124c-3 31.667 -5.83301 55.667 -8.5 72
s-5.33398 29.166 -8.00098 38.499v4h238v-4c-2.66699 -9.33301 -5.33398 -22.166 -8.00098 -38.499s-5.66699 -40.333 -9 -72s-7.16602 -73 -11.499 -124l-16.5 -194.5l-23.5 -283l-32.5 -390h-37z" />
    <glyph glyph-name="quotedbl" unicode="&#x22;" horiz-adv-x="672" 
d="M283 1432c-2.66699 -4.66699 -5.16504 -11 -7.49805 -19s-4.83301 -19.833 -7.5 -35.5s-5.66699 -36 -9 -61l-12.5 -95l-17.5 -138.5l-24 -190h-45l-24.5 190.5l-17.5 138c-4.66699 38.333 -8.83398 70 -12.501 95s-6.83398 45.333 -9.50098 61s-5.16699 27.5 -7.5 35.5
s-4.5 14.333 -6.5 19v2h201v-2zM590.002 1432c-2.66699 -4.66699 -5.16602 -11 -7.49902 -19s-4.83301 -19.833 -7.5 -35.5s-5.66699 -36 -9 -61l-12.5 -95l-17.5 -138.5l-24 -190h-45l-24 190.5l-17.5 138c-5 38.333 -9.33301 70 -13 95s-6.83398 45.333 -9.50098 61
s-5.16699 27.5 -7.5 35.5s-4.5 14.333 -6.5 19v2h201v-2z" />
    <glyph glyph-name="numbersign" unicode="#" horiz-adv-x="1085" 
d="M676 481h-266v-399h-82v399h-226v82h226v389h-226v82h226v338h82v-338h266v338h82v-338h225v-82h-225v-389h225v-82h-225v-399h-82v399zM410 563h266v389h-266v-389z" />
    <glyph glyph-name="dollar" unicode="$" horiz-adv-x="932" 
d="M438 0c-38 0 -74.001 3.33398 -108.001 10.001s-65.333 15.167 -94 25.5s-54.5 21.5 -77.5 33.5s-41.833 23 -56.5 33l23 217h16c8 -31.333 20.667 -61.166 38 -89.499s38.666 -53.166 63.999 -74.499s54.166 -38.5 86.499 -51.5s67.166 -19.5 104.499 -19.5h4v545
l-111 98c-37.333 33.333 -71.166 69 -101.499 107s-55 79 -74 123s-28.5 93 -28.5 147c0 46.667 8.66699 89 26 127s40.5 71.167 69.5 99.5s62.5 51.166 100.5 68.499s77.667 28.333 119 33v163h62v-161c30.667 -1.33301 59 -4.83301 85 -10.5s49.333 -12 70 -19
s38.834 -14.167 54.501 -21.5s28.5 -13 38.5 -17l-7 -182h-14c-5.33301 14.667 -13.666 31.167 -24.999 49.5s-26.333 35.666 -45 51.999s-41 30.333 -67 42s-56 18.5 -90 20.5v-527l115.5 -105.5c39 -35.667 74.333 -72.667 106 -111s57.5 -78.5 77.5 -120.5
s30 -86.667 30 -134c0 -38.667 -6.33301 -77.334 -19 -116.001s-32.5 -74.167 -59.5 -106.5s-61.167 -59.833 -102.5 -82.5s-90.666 -37 -147.999 -43v-205h-62v203zM654.999 287.001c0 28 -4 54.667 -12 80s-19 49.666 -33 72.999s-30.5 45.833 -49.5 67.5
s-39.167 42.834 -60.5 63.501v-481c48 12.667 85.833 36.5 113.5 71.5s41.5 76.833 41.5 125.5zM280.999 1151c0 -24.667 4 -48.667 12 -72s19 -46.166 33 -68.499s30.5 -44.5 49.5 -66.5s39.833 -43.667 62.5 -65v467c-51.333 -8.66699 -90.333 -30.834 -117 -66.501
s-40 -78.5 -40 -128.5z" />
    <glyph glyph-name="percent" unicode="%" horiz-adv-x="1780" 
d="M223 1077c0 -36 6.66699 -69.667 20 -101s31.5 -58.833 54.5 -82.5s50 -42.334 81 -56.001s64.5 -20.5 100.5 -20.5c36.667 0 70.5 6.83301 101.5 20.5s58 32.334 81 56.001s41 51.167 54 82.5s19.5 65 19.5 101c0 36.667 -6.5 71 -19.5 103s-31 60 -54 84
s-50 42.833 -81 56.5s-64.833 20.5 -101.5 20.5c-36 0 -69.5 -6.83301 -100.5 -20.5s-58 -32.5 -81 -56.5s-41.167 -52 -54.5 -84s-20 -66.333 -20 -103zM102 1079c0 52 10 101 30 147s47 86.167 81 120.5s73.833 61.5 119.5 81.5s94.5 30 146.5 30s101 -10 147 -30
s86.167 -47.167 120.5 -81.5s61.5 -74.5 81.5 -120.5s30 -95 30 -147s-10 -100.833 -30 -146.5s-47.167 -85.5 -81.5 -119.5s-74.5 -61 -120.5 -81s-95 -30 -147 -30s-100.833 10 -146.5 30s-85.5 47 -119.5 81s-61 73.833 -81 119.5s-30 94.5 -30 146.5zM1321 1470l82 -53
l-963 -1470l-82 53zM1042 344c0 -36 6.66699 -69.667 20 -101s31.5 -58.833 54.5 -82.5s50 -42.334 81 -56.001s64.5 -20.5 100.5 -20.5c36.667 0 70.5 6.83301 101.5 20.5s58 32.334 81 56.001s41 51.167 54 82.5s19.5 65 19.5 101s-6.5 70 -19.5 102s-31 60 -54 84
s-50 43 -81 57s-64.833 21 -101.5 21c-36 0 -69.5 -7 -100.5 -21s-58 -33 -81 -57s-41.167 -52 -54.5 -84s-20 -66 -20 -102zM922 346c0 52 10 101 30 147s47 86.167 81 120.5s73.833 61.5 119.5 81.5s94.167 30 145.5 30c52 0 101 -10 147 -30s86.167 -47.167 120.5 -81.5
s61.5 -74.5 81.5 -120.5s30 -95 30 -147s-10 -100.833 -30 -146.5s-47.167 -85.5 -81.5 -119.5s-74.5 -61 -120.5 -81s-95 -30 -147 -30c-51.333 0 -99.833 10 -145.5 30s-85.5 47 -119.5 81s-61 73.833 -81 119.5s-30 94.5 -30 146.5z" />
    <glyph glyph-name="ampersand" unicode="&#x26;" horiz-adv-x="1575" 
d="M1284 537c-24.667 -132.667 -77.3311 -244.67 -157.998 -336.003c68 -68 137.667 -130.833 209 -188.5s141.5 -107.834 210.5 -150.501s135.5 -76 199.5 -100s122.667 -36 176 -36c21.333 0 42.666 2 63.999 6v-23c-8 -3.33301 -18.5 -8 -31.5 -14s-29 -11.667 -48 -17
s-41.333 -10 -67 -14s-54.834 -6 -87.501 -6c-52 0 -108.167 10.833 -168.5 32.5s-122.833 51.667 -187.5 90s-130.167 83.833 -196.5 136.5s-131.166 110.334 -194.499 173.001c-58 -39.333 -121.833 -69.666 -191.5 -90.999s-145.834 -32 -228.501 -32
c-74.667 0 -141.834 9.33301 -201.501 28s-110.167 45.334 -151.5 80.001s-73.166 76.667 -95.499 126s-33.5 104.666 -33.5 165.999c0 58.667 11 110.834 33 156.501s50.833 86.834 86.5 123.501s76.5 70 122.5 100s93 59 141 87c-19.333 50 -34.333 98.667 -45 146
s-16 92.666 -16 135.999c0 52.667 8.5 100.167 25.5 142.5s40.167 78.166 69.5 107.499s63.833 52 103.5 68s82.167 24 127.5 24c33.333 0 64.666 -4.66699 93.999 -14s54.833 -23.166 76.5 -41.499s38.834 -41.166 51.501 -68.499s19 -59 19 -95
c0 -45.333 -9.5 -86 -28.5 -122s-44 -69 -75 -99s-66.5 -58 -106.5 -84s-81.333 -51.333 -124 -76c21.333 -50 46.833 -100.667 76.5 -152s62.167 -102.5 97.5 -153.5s73.333 -101.167 114 -150.5s82.667 -97.333 126 -144c32 43.333 57.167 92.666 75.5 147.999
s27.5 116 27.5 182c0 56 -3.16699 102.833 -9.5 140.5s-12.833 69.834 -19.5 96.501v4h180v-4c-4.66699 -16 -8.16699 -33.833 -10.5 -53.5l-7.5 -65l-9 -78c-3.33301 -28.333 -8 -58.833 -14 -91.5zM659.003 56.9971c54.667 0 106.833 7.33301 156.5 22s95.167 36 136.5 64
c-45.333 48 -89.333 97.5 -132 148.5s-82.667 103 -120 156s-71.833 106.333 -103.5 160s-59.167 106.5 -82.5 158.5c-31.333 -21.333 -60.5 -43.666 -87.5 -66.999s-50.5 -49 -70.5 -77s-35.833 -58.5 -47.5 -91.5s-17.5 -69.167 -17.5 -108.5
c0 -52 9.16699 -100.333 27.5 -145s43.833 -83.334 76.5 -116.001s71.5 -58.167 116.5 -76.5s94.167 -27.5 147.5 -27.5zM584.002 1169c0 -38.667 4.33301 -78.501 13 -119.501s20.667 -83.5 36 -127.5c32.667 20.667 63.167 42 91.5 64s53 45.833 74 71.5
s37.5 53.167 49.5 82.5s18 61.666 18 96.999c0 20 -2.5 38.833 -7.5 56.5s-12.5 33.334 -22.5 47.001s-22.833 24.334 -38.5 32.001s-33.834 11.5 -54.501 11.5c-53.333 0 -93.166 -19 -119.499 -57s-39.5 -90.667 -39.5 -158z" />
    <glyph glyph-name="quotesingle" unicode="'" horiz-adv-x="365" 
d="M283 1432c-2.66699 -4.66699 -5.16504 -11 -7.49805 -19s-4.83301 -19.833 -7.5 -35.5s-5.66699 -36 -9 -61l-12.5 -95l-17.5 -138.5l-24 -190h-45l-24.5 190.5l-17.5 138c-4.66699 38.333 -8.83398 70 -12.501 95s-6.83398 45.333 -9.50098 61s-5.16699 27.5 -7.5 35.5
s-4.5 14.333 -6.5 19v2h201v-2z" />
    <glyph glyph-name="parenleft" unicode="(" horiz-adv-x="616" 
d="M571 -258c-68 48.667 -130.669 104.666 -188.002 167.999s-106.833 132.333 -148.5 207s-74.167 153.834 -97.5 237.501s-35 170.167 -35 259.5c0 90.667 12 178.5 36 263.5s57.333 165 100 240s93.334 144.5 152.001 208.5s122.667 120.333 192 169l26 -27
c-63.333 -49.333 -116.666 -105.5 -159.999 -168.5s-78.5 -131 -105.5 -204s-46.5 -150.167 -58.5 -231.5s-18 -164.666 -18 -249.999c0 -84.667 5.83301 -167 17.5 -247s30.667 -156.167 57 -228.5s60.5 -139.833 102.5 -202.5s93.667 -118.334 155 -167.001z" />
    <glyph glyph-name="parenright" unicode=")" horiz-adv-x="616" 
d="M20 -231c60.667 48.667 112.167 104.335 154.5 167.002s76.666 130.167 102.999 202.5s45.333 148.5 57 228.5s17.5 162.333 17.5 247c0 85.333 -6 168.666 -18 249.999s-31.5 158.5 -58.5 231.5s-62.333 141 -106 204s-96.834 119.167 -159.501 168.5l27 27
c68.667 -48.667 132.334 -105 191.001 -169s109.334 -133.5 152.001 -208.5s76 -155 100 -240s36 -172.833 36 -263.5c0 -89.333 -11.667 -175.833 -35 -259.5s-55.833 -162.834 -97.5 -237.501s-91.167 -143.667 -148.5 -207s-120 -119.333 -188 -168z" />
    <glyph glyph-name="asterisk" unicode="*" horiz-adv-x="733" 
d="M430 1130l242 -126l-41 -70l-232 139l9 -270h-82l8 272l-232 -141l-41 70l240 126l-240 127l41 70l232 -141l-8 272h82l-9 -272l232 141l41 -70z" />
    <glyph glyph-name="plus" unicode="+" horiz-adv-x="1331" 
d="M717 651v-491h-103v491h-491v103h491v491h103v-491h491v-103h-491z" />
    <glyph glyph-name="comma" unicode="," horiz-adv-x="420" 
d="M102 88c0 14.667 2.83203 28.5 8.49902 41.5s13.334 24.333 23.001 34s21 17.334 34 23.001s26.833 8.5 41.5 8.5c15.333 0 29.5 -3.16699 42.5 -9.5s24.333 -15 34 -26s17.334 -23.833 23.001 -38.5s8.5 -30.334 8.5 -47.001c0 -26 -5.83301 -54.333 -17.5 -85
s-27 -62 -46 -94s-40.333 -63.5 -64 -94.5s-47.834 -60.167 -72.501 -87.5l-27 23c33.333 39.333 60 78.333 80 117s31.667 81 35 127c-29.333 1.33301 -53.833 12 -73.5 32s-29.5 45.333 -29.5 76z" />
    <glyph glyph-name="hyphen" unicode="-" horiz-adv-x="840" 
d="M82 457v143h676v-143h-676z" />
    <glyph glyph-name="period" unicode="." horiz-adv-x="420" 
d="M102 88c0 14.667 2.83301 28.5 8.5 41.5s13.334 24.333 23.001 34s21 17.334 34 23.001s26.833 8.5 41.5 8.5c15.333 0 29.5 -2.83301 42.5 -8.5s24.333 -13.334 34 -23.001s17.334 -21 23.001 -34s8.5 -26.833 8.5 -41.5c0 -30.667 -10.333 -56.334 -31 -77.001
s-46.334 -31 -77.001 -31c-14.667 0 -28.5 2.83301 -41.5 8.5s-24.333 13.334 -34 23.001s-17.334 21 -23.001 34s-8.5 27.167 -8.5 42.5z" />
    <glyph glyph-name="slash" unicode="/" horiz-adv-x="893" 
d="M780 1550l92 -45l-759 -1614l-93 46z" />
    <glyph glyph-name="zero" unicode="0" horiz-adv-x="1651" 
d="M238 709c0 -54.667 7 -107.334 21 -158.001s33.5 -98.167 58.5 -142.5s55.333 -84.833 91 -121.5s75.334 -68 119.001 -94s90.5 -46.167 140.5 -60.5s102.333 -21.5 157 -21.5s107.167 7.16699 157.5 21.5s97.333 34.5 141 60.5s83.167 57.333 118.5 94
s65.666 77.167 90.999 121.5s45 91.833 59 142.5s21 103.334 21 158.001c0 82 -15.333 159.167 -46 231.5s-72.5 135.666 -125.5 189.999s-115.167 97.333 -186.5 129s-148 47.5 -230 47.5s-158.667 -15.833 -230 -47.5s-133.5 -74.667 -186.5 -129
s-94.667 -117.666 -125 -189.999s-45.5 -149.5 -45.5 -231.5zM82 713c0 68 8.83301 133.667 26.5 197s42.667 122.5 75 177.5s71.166 105.167 116.499 150.5s95.5 84.166 150.5 116.499s114.167 57.333 177.5 75s129 26.5 197 26.5s133.667 -8.83301 197 -26.5
s122.666 -42.667 177.999 -75s105.666 -71.166 150.999 -116.499s84.166 -95.5 116.499 -150.5s57.333 -114.167 75 -177.5s26.5 -129 26.5 -197c0 -68.667 -8.83301 -134.5 -26.5 -197.5s-42.667 -122.167 -75 -177.5s-71.166 -105.666 -116.499 -150.999
s-95.666 -84.166 -150.999 -116.499s-114.666 -57.333 -177.999 -75s-129 -26.5 -197 -26.5s-133.667 8.83301 -197 26.5s-122.5 42.667 -177.5 75s-105.167 71.166 -150.5 116.499s-84.166 95.666 -116.499 150.999s-57.333 114.5 -75 177.5s-26.5 128.833 -26.5 197.5z
" />
    <glyph glyph-name="one" unicode="1" horiz-adv-x="604" 
d="M186 4c4 14 7.83203 31.333 11.499 52s6.83398 46.334 9.50098 77.001s4.66699 67.167 6 109.5s2 91.833 2 148.5v651c0 56.667 -4 101.667 -12 135s-17.5 59 -28.5 77s-22.333 31 -34 39s-21.5 15.333 -29.5 22v4l307 115v-4c-4 -14 -7.83301 -31.333 -11.5 -52
s-6.83398 -46.5 -9.50098 -77.5s-4.66699 -67.667 -6 -110s-2 -91.833 -2 -148.5v-651c0 -56.667 0.666992 -106.167 2 -148.5s3.33301 -78.833 6 -109.5s5.83398 -56.334 9.50098 -77.001s7.5 -38 11.5 -52v-4h-232v4z" />
    <glyph glyph-name="two" unicode="2" horiz-adv-x="1090" 
d="M156 20c10 12.667 25.6602 29.834 46.9932 51.501l74 77l90 99.5c32 36.667 64 76.334 96 119.001s62.833 88.167 92.5 136.5s55.834 98.833 78.501 151.5s40.834 107.334 54.501 164.001s20.5 114.667 20.5 174c0 63.333 -7.5 118.166 -22.5 164.499
s-35.5 84.666 -61.5 114.999s-56.5 52.833 -91.5 67.5s-72.833 22 -113.5 22c-50.667 0 -96.5 -8.5 -137.5 -25.5s-76.667 -36.833 -107 -59.5s-55 -45.334 -74 -68.001s-31.833 -40 -38.5 -52l-14 6l68 203c35.333 16 68.5 29.833 99.5 41.5s62.333 21.167 94 28.5
s64.334 12.833 98.001 16.5s70.834 5.5 111.501 5.5c27.333 0 56.333 -3 87 -9s61 -15.667 91 -29s58.5 -30.5 85.5 -51.5s51 -46.667 72 -77s37.667 -65.5 50 -105.5s18.5 -85.667 18.5 -137c0 -54.667 -8.33301 -109.5 -25 -164.5s-38.667 -109 -66 -162
s-58.666 -104.833 -93.999 -155.5s-71.666 -99 -108.999 -145s-74.333 -89.167 -111 -129.5l-99 -110.5h385c24.667 0 48.834 0.5 72.501 1.5s45.5 2.66699 65.5 5s37.5 5.5 52.5 9.5s26.5 9 34.5 15h4v-213h-878v20v0z" />
    <glyph glyph-name="three" unicode="3" horiz-adv-x="1032" 
d="M287 836c36 4.66699 73.499 13.835 112.499 27.502s75 32.834 108 57.501s60.167 55.667 81.5 93s32 82.333 32 135c0 30 -4.33301 58.167 -13 84.5s-22.167 49.5 -40.5 69.5s-41.666 35.833 -69.999 47.5s-61.833 17.5 -100.5 17.5
c-45.333 0 -86.166 -6.33301 -122.499 -19s-68.833 -28.667 -97.5 -48s-53.667 -40.833 -75 -64.5s-39 -46.834 -53 -69.501l-14 7l65 206c26 10.667 52.333 20.834 79 30.501s54.834 18 84.501 25s61.334 12.5 95.001 16.5s70.5 6 110.5 6
c20.667 0 43.667 -1.83301 69 -5.5s51.166 -9.83398 77.499 -18.501s51.833 -20.167 76.5 -34.5s46.834 -32.166 66.501 -53.499s35.334 -46.5 47.001 -75.5s17.5 -62.167 17.5 -99.5c0 -46.667 -9.33301 -87.5 -28 -122.5s-41.667 -65.333 -69 -91s-56.333 -46.667 -87 -63
s-58 -29.166 -82 -38.499c40 -3.33301 80.833 -11.666 122.5 -24.999s79.5 -33.5 113.5 -60.5s61.833 -62.167 83.5 -105.5s32.5 -96.333 32.5 -159c0 -71.333 -13.167 -139 -39.5 -203s-61.833 -123.667 -106.5 -179s-96.334 -106.333 -155.001 -153
s-120.5 -88.334 -185.5 -125.001s-131 -68.334 -198 -95.001s-130.833 -47.334 -191.5 -62.001l-19 51c96 24 185.333 58 268 102s154.5 97.5 215.5 160.5s109 135.167 144 216.5s52.5 171.333 52.5 270c0 55.333 -8 101.666 -24 138.999s-36.833 67.166 -62.5 89.499
s-54.334 38.333 -86.001 48s-63.5 14.5 -95.5 14.5c-19.333 0 -37.333 -1 -54 -3s-31.334 -4.33301 -44.001 -7c-14.667 -2.66699 -28.334 -6 -41.001 -10v76v0z" />
    <glyph glyph-name="four" unicode="4" horiz-adv-x="1174" 
d="M924 1458l0.000976562 -3.99805c-3.33301 -14 -6.33301 -31.333 -9 -52s-4.83398 -46.334 -6.50098 -77.001s-3 -67.167 -4 -109.5s-1.5 -91.833 -1.5 -148.5v-616c60.667 1.33301 110.167 3.33301 148.5 6s68.833 6.66699 91.5 12h4v-143h-4
c-22.667 4 -53.167 7.66699 -91.5 11s-87.833 5.66602 -148.5 6.99902c0.666992 -48.667 1.66699 -91.334 3 -128.001s3.33301 -68.5 6 -95.5s5.66699 -50 9 -69s7 -34.833 11 -47.5v-4h-240v4c4 12.667 7.66699 28.5 11 47.5s6.16602 42 8.49902 69s4.33301 58.833 6 95.5
s2.83398 79.334 3.50098 128.001h-686v45l868 1069h21zM721.001 451.002v628l-506 -628h506z" />
    <glyph glyph-name="five" unicode="5" horiz-adv-x="954" 
d="M31 -174c96 24 184.165 53.999 264.498 89.999s149.833 78.5 208.5 127.5s104.334 104.833 137.001 167.5s49 132.334 49 209.001c0 76 -15.333 140.667 -46 194s-72.5 97 -125.5 131s-115.333 59 -187 75s-148.167 24.667 -229.5 26l129 588h191
c56.667 0 106.167 0.166992 148.5 0.5s78.833 0.666016 109.5 0.999023s56.334 0.833008 77.001 1.5s38 1.66699 52 3h4v-217h-4c-14 4 -31.333 7.66699 -52 11s-46.334 6.33301 -77.001 9s-67.167 4.66699 -109.5 6s-91.833 2 -148.5 2h-148l-53 -225
c54 -1.33301 107.333 -6.5 160 -15.5s103 -22.667 151 -41s92.5 -41.333 133.5 -69s76.5 -60.334 106.5 -98.001s53.5 -80.667 70.5 -129s25.5 -102.166 25.5 -161.499c0 -76.667 -11.667 -146 -35 -208s-55 -118 -95 -168s-86.667 -94.333 -140 -133
s-110.166 -72.667 -170.499 -102s-122.5 -54.666 -186.5 -75.999s-126.667 -39.333 -188 -54z" />
    <glyph glyph-name="six" unicode="6" horiz-adv-x="1143" 
d="M1047 1602c-110 -42.667 -207.329 -93.167 -291.996 -151.5s-157 -122.833 -217 -193.5s-108.167 -146.5 -144.5 -227.5s-61.833 -165.5 -76.5 -253.5c64 45.333 125.333 77.5 184 96.5s115 28.5 169 28.5c48.667 0 98.167 -9.16699 148.5 -27.5
s95.666 -46.333 135.999 -84s73.333 -84.834 99 -141.501s38.5 -123 38.5 -199c0 -59.333 -9.83301 -117.833 -29.5 -175.5s-49.334 -109 -89.001 -154s-89.667 -81.333 -150 -109s-130.833 -41.5 -211.5 -41.5c-69.333 0 -135.5 12.167 -198.5 36.5
s-118.5 61.5 -166.5 111.5s-86.167 113.167 -114.5 189.5s-42.5 166.833 -42.5 271.5c0 88 11.333 171.167 34 249.5s54.667 151.833 96 220.5s90.666 132.834 147.999 192.501s120.666 114.5 189.999 164.5s143.333 95.667 222 137s160 78.333 244 111zM592.004 786
c-64 0 -118.669 -8.5 -164.002 -25.5s-85.666 -39.167 -120.999 -66.5c-2 -15.333 -3.16699 -31 -3.5 -47s-0.5 -32.333 -0.5 -49c0 -104.667 8.16699 -192.334 24.5 -263.001s39.5 -127.5 69.5 -170.5s65.833 -73.667 107.5 -92s87.834 -27.5 138.501 -27.5
c33.333 0 65.833 6.83301 97.5 20.5s59.834 34.167 84.501 61.5s44.5 61.333 59.5 102s22.5 88 22.5 142c0 58.667 -9 113.334 -27 164.001s-41.833 94.5 -71.5 131.5s-63.334 66.167 -101.001 87.5s-76.167 32 -115.5 32z" />
    <glyph glyph-name="seven" unicode="7" horiz-adv-x="1001" 
d="M522 1251c-56.667 0 -106.167 -0.666992 -148.5 -2s-78.833 -3.33301 -109.5 -6s-56.334 -5.66699 -77.001 -9s-38 -7 -52 -11h-4v217h4c14 -1.33301 31.333 -2.5 52 -3.5s46.334 -1.66699 77.001 -2s67.167 -0.5 109.5 -0.5h148.5h520v-21l-825 -1413h-115l725 1251
h-305z" />
    <glyph glyph-name="eight" unicode="8" horiz-adv-x="1102" 
d="M934 1153c0 -36 -7.16602 -69.668 -21.499 -101.001s-33.333 -60.833 -57 -88.5s-50.834 -53.667 -81.501 -78s-62.667 -47.166 -96 -68.499c42.667 -30 84.5 -61.167 125.5 -93.5s77.5 -66.333 109.5 -102s57.833 -73.667 77.5 -114s29.5 -83.833 29.5 -130.5
c0 -52.667 -10.667 -103.5 -32 -152.5s-52 -92.5 -92 -130.5s-89 -68.333 -147 -91s-124 -34 -198 -34c-82.667 0 -153.5 10.667 -212.5 32s-107.5 49.833 -145.5 85.5s-66 76.167 -84 121.5s-27 92 -27 140c0 46 8.5 88.333 25.5 127s40.5 74.834 70.5 108.501
s65.833 65 107.5 94s87.167 56.5 136.5 82.5c-34.667 26.667 -67.834 53.667 -99.501 81s-59.5 55.666 -83.5 84.999s-43.167 59.833 -57.5 91.5s-21.5 65.167 -21.5 100.5c0 62.667 12.333 115.5 37 158.5s56.167 78 94.5 105s80.333 46.5 126 58.5s89.5 18 131.5 18
c54 0 104.333 -6.66699 151 -20s87.334 -32.833 122.001 -58.5s62 -57.5 82 -95.5s30 -81.667 30 -131zM821.001 314.999c0 39.333 -9.99902 76.665 -29.999 111.998s-46 69.166 -78 101.499s-68.5 64 -109.5 95l-124.5 93.5
c-45.333 -28.667 -82.666 -57.167 -111.999 -85.5s-52.666 -57.166 -69.999 -86.499s-29.5 -60 -36.5 -92s-10.5 -66.333 -10.5 -103c0 -46.667 7.66699 -88.667 23 -126s36.666 -69.166 63.999 -95.499s59.666 -46.666 96.999 -60.999s77.666 -21.833 120.999 -22.5
c35.333 -0.666992 69 4.5 101 15.5s60.333 27.833 85 50.5s44.167 51 58.5 85s21.5 73.667 21.5 119zM354.002 1176c0 -30 7.16504 -58.4971 21.498 -85.4971s33.5 -53.333 57.5 -79s52 -51 84 -76l101 -75.5c27.333 16.667 52 34.667 74 54s40.833 40.666 56.5 63.999
s27.667 49.166 36 77.499s12.5 59.5 12.5 93.5c0 45.333 -7.16699 83.166 -21.5 113.499s-32.5 54.5 -54.5 72.5s-46.167 30.667 -72.5 38s-51.5 11 -75.5 11c-28 0 -55.167 -4.33301 -81.5 -13s-49.666 -21.667 -69.999 -39s-36.666 -39 -48.999 -65
s-18.5 -56.333 -18.5 -91z" />
    <glyph glyph-name="nine" unicode="9" horiz-adv-x="1135" 
d="M-102 -156c72 5.33301 142.5 19.166 211.5 41.499s135.167 51.666 198.5 87.999s122.833 79 178.5 128s105.667 103 150 162s82.333 122.333 114 190s55.167 138.5 70.5 212.5c-28 -17.333 -54.167 -32.166 -78.5 -44.499s-49.333 -22.5 -75 -30.5s-53 -14 -82 -18
s-61.833 -6 -98.5 -6c-46 0 -94.5 8.66699 -145.5 26s-97.833 44 -140.5 80s-78 81.667 -106 137s-42 121.333 -42 198c0 52 10 104.833 30 158.5s50.167 102 90.5 145s91.166 78.167 152.499 105.5s133.666 41 216.999 41c64.667 0 127.167 -12 187.5 -36
s113.833 -60.5 160.5 -109.5s83.834 -110.5 111.501 -184.5s41.5 -161.333 41.5 -262c0 -88 -13.667 -174.833 -41 -260.5s-65.666 -167.167 -114.999 -244.5s-108.333 -149.166 -177 -215.499s-144.667 -124.333 -228 -174s-172.333 -89.5 -267 -119.5
s-192.667 -47.667 -294 -53zM600 672c39.333 0 79.3301 5.66797 119.997 17.001s78.667 28.666 114 51.999c3.33301 18.667 5.5 37.667 6.5 57s1.5 39.333 1.5 60c0 83.333 -9 157.5 -27 222.5s-42 119.833 -72 164.5s-64.833 78.667 -104.5 102s-81.167 35 -124.5 35
c-33.333 0 -66 -6.33301 -98 -19s-60.667 -32 -86 -58s-45.666 -59 -60.999 -99s-23 -87.667 -23 -143s8.33301 -106.833 25 -154.5s40.334 -89 71.001 -124s67.834 -62.5 111.501 -82.5s92.5 -30 146.5 -30z" />
    <glyph glyph-name="colon" unicode=":" horiz-adv-x="481" 
d="M133 702c0 14.667 2.83301 28.667 8.5 42s13.167 24.666 22.5 33.999s20.5 16.833 33.5 22.5s27.167 8.5 42.5 8.5s29.5 -2.83301 42.5 -8.5s24.333 -13.167 34 -22.5s17.334 -20.666 23.001 -33.999s8.5 -27.333 8.5 -42c0 -30.667 -10.333 -56.334 -31 -77.001
s-46.334 -31 -77.001 -31c-15.333 0 -29.5 2.83301 -42.5 8.5s-24.167 13.334 -33.5 23.001s-16.833 21 -22.5 34s-8.5 27.167 -8.5 42.5zM133 88c0 14.667 2.83301 28.5 8.5 41.5s13.167 24.333 22.5 34s20.5 17.334 33.5 23.001s27.167 8.5 42.5 8.5
s29.5 -2.83301 42.5 -8.5s24.333 -13.334 34 -23.001s17.334 -21 23.001 -34s8.5 -26.833 8.5 -41.5c0 -30.667 -10.333 -56.334 -31 -77.001s-46.334 -31 -77.001 -31c-15.333 0 -29.5 2.83301 -42.5 8.5s-24.167 13.334 -33.5 23.001s-16.833 21 -22.5 34
s-8.5 27.167 -8.5 42.5z" />
    <glyph glyph-name="semicolon" unicode=";" horiz-adv-x="481" 
d="M133 88c0 14.667 2.83301 28.5 8.5 41.5s13.167 24.333 22.5 34s20.5 17.334 33.5 23.001s27.167 8.5 42.5 8.5s29.5 -3.16699 42.5 -9.5s24.333 -15 34 -26s17.334 -23.833 23.001 -38.5s8.5 -30.334 8.5 -47.001c0 -26 -5.83301 -54.333 -17.5 -85s-27 -62 -46 -94
s-40.5 -63.5 -64.5 -94.5s-48.333 -60.167 -73 -87.5l-26 23c32.667 39.333 59.167 78.333 79.5 117s32.166 81 35.499 127c-29.333 1.33301 -53.833 12 -73.5 32s-29.5 45.333 -29.5 76zM133 702c0 14.667 2.83301 28.667 8.5 42s13.167 24.666 22.5 33.999
s20.5 16.833 33.5 22.5s27.167 8.5 42.5 8.5s29.5 -2.83301 42.5 -8.5s24.333 -13.167 34 -22.5s17.334 -20.666 23.001 -33.999s8.5 -27.333 8.5 -42c0 -30.667 -10.333 -56.334 -31 -77.001s-46.334 -31 -77.001 -31c-15.333 0 -29.5 2.83301 -42.5 8.5
s-24.167 13.334 -33.5 23.001s-16.833 21 -22.5 34s-8.5 27.167 -8.5 42.5z" />
    <glyph glyph-name="less" unicode="&#x3c;" horiz-adv-x="1331" 
d="M1106 1145l37 -90l-807 -353l807 -352l-37 -90l-924 404v77z" />
    <glyph glyph-name="equal" unicode="=" horiz-adv-x="1331" 
d="M164 846v102h1003v-102h-1003zM164 457v102h1003v-102h-1003z" />
    <glyph glyph-name="greater" unicode="&#x3e;" horiz-adv-x="1331" 
d="M1149 739v-73l-924 -406l-37 90l807 352l-807 353l37 90z" />
    <glyph glyph-name="question" unicode="?" horiz-adv-x="817" 
d="M225 88c0 14.667 2.83301 28.5 8.5 41.5s13.167 24.333 22.5 34s20.5 17.334 33.5 23.001s27.167 8.5 42.5 8.5s29.5 -2.83301 42.5 -8.5s24.333 -13.334 34 -23.001s17.334 -21 23.001 -34s8.5 -26.833 8.5 -41.5c0 -30.667 -10.333 -56.334 -31 -77.001
s-46.334 -31 -77.001 -31c-15.333 0 -29.5 2.83301 -42.5 8.5s-24.167 13.334 -33.5 23.001s-16.833 21 -22.5 34s-8.5 27.167 -8.5 42.5zM340 1374c-36 0 -69.001 -5.66406 -99.001 -16.9971s-56 -25.5 -78 -42.5s-40.167 -35.167 -54.5 -54.5
s-23.833 -36.666 -28.5 -51.999h-19l35 183l40.5 18c16.333 7.33301 35.5 14.666 57.5 21.999s46.833 13.666 74.5 18.999s58.167 8 91.5 8c45.333 0 90.333 -5.66699 135 -17s84.834 -29.666 120.501 -54.999s64.5 -58.333 86.5 -99s33 -90 33 -148
c0 -48.667 -9.5 -94.834 -28.5 -138.501s-42.833 -86.334 -71.5 -128.001s-59.5 -83 -92.5 -124s-63.833 -83.333 -92.5 -127s-52.5 -89.667 -71.5 -138s-28.5 -100.166 -28.5 -155.499h-47c0 61.333 6.16699 117.333 18.5 168s27.833 98.167 46.5 142.5s39 86.333 61 126
s42.333 79.167 61 118.5s34.167 79.666 46.5 120.999s18.5 85.666 18.5 132.999c0 42.667 -6 79 -18 109s-28 54.5 -48 73.5s-42.833 32.833 -68.5 41.5s-52.5 13 -80.5 13z" />
    <glyph glyph-name="at" unicode="@" horiz-adv-x="2013" 
d="M668 434c0 43.333 9.00586 80.998 27.0059 112.998s41.667 59 71 81s63.166 40 101.499 54s77.666 25 117.999 33s80.333 13.667 120 17s75.834 5.66602 108.501 6.99902v41c0 36.667 -4.66699 68.167 -14 94.5s-22.333 48.166 -39 65.499s-36.834 30.166 -60.501 38.499
s-49.834 12.5 -78.501 12.5c-20 0 -39.667 -1.5 -59 -4.5s-39.333 -8.33301 -60 -16s-42.334 -18 -65.001 -31s-47.334 -29.833 -74.001 -50.5l-8 4l55 117c37.333 16 73.333 27.167 108 33.5s73 9.5 115 9.5c57.333 0 106.5 -7.16699 147.5 -21.5
s74.5 -33.666 100.5 -57.999s45.167 -53 57.5 -86s18.5 -68.167 18.5 -105.5v-430c0 -32 10.667 -57 32 -75s49.666 -27 84.999 -27c43.333 0 84.333 12.667 123 38s72.5 60.333 101.5 105s52 97.667 69 159s25.5 128 25.5 200c0 92.667 -17.167 177.834 -51.5 255.501
s-82.333 144.334 -144 200.001s-135 99 -220 130s-178.5 46.5 -280.5 46.5c-120 0 -229.667 -20.333 -329 -61s-184.833 -97.5 -256.5 -170.5s-127.167 -159.667 -166.5 -260s-59 -210.166 -59 -329.499c0 -112.667 20.167 -215 60.5 -307s96.5 -170.833 168.5 -236.5
s157.5 -116.334 256.5 -152.001s207.5 -53.5 325.5 -53.5c51.333 0 102.333 3.66699 153 11s101 19.166 151 35.499s99.5 37.833 148.5 64.5s97.5 59.334 145.5 98.001l49 -58c-100 -74.667 -204.333 -130.834 -313 -168.501s-222 -56.5 -340 -56.5
c-146 0 -278 21.333 -396 64s-218.833 101.5 -302.5 176.5s-148 164 -193 267s-67.5 215.167 -67.5 336.5c0 78 11 153.833 33 227.5s53.333 142.834 94 207.501s89.667 124 147 178s121.666 100.333 192.999 139s148.5 68.667 231.5 90s170.5 32 262.5 32
c116.667 0 223.334 -17.333 320.001 -52s179.5 -83.5 248.5 -146.5s122.5 -138.5 160.5 -226.5s57 -185.333 57 -292c0 -75.333 -10.333 -147.166 -31 -215.499s-49.5 -128.5 -86.5 -180.5s-81.167 -93.5 -132.5 -124.5s-108 -46.5 -170 -46.5
c-57.333 0 -104.5 10.667 -141.5 32s-62.833 47 -77.5 77c-12 -11.333 -27.333 -23.333 -46 -36s-39.667 -24.167 -63 -34.5s-48.833 -19 -76.5 -26s-56.5 -10.5 -86.5 -10.5c-96 0 -170.167 22.333 -222.5 67s-78.5 108.334 -78.5 191.001zM1214.01 673.998
c-50 -0.666992 -98.0049 -3.66699 -144.005 -9s-86.833 -16.166 -122.5 -32.499s-64 -39.833 -85 -70.5s-31.5 -71.334 -31.5 -122.001c0 -64 16.333 -113 49 -147s77.334 -51 134.001 -51c26.667 0 50.834 3.66699 72.501 11s40.834 16.5 57.501 27.5
s30.834 23.333 42.501 37s20.834 26.5 27.501 38.5v318z" />
    <glyph glyph-name="A" unicode="A" horiz-adv-x="1389" 
d="M1135 0l0.000976562 4.00098c1.33301 3.33301 2.33301 8.33301 3 15s1 12.667 1 18c0 20.667 -2.83301 43.5 -8.5 68.5s-16.5 56.167 -32.5 93.5l-121 272c-37.333 1.33301 -87 2 -149 2h-201h-152.5c-49 0 -93.167 -0.666992 -132.5 -2l-115 -264l-32 -81
c-11.333 -29.333 -17 -59 -17 -89c0 -8.66699 0.666992 -15.834 2 -21.501s2.66602 -9.5 3.99902 -11.5v-4h-204v4c12 12.667 27 35.167 45 67.5s37.667 72.833 59 121.5l573 1271h80l543 -1222c12.667 -28.667 25.834 -56.5 39.501 -83.5s26.5 -51.167 38.5 -72.5
s22.667 -39.333 32 -54s15.666 -24 18.999 -28v-4h-274zM487.001 559.001c38.667 0 78.333 0.166992 119 0.5l119.5 1l112.5 1c36 0.333008 68.667 0.833008 98 1.5l-281 635l-276 -639h108z" />
    <glyph glyph-name="B" unicode="B" horiz-adv-x="1149" 
d="M172 1042c0 56.667 -0.666992 106.166 -2 148.499s-3.33301 79 -6 110s-5.83398 56.833 -9.50098 77.5s-7.5 38 -11.5 52v4c13.333 -0.666992 27.333 -1 42 -1c12.667 -0.666992 26.834 -1 42.501 -1h48.5c24 0 56.5 2.33301 97.5 7s93.833 7 158.5 7
c60 0 115.333 -7.83301 166 -23.5s94.5 -38.167 131.5 -67.5s66 -65.5 87 -108.5s31.5 -91.833 31.5 -146.5c0 -46 -6.33301 -87.167 -19 -123.5s-30.5 -68 -53.5 -95s-50.667 -49.667 -83 -68s-67.833 -32.833 -106.5 -43.5c56.667 -8.66699 108.334 -23.167 155.001 -43.5
s86.834 -45.833 120.501 -76.5s59.667 -66.5 78 -107.5s27.5 -86.5 27.5 -136.5c0 -140.667 -46.333 -246.167 -139 -316.5s-231.334 -105.5 -416.001 -105.5c-20 0 -43.333 0.833008 -70 2.5s-53.834 3.5 -81.501 5.5s-54.834 3.83301 -81.501 5.5s-50 2.5 -70 2.5h-66v4
c4 14 7.83301 31.333 11.5 52s6.83398 46.334 9.50098 77.001s4.66699 67.167 6 109.5s2 91.833 2 148.5v651zM539 708.999c-45.333 0 -83.332 -1.66797 -113.999 -5.00098s-54.334 -6.66602 -71.001 -9.99902v-303c0 -78 1.33301 -142.333 4 -193s6.33398 -92 11.001 -124
c25.333 -3.33301 50.666 -6.33301 75.999 -9s45.666 -4 60.999 -4c124.667 0 215.834 27.833 273.501 83.5s86.5 141.167 86.5 256.5c0 45.333 -6.83301 86.833 -20.5 124.5s-34 70.167 -61 97.5s-61 48.5 -102 63.5s-88.833 22.5 -143.5 22.5zM354.001 783.998
c18.667 -2 35.334 -3.16602 50.001 -3.49902s30.334 -0.5 47.001 -0.5c45.333 0 86.666 6.5 123.999 19.5s69.166 32.5 95.499 58.5s46.833 58.5 61.5 97.5s22 84.5 22 136.5c0 43.333 -5.33301 82.666 -16 117.999s-26.5 65.5 -47.5 90.5s-46.833 44.167 -77.5 57.5
s-65.667 20 -105 20c-25.333 0 -47.5 -1 -66.5 -3s-35.167 -4.33301 -48.5 -7c-15.333 -2.66699 -28.333 -6 -39 -10v-574z" />
    <glyph glyph-name="C" unicode="C" horiz-adv-x="1386" 
d="M1303 1214l-9.00195 -3.99707c-52 48 -114.5 86.333 -187.5 115s-153.167 43 -240.5 43c-84 0 -161 -13.167 -231 -39.5s-130.167 -64.5 -180.5 -114.5s-89.5 -111.333 -117.5 -184s-42 -155.334 -42 -248.001c0 -102 13.333 -197.167 40 -285.5
s66.334 -164.833 119.001 -229.5s118.5 -115.5 197.5 -152.5s171.167 -55.5 276.5 -55.5c38 0 76 4 114 12s74.5 19.833 109.5 35.5s68 34.667 99 57s59.167 47.833 84.5 76.5l11 -7l-80 -204c-50 -19.333 -105.167 -34.166 -165.5 -44.499s-121.166 -15.5 -182.499 -15.5
c-123.333 0 -236.166 17.833 -338.499 53.5s-190.333 86.167 -264 151.5s-131 143.833 -172 235.5s-61.5 193.5 -61.5 305.5c0 63.333 8.16699 125.666 24.5 186.999s40.166 119.666 71.499 174.999s70 106.166 116 152.499s98.5 86.5 157.5 120.5s124 60.5 195 79.5
s147.833 28.5 230.5 28.5c128.667 0 248 -19.667 358 -59z" />
    <glyph glyph-name="D" unicode="D" horiz-adv-x="1462" 
d="M362 1348l-3.99707 -216.998c-0.666992 -30 -1.16699 -60.667 -1.5 -92l-1 -92.5l-1 -87c-0.333008 -27.667 -0.5 -52.167 -0.5 -73.5c0 -44.667 0.333008 -98.667 1 -162s1.5 -128.333 2.5 -195s2.5 -130.667 4.5 -192s4.33301 -112.333 7 -153
c9.33301 -1.33301 21.833 -2.83301 37.5 -4.5s32.167 -3 49.5 -4s34.333 -1.83301 51 -2.5s30.667 -1 42 -1c46.667 0 94.5 3.16699 143.5 9.5s96.333 18.166 142 35.499s88.667 41.166 129 71.499s75.666 69.5 105.999 117.5s54.166 105.833 71.499 173.5
s26 147.5 26 239.5c0 102 -12.333 192.833 -37 272.5s-60.834 146.834 -108.501 201.501s-106.667 96.167 -177 124.5s-151.166 42.5 -242.499 42.5c-18 0 -38.333 -0.5 -61 -1.5l-67.5 -3c-22.333 -1 -43.333 -2.33301 -63 -4s-35.834 -2.83398 -48.501 -3.50098z
M143.003 1438c15.333 -0.666992 29.668 -1.33203 43.001 -1.99902c11.333 -0.666992 23 -1.16699 35 -1.5s21.667 -0.5 29 -0.5c12.667 0 33.834 0.666992 63.501 2s63.5 2.66602 101.5 3.99902l118.5 4c41 1.33301 79.5 2 115.5 2c96.667 0 188.667 -12 276 -36
s164 -63.333 230 -118s118.333 -126.334 157 -215.001s58 -197.667 58 -327c0 -92.667 -10.167 -176 -30.5 -250s-48.833 -139.333 -85.5 -196s-80.5 -105.167 -131.5 -145.5s-107.333 -73.5 -169 -99.5s-127.5 -45 -197.5 -57s-142.333 -18 -217 -18
c-26.667 0 -58.834 0.833008 -96.501 2.5s-75.5 3.5 -113.5 5.5l-107.5 5.5c-33.667 1.66699 -59.834 2.5 -78.501 2.5v4c4 14 7.83301 31.333 11.5 52s6.83398 46.334 9.50098 77.001s4.66699 67.167 6 109.5s2 91.833 2 148.5v651c0 56.667 -0.666992 106.5 -2 149.5
s-3.33301 80 -6 111s-5.83398 57.167 -9.50098 78.5s-7.5 39 -11.5 53v4z" />
    <glyph glyph-name="E" unicode="E" horiz-adv-x="1004" 
d="M143 1434c83.333 0 166.167 0.331055 248.5 0.998047s157.833 1.5 226.5 2.5s127.334 2.5 176.001 4.5s81.667 4.66699 99 8l-49 -133c-22 6 -47.667 11.333 -77 16c-25.333 4 -56.166 7.83301 -92.499 11.5s-78.166 5.5 -125.499 5.5c-16 0 -35.167 -0.5 -57.5 -1.5
s-43.833 -2.16699 -64.5 -3.5l-73 -4v-546c68.667 0.666992 130.667 2.66699 186 6s102.333 6.66602 141 9.99902c45.333 4 85.333 8.66699 120 14l-31 -145c-46 6 -93 11.667 -141 17c-41.333 4.66699 -86.333 8.83398 -135 12.501s-95.334 5.5 -140.001 5.5v-627
c78.667 0 151 3.33301 217 10s123.667 14.334 173 23.001c57.333 9.33301 109.666 20.333 156.999 33l-29 -162c-8 0.666992 -20 1.33398 -36 2.00098s-33.833 1.33398 -53.5 2.00098s-40.334 1.16699 -62.001 1.5s-42.167 0.666016 -61.5 0.999023
s-36.5 0.666016 -51.5 0.999023s-25.833 0.5 -32.5 0.5h-432v4c4 14 7.83301 31.333 11.5 52s6.83398 46.334 9.50098 77.001s4.66699 67.167 6 109.5s2 91.833 2 148.5v651c0 56.667 -0.666992 106.167 -2 148.5s-3.33301 79 -6 110s-5.83398 56.833 -9.50098 77.5
s-7.5 38 -11.5 52v4v0z" />
    <glyph glyph-name="F" unicode="F" horiz-adv-x="954" 
d="M354 391c0 -56.667 0.832031 -106.167 2.49902 -148.5s3.66699 -78.833 6 -109.5s5.33301 -56.334 9 -77.001s7.5 -38 11.5 -52v-4h-240v4c4 14 7.83301 31.333 11.5 52s6.83398 46.334 9.50098 77.001s4.66699 67.167 6 109.5s2 91.833 2 148.5v651
c0 56.667 -0.666992 106.167 -2 148.5s-3.33301 79 -6 110s-5.83398 56.833 -9.50098 77.5s-7.5 38 -11.5 52v4c55.333 0 111.333 0.166992 168 0.5l165 1c53.333 0.333008 104 1 152 2s91.333 2 130 3s71.334 2.33301 98.001 4s45.667 3.5 57 5.5l-49 -133
c-22 6 -47.667 11.333 -77 16c-25.333 4 -56.166 7.83301 -92.499 11.5s-78.166 5.5 -125.499 5.5c-16 0 -36 -0.5 -60 -1.5s-47.667 -2.16699 -71 -3.5l-84 -4v-505c68.667 0.666992 131.667 2.66699 189 6s106.666 6.66602 147.999 9.99902c48 4 91.333 8.66699 130 14
l-30 -145c-50 6 -100.667 11.667 -152 17c-44 4.66699 -91.333 8.83398 -142 12.501s-98.334 5.5 -143.001 5.5v-365z" />
    <glyph glyph-name="G" unicode="G" horiz-adv-x="1520" 
d="M1405 168c0 -7.33301 -0.833008 -14.9961 -2.5 -22.9961s-5.5 -14.667 -11.5 -20c-30 -22.667 -62.5 -43.5 -97.5 -62.5s-72.833 -35.5 -113.5 -49.5s-84.5 -24.833 -131.5 -32.5s-97.5 -11.5 -151.5 -11.5c-121.333 0 -232 17.833 -332 53.5
s-185.833 86.167 -257.5 151.5s-127.167 143.833 -166.5 235.5s-59 193.5 -59 305.5c0 63.333 8.16699 125.666 24.5 186.999s40.166 119.666 71.499 174.999s70 106.166 116 152.499s98.5 86.5 157.5 120.5s124 60.5 195 79.5s147.833 28.5 230.5 28.5
c32 0 64.667 -1.5 98 -4.5s66.333 -7.33301 99 -13s64.167 -12.5 94.5 -20.5s59.166 -17 86.499 -27l68 -185l-8 -4c-26 23.333 -56 45 -90 65s-70.333 37.333 -109 52s-79.167 26.167 -121.5 34.5s-85.166 12.5 -128.499 12.5c-84 0 -161 -13.167 -231 -39.5
s-130.167 -64.5 -180.5 -114.5s-89.5 -111.333 -117.5 -184s-42 -155.334 -42 -248.001c0 -102 13.333 -196.667 40 -284s66.334 -163 119.001 -227s118.5 -114.167 197.5 -150.5s171.167 -54.5 276.5 -54.5c46.667 0 88.334 3.66699 125.001 11s67.667 16.5 93 27.5
s44.5 23 57.5 36s19.5 24.833 19.5 35.5v39c0 46.667 -0.666992 87 -2 121s-3.33301 63.5 -6 88.5s-5.66699 46.5 -9 64.5s-7.33301 34.667 -12 50v4h240v-4c-4 -14 -7.83301 -30.5 -11.5 -49.5s-6.83398 -41.5 -9.50098 -67.5s-4.66699 -56.5 -6 -91.5s-2 -75.5 -2 -121.5
v-41z" />
    <glyph glyph-name="H" unicode="H" horiz-adv-x="1489" 
d="M1135 686c-26.667 0.666992 -59.998 1.16797 -99.998 1.50098s-83.5 0.833008 -130.5 1.5s-96 1.16699 -147 1.5l-149.5 1c-48.667 0.333008 -95 0.166016 -139 -0.500977s-82.333 -1.66699 -115 -3v-297c0 -56.667 0.833008 -106.167 2.5 -148.5
s3.66699 -78.833 6 -109.5s5.33301 -56.334 9 -77.001s7.5 -38 11.5 -52v-4h-240v4c4 14 7.83301 31.333 11.5 52s6.83398 46.334 9.50098 77.001s4.66699 67.167 6 109.5s2 91.833 2 148.5v651c0 56.667 -0.666992 106.167 -2 148.5s-3.33301 79 -6 110
s-5.83398 56.833 -9.50098 77.5s-7.5 38 -11.5 52v4h240v-4c-4 -14 -7.83301 -31.333 -11.5 -52s-6.66699 -46.5 -9 -77.5s-4.33301 -67.667 -6 -110s-2.5 -91.833 -2.5 -148.5v-256c34.667 -1.33301 74 -2.16602 118 -2.49902s90 -0.333008 138 0
s96.833 0.833008 146.5 1.5s97.667 1.5 144 2.5s89.666 2.16699 129.999 3.5s75.166 2.66602 104.499 3.99902v247c0 56.667 -0.833008 106.167 -2.5 148.5s-3.66699 79 -6 110s-5.33301 56.833 -9 77.5s-7.5 38 -11.5 52v4h240v-4c-4 -14 -7.83301 -31.333 -11.5 -52
s-6.83398 -46.5 -9.50098 -77.5s-4.66699 -67.667 -6 -110s-2 -91.833 -2 -148.5v-651c0 -56.667 0.666992 -106.167 2 -148.5s3.33301 -78.833 6 -109.5s5.83398 -56.334 9.50098 -77.001s7.5 -38 11.5 -52v-4h-240v4c4 14 7.83301 31.333 11.5 52s6.66699 46.334 9 77.001
s4.33301 67.167 6 109.5s2.5 91.833 2.5 148.5v295z" />
    <glyph glyph-name="I" unicode="I" horiz-adv-x="543" 
d="M152 4c4 14 7.66699 31.333 11 52s6.33301 46.334 9 77.001s4.66699 67.167 6 109.5s2 91.833 2 148.5v651c0 56.667 -0.666992 106.167 -2 148.5s-3.33301 79 -6 110s-5.66699 56.833 -9 77.5s-7 38 -11 52v4h239v-4c-4 -14 -7.83301 -31.333 -11.5 -52
s-6.66699 -46.5 -9 -77.5s-4.33301 -67.667 -6 -110s-2.5 -91.833 -2.5 -148.5v-651c0 -56.667 0.833008 -106.167 2.5 -148.5s3.66699 -78.833 6 -109.5s5.33301 -56.334 9 -77.001s7.5 -38 11.5 -52v-4h-239v4z" />
    <glyph glyph-name="J" unicode="J" horiz-adv-x="510" 
d="M346 207c0 -90 -9.16504 -168.002 -27.498 -234.002s-44 -124.5 -77 -175.5s-72 -96.5 -117 -136.5s-94.167 -79.333 -147.5 -118l-18 25c46 42 82.5 85.667 109.5 131s47.667 93.833 62 145.5s23.5 107.334 27.5 167.001s6 124.834 6 195.501v835
c0 56.667 -0.666992 106.167 -2 148.5s-3.33301 79 -6 110s-5.83398 56.833 -9.50098 77.5s-7.5 38 -11.5 52v4h240v-4c-4 -14 -7.83301 -31.333 -11.5 -52s-6.83398 -46.5 -9.50098 -77.5s-4.66699 -67.667 -6 -110s-2 -91.833 -2 -148.5v-835z" />
    <glyph glyph-name="K" unicode="K" horiz-adv-x="1323" 
d="M143 4c4 14 7.8291 31.334 11.4961 52.001s6.83398 46.334 9.50098 77.001s4.66699 67.167 6 109.5s2 91.833 2 148.5v651c0 56.667 -0.666992 106.167 -2 148.5s-3.33301 79 -6 110s-5.83398 56.833 -9.50098 77.5s-7.5 38 -11.5 52v4h240v-4
c-4 -14 -7.83301 -31.333 -11.5 -52s-6.66699 -46.5 -9 -77.5s-4.33301 -67.667 -6 -110s-2.5 -91.833 -2.5 -148.5v-223l584 477c65.333 53.333 98 99.333 98 138h281v-4c-39.333 -9.33301 -79.166 -27.166 -119.499 -53.499s-83.166 -58.5 -128.499 -96.5l-516 -432
l621 -682l66.5 -66.5c18.333 -17.667 34.5 -32.334 48.5 -44.001s26.833 -21.334 38.5 -29.001s23.834 -15.167 36.501 -22.5v-4h-293c-2.66699 6 -7.16699 13.667 -13.5 23s-13.666 19 -21.999 29l-27 31l-27.5 30l-627 688v-410c0 -56.667 0.833008 -106.167 2.5 -148.5
s3.66699 -78.833 6 -109.5s5.33301 -56.334 9 -77.001s7.5 -38 11.5 -52v-4h-240v4z" />
    <glyph glyph-name="L" unicode="L" horiz-adv-x="942" 
d="M354 88c78.667 0 151.002 3.33105 217.002 9.99805s123.667 14.334 173 23.001c57.333 9.33301 109.666 20.333 156.999 33l-29 -162c-8 0.666992 -20 1.33398 -36 2.00098s-33.833 1.33398 -53.5 2.00098s-40.334 1.16699 -62.001 1.5s-42.167 0.666016 -61.5 0.999023
s-36.5 0.666016 -51.5 0.999023s-25.833 0.5 -32.5 0.5h-432v4c4 14 7.83301 31.333 11.5 52s6.83398 46.334 9.50098 77.001s4.66699 67.167 6 109.5s2 91.833 2 148.5v651c0 56.667 -0.666992 106.167 -2 148.5s-3.33301 79 -6 110s-5.83398 56.833 -9.50098 77.5
s-7.5 38 -11.5 52v4h240v-4c-4 -14 -7.83301 -31.333 -11.5 -52s-6.66699 -46.5 -9 -77.5s-4.33301 -67.667 -6 -110s-2.5 -91.833 -2.5 -148.5v-954z" />
    <glyph glyph-name="M" unicode="M" horiz-adv-x="2085" 
d="M72 4c7.33301 10.667 15.6689 26.5 25.002 47.5s16.666 47.5 21.999 79.5l24.5 157.5l28 183.5l29 196.5l28 198l26 188l22.5 165.5c6.66699 50 12.167 93.5 16.5 130.5s7.5 64.833 9.5 83.5h127l629 -1176l624 1176h95l164 -1188
c4.66699 -37.333 9.66699 -69.333 15 -96s10.666 -49.5 15.999 -68.5s10.5 -34.667 15.5 -47s9.83301 -22.5 14.5 -30.5v-4h-252v4c3.33301 7.33301 6.5 19.333 9.5 36s4.5 36.667 4.5 60c0 8.66699 -0.333008 17.5 -1 26.5s-1.66699 18.833 -3 29.5l-127 958l-590 -1110
l-69 8l-594 1112c-23.333 -158 -43.666 -304 -60.999 -438l-22 -171.5c-7.33301 -57 -13.833 -110.167 -19.5 -159.5s-10.167 -92.833 -13.5 -130.5s-5 -65.5 -5 -83.5c0 -22.667 0.666992 -42.667 2 -60s2.66602 -32 3.99902 -44c2 -14 4 -26.333 6 -37h-200v4z" />
    <glyph glyph-name="N" unicode="N" horiz-adv-x="1513" 
d="M199 1434l1030 -1096v704c0 56.667 -0.666992 106.167 -2 148.5s-3.33301 79 -6 110s-5.83398 56.833 -9.50098 77.5s-7.5 38 -11.5 52v4h178v-4c-4 -14 -7.66699 -31.333 -11 -52s-6.33301 -46.5 -9 -77.5s-4.66699 -67.667 -6 -110s-2 -91.833 -2 -148.5v-1062h-35
l-1030 1095v-684c0 -56.667 0.666992 -106.167 2 -148.5s3.33301 -78.833 6 -109.5s5.66699 -56.334 9 -77.001s7 -38 11 -52v-4h-178v4c4 14 7.83301 31.333 11.5 52s6.83398 46.334 9.50098 77.001s4.66699 67.167 6 109.5s2 91.833 2 148.5v651
c0 56.667 -0.666992 106.167 -2 148.5s-3.33301 79 -6 110s-5.83398 56.833 -9.50098 77.5s-7.5 38 -11.5 52v4h64z" />
    <glyph glyph-name="O" unicode="O" horiz-adv-x="1651" 
d="M797 1458c111.333 0 214.165 -18.165 308.498 -54.498s175.833 -87.333 244.5 -153s122.334 -144.5 161.001 -236.5s58 -193.667 58 -305c0 -63.333 -7.33301 -125.666 -22 -186.999s-36.167 -119.333 -64.5 -174s-63.166 -105.167 -104.499 -151.5
s-88.5 -86.333 -141.5 -120s-111.5 -60 -175.5 -79s-133 -28.5 -207 -28.5c-111.333 0 -214.166 17.833 -308.499 53.5s-175.833 86.167 -244.5 151.5s-122.334 143.833 -161.001 235.5s-58 193.5 -58 305.5c0 63.333 7.33301 125.666 22 186.999
s36.167 119.666 64.5 174.999s63 106.166 104 152.499s88 86.5 141 120.5s111.667 60.5 176 79.5s133.5 28.5 207.5 28.5zM853.999 59.002c74 0 141.67 13.333 203.003 40s114.166 65.334 158.499 116.001s78.833 112.5 103.5 185.5s37 155.833 37 248.5
c0 102.667 -11.833 197.834 -35.5 285.501s-58.834 163.667 -105.501 228s-104.834 114.666 -174.501 150.999s-150.834 54.5 -243.501 54.5c-74 0 -141.667 -13.167 -203 -39.5s-114.166 -64.5 -158.499 -114.5s-78.833 -111.333 -103.5 -184s-37 -155.334 -37 -248.001
c0 -102 11.667 -197.167 35 -285.5s58.333 -164.833 105 -229.5s105 -115.5 175 -152.5s151.333 -55.5 244 -55.5z" />
    <glyph glyph-name="P" unicode="P" horiz-adv-x="1049" 
d="M354 635c65.333 -12 125.165 -13.168 179.498 -3.50098s101 30.334 140 62.001s69.333 74.5 91 128.5s32.5 120 32.5 198c0 54 -5.66699 103.167 -17 147.5s-28.166 82 -50.499 113s-50.5 55 -84.5 72s-73.667 25.5 -119 25.5c-28.667 0 -53.667 -1.16699 -75 -3.5
s-39.333 -4.83301 -54 -7.5c-17.333 -3.33301 -31.666 -7 -42.999 -11v-721zM142.999 1434l41.9961 -4.00098c12.667 -1.33301 26.834 -2.16602 42.501 -2.49902s31.834 -0.5 48.501 -0.5c26 0 61.167 3.16699 105.5 9.5s100.833 9.5 169.5 9.5
c64 0 123.167 -9.33301 177.5 -28s101.5 -46 141.5 -82s71.167 -79.833 93.5 -131.5s33.5 -110.5 33.5 -176.5c0 -88.667 -17.667 -165.334 -53 -230.001s-82.666 -117 -141.999 -157s-127.666 -67.167 -204.999 -81.5s-158.333 -15.166 -243 -2.49902v-166
c0 -56.667 0.833008 -106.167 2.5 -148.5s3.66699 -78.833 6 -109.5s5.33301 -56.334 9 -77.001s7.5 -38 11.5 -52v-4h-240v4c4 14 7.83301 31.333 11.5 52s6.83398 46.334 9.50098 77.001s4.66699 67.167 6 109.5s2 91.833 2 148.5v651
c0 56.667 -0.666992 106.167 -2 148.5s-3.33301 79 -6 110s-5.83398 56.833 -9.50098 77.5s-7.5 38 -11.5 52v4z" />
    <glyph glyph-name="Q" unicode="Q" horiz-adv-x="1651" 
d="M797 1458c111.333 0 214.162 -18.1602 308.495 -54.4932s175.833 -87.333 244.5 -153s122.334 -144.5 161.001 -236.5s58 -193.667 58 -305c0 -75.333 -10.333 -148.833 -31 -220.5s-50.667 -138.334 -90 -200.001s-87.5 -116.334 -144.5 -164.001
s-121.5 -85.167 -193.5 -112.5l62.5 -114.5c21.667 -39 46 -77.333 73 -115s57.833 -73.834 92.5 -108.501s74.667 -66.334 120 -95.001s97.333 -54 156 -76s125.667 -38.667 201 -50c-0.666992 -2 -1.66699 -4.33301 -3 -7s-2.66602 -5.5 -3.99902 -8.5
s-2.66602 -6.5 -3.99902 -10.5c-87.333 2.66699 -168.166 13.5 -242.499 32.5s-142.666 43.333 -204.999 73s-119.166 63.167 -170.499 100.5s-97.5 75.5 -138.5 114.5s-77.167 77.667 -108.5 116s-58.333 73.5 -81 105.5c-112.667 0 -216.334 17.833 -311.001 53.5
s-176.5 86.167 -245.5 151.5s-122.833 143.833 -161.5 235.5s-58 193.5 -58 305.5c0 63.333 7.33301 125.666 22 186.999s36.167 119.666 64.5 174.999s63 106.166 104 152.499s88 86.5 141 120.5s111.667 60.5 176 79.5s133.5 28.5 207.5 28.5zM853.996 59.0068
c74 0 141.67 13.333 203.003 40s114.166 65.334 158.499 116.001s78.833 112.5 103.5 185.5s37 155.833 37 248.5c0 102.667 -11.833 197.834 -35.5 285.501s-58.834 163.667 -105.501 228s-104.834 114.666 -174.501 150.999s-150.834 54.5 -243.501 54.5
c-74 0 -141.667 -13.167 -203 -39.5s-114.166 -64.5 -158.499 -114.5s-78.833 -111.333 -103.5 -184s-37 -155.334 -37 -248.001c0 -102 11.667 -197.167 35 -285.5s58.333 -164.833 105 -229.5s105 -115.5 175 -152.5s151.333 -55.5 244 -55.5z" />
    <glyph glyph-name="R" unicode="R" horiz-adv-x="1210" 
d="M354 391c0 -56.667 0.829102 -106.172 2.49609 -148.505s3.66699 -78.833 6 -109.5s5.33301 -56.334 9 -77.001s7.5 -38 11.5 -52v-4h-240v4c4 14 7.83301 31.333 11.5 52s6.83398 46.334 9.50098 77.001s4.66699 67.167 6 109.5s2 91.833 2 148.5v651
c0 56.667 -0.666992 106.167 -2 148.5s-3.33301 79 -6 110s-5.83398 56.833 -9.50098 77.5s-7.5 38 -11.5 52v4l42 -4c12.667 -1.33301 26.834 -2.16602 42.501 -2.49902s31.834 -0.5 48.501 -0.5c26 0 61.167 3.16699 105.5 9.5s100.833 9.5 169.5 9.5
c64 0 123.167 -8.66699 177.5 -26s101.5 -42.666 141.5 -75.999s71.167 -74.166 93.5 -122.499s33.5 -103.166 33.5 -164.499c0 -48 -6.16699 -92.5 -18.5 -133.5s-29.666 -78.167 -51.999 -111.5s-49.166 -62.833 -80.499 -88.5s-66.333 -47.167 -105 -64.5l351 -493
c17.333 -24.667 33.5 -46 48.5 -64s29.333 -33.333 43 -46s26.834 -23.167 39.501 -31.5s25.667 -15.166 39 -20.499v-4h-289c-2 12.667 -8.5 29.5 -19.5 50.5s-23.833 41.833 -38.5 62.5l-354 499c-32.667 -3.33301 -66.334 -5 -101.001 -5s-70 3 -106 9v-225z
M353.996 693.995c65.333 -12 125.165 -13.666 179.498 -4.99902s101 27.667 140 57s69.333 69.166 91 119.499s32.5 111.5 32.5 183.5c0 50 -5.66699 95.333 -17 136s-28.166 75.167 -50.499 103.5s-50.5 50.333 -84.5 66s-73.667 23.5 -119 23.5
c-28.667 0 -53.667 -1.16699 -75 -3.5s-39.333 -4.83301 -54 -7.5c-17.333 -3.33301 -31.666 -7 -42.999 -11v-662z" />
    <glyph glyph-name="S" unicode="S" horiz-adv-x="932" 
d="M741 1206l-21.999 0.00390625c-5.33301 15.333 -13.833 32.666 -25.5 51.999s-27 37.5 -46 54.5s-42 31.167 -69 42.5s-58.833 17 -95.5 17c-32.667 0 -61.667 -5 -87 -15s-46.5 -24 -63.5 -42s-29.833 -39.333 -38.5 -64s-13 -52 -13 -82
c0 -48 13.5 -93.833 40.5 -137.5s60.833 -86.834 101.5 -129.501s84.667 -85.334 132 -128.001s91.333 -87 132 -133s74.5 -94.167 101.5 -144.5s40.5 -104.5 40.5 -162.5c0 -43.333 -7.5 -86.833 -22.5 -130.5s-38.167 -82.834 -69.5 -117.501
s-71.666 -62.834 -120.999 -84.501s-108 -32.5 -176 -32.5c-38 0 -74.167 3.5 -108.5 10.5s-66 15.667 -95 26s-55 21.5 -78 33.5s-41.833 23 -56.5 33l23 221h25c7.33301 -31.333 19.333 -61.166 36 -89.499s37.167 -53.333 61.5 -75s52.166 -39 83.499 -52
s65.666 -19.5 102.999 -19.5c34 0 64.5 5.16699 91.5 15.5s50.167 24.666 69.5 42.999s34.166 40.166 44.499 65.499s15.5 53 15.5 83c0 42 -7.66699 80.833 -23 116.5s-35.5 69.5 -60.5 101.5s-53.333 63 -85 93l-97.5 90.5c-33.333 30.333 -65.833 61.5 -97.5 93.5
s-60 66.167 -85 102.5s-45.167 75.333 -60.5 117s-23 87.5 -23 137.5c0 52.667 10.167 100.167 30.5 142.5s47.333 78.5 81 108.5s71.834 53 114.501 69s86.667 24 132 24c33.333 0 64 -2.66699 92 -8s53.167 -11.666 75.5 -18.999s41.833 -14.666 58.5 -21.999l41 -18z" />
    <glyph glyph-name="T" unicode="T" horiz-adv-x="1223" 
d="M520 1346c-78.667 0 -149.669 -3.5 -213.002 -10.5s-118 -14.5 -164 -22.5c-53.333 -10 -101 -21 -143 -33l29 162c8 -0.666992 20 -1.33398 36 -2.00098s33.833 -1.33398 53.5 -2.00098s40.334 -1.16699 62.001 -1.5s42.167 -0.666016 61.5 -0.999023
s36.5 -0.666016 51.5 -0.999023s25.833 -0.5 32.5 -0.5h571c6.66699 0 17.5 0.166992 32.5 0.5s32.167 0.666016 51.5 0.999023s39.833 0.666016 61.5 0.999023s42.334 0.833008 62.001 1.5s37.5 1.33398 53.5 2.00098s28 1.33398 36 2.00098l29 -162
c-42.667 12 -90.667 23 -144 33c-46 8 -100.667 15.5 -164 22.5s-134.333 10.5 -213 10.5v-955c0 -56.667 0.833008 -106.167 2.5 -148.5s3.66699 -78.833 6 -109.5s5.33301 -56.334 9 -77.001s7.5 -38 11.5 -52v-4h-239v4c4 14 7.66699 31.333 11 52
s6.33301 46.334 9 77.001s4.66699 67.167 6 109.5s2 91.833 2 148.5v955z" />
    <glyph glyph-name="U" unicode="U" horiz-adv-x="1454" 
d="M1169 1042c0 56.667 -0.661133 106.166 -1.99414 148.499s-3.33301 79 -6 110s-5.66699 56.833 -9 77.5s-7 38 -11 52v4h178v-4c-4 -14 -7.83301 -31.333 -11.5 -52s-6.66699 -46.5 -9 -77.5s-4.33301 -67.667 -6 -110s-2.5 -91.833 -2.5 -148.5v-540
c0 -95.333 -13.667 -176.666 -41 -243.999s-65.333 -122.5 -114 -165.5s-107 -74.333 -175 -94s-142.333 -29.5 -223 -29.5s-155.834 9.33301 -225.501 28s-130.334 48.834 -182.001 90.501s-92.167 95.667 -121.5 162s-44 147.166 -44 242.499v550
c0 56.667 -0.666992 106.167 -2 148.5s-3.33301 79 -6 110s-5.83398 56.833 -9.50098 77.5s-7.5 38 -11.5 52v4h240v-4c-4 -14 -7.83301 -31.333 -11.5 -52s-6.83398 -46.5 -9.50098 -77.5s-4.66699 -67.667 -6 -110s-2 -91.833 -2 -148.5v-561
c0 -79.333 11.833 -144.833 35.5 -196.5s54.834 -92.667 93.501 -123s82.667 -51.5 132 -63.5s99.666 -18 150.999 -18s101.666 6 150.999 18s93.166 33.167 131.499 63.5s69.333 71.333 93 123s35.5 117.167 35.5 196.5v561z" />
    <glyph glyph-name="V" unicode="V" horiz-adv-x="1348" 
d="M233 1434l-0.000976562 -4.00195c-1.33301 -3.33301 -2.33301 -8.33301 -3 -15s-1 -12.667 -1 -18c0 -20.667 2.83301 -43.5 8.5 -68.5s16.5 -56.167 32.5 -93.5l443 -999l428 991l32 81c11.333 29.333 17 59 17 89c0 8 -0.666992 14.833 -2 20.5
s-2.66602 9.83398 -3.99902 12.501v4h205v-4c-12.667 -12.667 -28 -35.334 -46 -68.001s-37.667 -73 -59 -121l-573 -1272h-80l-543 1223c-12.667 28.667 -25.834 56.334 -39.501 83.001l-38.5 72.5c-12 21.667 -22.667 39.834 -32 54.501s-15.666 24 -18.999 28v4h274z" />
    <glyph glyph-name="W" unicode="W" horiz-adv-x="2077" 
d="M1079 1245l400.002 -970.999l389 953c15.333 39.333 26.666 72.666 33.999 99.999s11 50.666 11 69.999c0 6 -0.333008 12.167 -1 18.5s-1.66699 11.166 -3 14.499v4h198v-4c-13.333 -14.667 -27.833 -38 -43.5 -70s-33.834 -71.667 -54.501 -119l-534 -1272h-76
l-389 944l-355 -944h-75l-490 1223c-12 28.667 -24.167 56.334 -36.5 83.001s-24 50.667 -35 72s-21 39.333 -30 54s-15.5 24.334 -19.5 29.001v4h277v-4c-1.33301 -7.33301 -2 -13 -2 -17v-14c0 -22.667 2.5 -46.667 7.5 -72s14.833 -56 29.5 -92l376 -950l359 956z" />
    <glyph glyph-name="X" unicode="X" horiz-adv-x="1430" 
d="M678 627l-354.002 -448.999c-13.333 -16 -26.333 -32.5 -39 -49.5s-24 -33.5 -34 -49.5s-18.167 -30.833 -24.5 -44.5s-9.5 -25.167 -9.5 -34.5h-194v4l62 58c27.333 26 56.333 58.667 87 98l440 553l-452 594c-24.667 32 -49 58.833 -73 80.5s-42 35.834 -54 42.501v4
h313c0 -8 1.16699 -18.333 3.5 -31s6.83301 -27.5 13.5 -44.5s15.834 -35.833 27.501 -56.5s26.834 -43 45.501 -67l289 -379l319 399c12 14.667 23.833 30.667 35.5 48s22 34.166 31 50.499s16.333 31.5 22 45.5s8.5 25.667 8.5 35h194v-4
c-6.66699 -5.33301 -14 -11.666 -22 -18.999s-17.167 -16.333 -27.5 -27s-21.833 -23.334 -34.5 -38.001l-43 -52l-417 -526l466 -610c32 -41.333 61.833 -75.5 89.5 -102.5s47.834 -44.167 60.501 -51.5v-4h-311c0 15.333 -6.33301 40.666 -19 75.999
s-36.334 76.333 -71.001 123z" />
    <glyph glyph-name="Y" unicode="Y" horiz-adv-x="1272" 
d="M727 688l0.00195312 -296.999c0 -56.667 0.666992 -106.167 2 -148.5s3.33301 -78.833 6 -109.5s5.83398 -56.334 9.50098 -77.001s7.5 -38 11.5 -52v-4h-240v4c4 14 7.83301 31.333 11.5 52s6.66699 46.334 9 77.001s4.33301 67.167 6 109.5s2.5 91.833 2.5 148.5v277
l-447 608c-15.333 20.667 -30.5 39.667 -45.5 57s-29.167 32.5 -42.5 45.5s-25.333 23.833 -36 32.5s-19 15 -25 19v4h303c0 -15.333 6.5 -40.5 19.5 -75.5s36.5 -76.167 70.5 -123.5l328 -449l321 469l34 51c11.333 17.333 21.666 34 30.999 50s16.833 30.667 22.5 44
s8.5 24.666 8.5 33.999h195v-4c-14.667 -12.667 -34.334 -31.5 -59.001 -56.5s-51.334 -58.167 -80.001 -99.5z" />
    <glyph glyph-name="Z" unicode="Z" horiz-adv-x="1315" 
d="M297 88l428.003 -0.000976562c78 0 150.167 3.33301 216.5 10s124.166 14.334 173.499 23.001c57.333 9.33301 109.666 20.333 156.999 33l-49 -162c-8 0.666992 -20 1.33398 -36 2.00098s-33.833 1.33398 -53.5 2.00098s-40.334 1.16699 -62.001 1.5
s-42.167 0.666016 -61.5 0.999023s-36.5 0.666016 -51.5 0.999023s-25.833 0.5 -32.5 0.5h-903v25l974 1321h-376c-78.667 0 -151.167 -3.5 -217.5 -10.5s-124.166 -14.5 -173.499 -22.5c-57.333 -10 -109.333 -21 -156 -33l69 162
c8 -0.666992 20.167 -1.33398 36.5 -2.00098s34.333 -1.33398 54 -2.00098s40.167 -1.16699 61.5 -1.5s41.666 -0.666016 60.999 -0.999023s36.5 -0.666016 51.5 -0.999023s25.833 -0.5 32.5 -0.5h832v-27z" />
    <glyph glyph-name="bracketleft" unicode="[" horiz-adv-x="637" 
d="M152 -252c4 14 7.66602 31.332 10.999 51.999s6.33301 46.334 9 77.001s4.66699 67.167 6 109.5s2 91.833 2 148.5v969c0 56.667 -0.666992 106.167 -2 148.5s-3.33301 78.833 -6 109.5s-5.66699 56.334 -9 77.001s-7 38 -11 52v4h28c56 0 104.5 0.166992 145.5 0.5
s76.5 0.666016 106.5 0.999023s55.5 1 76.5 2s39 2 54 3s28.333 2.33301 40 4s23.167 3.5 34.5 5.5l-49 -133c-20.667 6 -44.667 11.333 -72 16c-23.333 4 -52 7.66699 -86 11s-73 5.33301 -117 6v-1583c42 0.666992 78 1.66699 108 3s55.667 3 77 5s38.833 4.33301 52.5 7
s25.334 5.5 35.001 8.5s17.834 6.16699 24.501 9.5l21 10l-23 -135c-8 0.666992 -20 1.33398 -36 2.00098s-33.833 1.33398 -53.5 2.00098s-40.334 1.16699 -62.001 1.5s-42.167 0.666016 -61.5 0.999023s-36.5 0.666016 -51.5 0.999023s-25.833 0.5 -32.5 0.5h-159v4z" />
    <glyph glyph-name="backslash" unicode="\" horiz-adv-x="893" 
d="M872 -63l-92 -46l-760 1614l93 45z" />
    <glyph glyph-name="bracketright" unicode="]" horiz-adv-x="637" 
d="M485 1495l-0.00195312 -3.99512c-4 -14 -7.66699 -31.333 -11 -52s-6.33301 -46.334 -9 -77.001s-4.66699 -67.167 -6 -109.5s-2 -91.833 -2 -148.5v-969c0 -56.667 0.666992 -106.167 2 -148.5s3.33301 -78.833 6 -109.5s5.66699 -56.334 9 -77.001s7 -38 11 -52v-4
h-159c-6.66699 0 -18.334 -0.166992 -35.001 -0.5s-35.667 -0.666016 -57 -0.999023s-44 -0.666016 -68 -0.999023s-47 -0.833008 -69 -1.5s-41.667 -1.33398 -59 -2.00098s-30 -1.33398 -38 -2.00098l41 135c10.667 -6 22.334 -11.333 35.001 -16
s29.334 -8.83398 50.001 -12.501s46.834 -6.83398 78.501 -9.50098s71.5 -4.33398 119.5 -5.00098v1583c-46 -0.666992 -88.5 -2.66699 -127.5 -6s-73.167 -7 -102.5 -11c-34 -4.66699 -65.333 -10 -94 -16l41 133c14 -2.66699 27 -5 39 -7s27.5 -3.66699 46.5 -5
s43.833 -2.33301 74.5 -3s71.667 -1 123 -1h161z" />
    <glyph glyph-name="asciicircum" unicode="^" 
d="M510 1290l-326 -342l-34 25l307 461h112l308 -461l-35 -25l-326 342h-6z" />
    <glyph glyph-name="underscore" unicode="_" 
d="M0 -365h1024v-118h-1024v118z" />
    <glyph glyph-name="grave" unicode="`" 
d="M375 1477c38 -35.333 77.667 -70.333 119 -105l118.5 -96c43.667 -34 87.167 -65.333 130.5 -94l-22 -37c-23.333 12 -47.333 23.5 -72 34.5l-74.5 32.5l-73.5 30l-68 26l-150 53z" />
    <glyph glyph-name="a" unicode="a" horiz-adv-x="1151" 
d="M784 338l-67.502 -0.00390625h-88.5h-99c-34 0 -66.333 -0.166992 -97 -0.5s-58.667 -0.666016 -84 -0.999023s-45 -0.5 -59 -0.5l-37 -78l-41 -83.5c-11.333 -23.667 -20.666 -44.5 -27.999 -62.5s-12.666 -33.5 -15.999 -46.5s-5 -25.167 -5 -36.5
c0 -7.33301 0.333008 -12.833 1 -16.5s1.66699 -6.5 3 -8.5v-4h-176v4c4.66699 4.66699 12 14.834 22 30.501s21.5 34.834 34.5 57.501l42 77l44.5 89l408 842h75l400 -842c15.333 -32 30.833 -62.667 46.5 -92l43.5 -78.5c13.333 -23 25 -42 35 -57
s16.667 -23.833 20 -26.5v-4h-256c1.33301 5.33301 2 10.166 2 14.499v14.5c0 14.667 -3.16699 32.334 -9.5 53.001s-14 41.834 -23 63.501s-18.333 42.5 -28 62.5l-23.5 50zM327.998 415.996h61c28 0 57.833 0.166992 89.5 0.5s63.5 0.5 95.5 0.5s63 0.166992 93 0.5
s57 0.5 81 0.5l-207 442z" />
    <glyph glyph-name="b" unicode="b" horiz-adv-x="975" 
d="M467 526c-32 0 -59.167 -1.16602 -81.5 -3.49902s-39.5 -4.5 -51.5 -6.5v-104c0 -57.333 0.166992 -105.333 0.5 -144s1 -71 2 -97s1.83301 -46.833 2.5 -62.5s1.66699 -29.167 3 -40.5c17.333 -4.66699 35.833 -7.66699 55.5 -9s35.167 -2 46.5 -2
c92 0 158.833 20.167 200.5 60.5s62.5 102.833 62.5 187.5c0 32 -5 61.667 -15 89s-25 50.666 -45 69.999s-45 34.5 -75 45.5s-65 16.5 -105 16.5zM334 594.001c13.333 -2 25.3311 -3.16699 35.998 -3.5s21.667 -0.5 33 -0.5c67.333 0 120.833 18.667 160.5 56
s59.5 93 59.5 167c0 30 -4 57.667 -12 83s-19.5 47 -34.5 65s-33.667 32 -56 42s-47.833 15 -76.5 15c-19.333 0 -35.666 -0.833008 -48.999 -2.5s-24.666 -3.16699 -33.999 -4.5c-10.667 -2.66699 -19.667 -5 -27 -7v-410zM130.998 1077
c12.667 -0.666992 25.6631 -1.00195 38.9961 -1.00195c11.333 -0.666992 23.666 -1 36.999 -1h39c20.667 0 49.334 1.33301 86.001 4s82.334 4 137.001 4c48.667 0 93.834 -5.83301 135.501 -17.5s77.667 -28.5 108 -50.5s54 -49 71 -81s25.5 -68.333 25.5 -109
c0 -34.667 -4.83301 -65.5 -14.5 -92.5s-23.5 -50.667 -41.5 -71s-39.667 -37.333 -65 -51s-53.333 -24.5 -84 -32.5c44.667 -6.66699 85.334 -17.667 122.001 -33s68 -34.5 94 -57.5s46 -50 60 -81s21 -65.5 21 -103.5c0 -105.333 -37.667 -184.166 -113 -236.499
s-187.666 -78.5 -336.999 -78.5c-16 0 -35.833 0.666992 -59.5 2l-74 4l-74 4c-23.667 1.33301 -43.5 2 -59.5 2h-53v4c4.66699 14 8.83398 32 12.501 54s6.66699 49.167 9 81.5s4.16602 70.833 5.49902 115.5s2 97 2 157v252c0 60 -0.666992 112.333 -2 157
s-3.16602 83.334 -5.49902 116.001s-5.33301 60 -9 82s-7.83398 40 -12.501 54v4z" />
    <glyph glyph-name="c" unicode="c" horiz-adv-x="1065" 
d="M1034 223l-77.999 -186.002c-19.333 -8.66699 -41.166 -16.5 -65.499 -23.5s-49.5 -12.833 -75.5 -17.5s-52.5 -8.16699 -79.5 -10.5s-52.5 -3.5 -76.5 -3.5c-84 0 -161.833 12.333 -233.5 37s-133.5 60.834 -185.5 108.501s-92.667 106.167 -122 175.5
s-44 148.666 -44 237.999c0 78.667 15.333 151.667 46 219s73 125.833 127 175.5s117.833 88.5 191.5 116.5s153.5 42 239.5 42c19.333 0 39.833 -0.833008 61.5 -2.5s43.167 -4.16699 64.5 -7.5s42 -7.16602 62 -11.499s38.667 -8.83301 56 -13.5l75 -180l-12 -7
c-18 22 -39.5 42.333 -64.5 61s-52.333 34.5 -82 47.5s-60.834 23.167 -93.501 30.5s-66 11 -100 11c-55.333 0 -105.833 -9.66699 -151.5 -29s-84.667 -47.5 -117 -84.5s-57.5 -82.167 -75.5 -135.5s-27 -113.666 -27 -180.999c0 -76 8.66699 -146.833 26 -212.5
s43.333 -122.667 78 -171s78 -86.333 130 -114s112.667 -41.5 182 -41.5c33.333 0 66.166 4.16699 98.499 12.5s63 20.166 92 35.499s55.5 33.833 79.5 55.5s44.667 45.834 62 72.501z" />
    <glyph glyph-name="d" unicode="d" horiz-adv-x="1221" 
d="M338 1004l-2.00293 -159c0 -22 -0.166992 -44.5 -0.5 -67.5l-1 -68.5c-0.333008 -22.667 -0.5 -44.167 -0.5 -64.5v-54.5c0 -33.333 0.166992 -73.5 0.5 -120.5s0.833008 -95.167 1.5 -144.5s1.66699 -96.833 3 -142.5s3 -83.834 5 -114.501
c6.66699 -1.33301 15.334 -2.5 26.001 -3.5l33.5 -3c11.667 -1 23.167 -1.66699 34.5 -2s21 -0.5 29 -0.5c36.667 0 73.834 2.33301 111.501 7s74 13.5 109 26.5s67.833 30.833 98.5 53.5s57.5 51.834 80.5 87.501s41 78.667 54 129s19.5 109.833 19.5 178.5
c0 151.333 -36.167 268 -108.5 350s-180.166 123 -323.499 123c-14 0 -28.833 -0.333008 -44.5 -1s-31.167 -1.5 -46.5 -2.5s-29.833 -2.16699 -43.5 -3.5s-25.5 -2.33301 -35.5 -3zM130.997 1077c16 -0.666992 30.998 -0.999023 44.998 -0.999023
c12 -0.666992 23.667 -1 35 -1h25c9.33301 0 26 0.333008 50 1s51.167 1.5 81.5 2.5s62.333 2 96 3s64.834 1.5 93.501 1.5c78 0 152.333 -9 223 -27s132.834 -47.5 186.501 -88.5s96.167 -94.667 127.5 -161s47 -148.166 47 -245.499c0 -104.667 -18 -193.334 -54 -266.001
s-84.667 -131.834 -146 -177.501s-132.5 -78.667 -213.5 -99s-166.5 -30.5 -256.5 -30.5c-21.333 0 -48 0.666992 -80 2l-98 4c-33.333 1.33301 -64.833 2.66602 -94.5 3.99902s-52.167 2 -67.5 2v4c4.66699 14 8.83398 32 12.501 54s6.66699 49.167 9 81.5
s4.16602 70.833 5.49902 115.5s2 97 2 157v252c0 60 -0.666992 112.333 -2 157s-3.16602 83.334 -5.49902 116.001s-5.33301 60 -9 82s-7.83398 40 -12.501 54v4z" />
    <glyph glyph-name="e" unicode="e" horiz-adv-x="856" 
d="M131 1075c65.333 0 132.329 0.169922 200.996 0.50293s132.334 1 191.001 2s109.167 2.16699 151.5 3.5s70.166 3.33301 83.499 6l-39 -108c-18 4.66699 -38.333 9 -61 13c-20 3.33301 -44.167 6.5 -72.5 9.5s-61.166 4.5 -98.499 4.5
c-13.333 0 -28.666 -0.5 -45.999 -1.5s-34 -2.16699 -50 -3.5l-57 -4v-395c54 0.666992 102.667 2 146 4s80.333 4.66699 111 8c36 2.66699 67.667 6.33398 95 11.001l-24 -119c-36.667 4.66699 -73.667 8.66699 -111 12c-32 3.33301 -67.333 6.16602 -106 8.49902
s-75.667 3.5 -111 3.5v-454c62 0 119 2.5 171 7.5s97.333 10.5 136 16.5c45.333 7.33301 86.333 15.666 123 24.999l-23 -131c-10 0.666992 -26.167 1.5 -48.5 2.5s-45.666 1.66699 -69.999 2s-47.166 0.666016 -68.499 0.999023s-36 0.5 -44 0.5h-379v4
c4.66699 14 8.83398 32 12.501 54s6.66699 49.167 9 81.5s4.16602 70.833 5.49902 115.5s2 97 2 157v252c0 60 -0.666992 112.167 -2 156.5s-3.16602 82.666 -5.49902 114.999s-5.33301 59.5 -9 81.5s-7.83398 40 -12.501 54v4v0z" />
    <glyph glyph-name="f" unicode="f" horiz-adv-x="807" 
d="M334 412c0 -60 0.667969 -112.332 2.00098 -156.999s3.16602 -83.167 5.49902 -115.5s5.16602 -59.5 8.49902 -81.5s7.33301 -40 12 -54v-4h-231v4c4.66699 14 8.83398 32 12.501 54s6.66699 49.167 9 81.5s4.16602 70.833 5.49902 115.5s2 97 2 157v252
c0 60 -0.666992 112.167 -2 156.5s-3.16602 82.666 -5.49902 114.999s-5.33301 59.5 -9 81.5s-7.83398 40 -12.501 54v4h134.5c46.333 0 92 0.166992 137 0.5s88 0.833008 129 1.5s78 1.5 111 2.5s61.167 2 84.5 3s39.666 2.5 48.999 4.5l-41 -108
c-17.333 4.66699 -37.333 9 -60 13c-19.333 3.33301 -43.5 6.5 -72.5 9.5s-61.833 4.5 -98.5 4.5c-13.333 0 -29.5 -0.5 -48.5 -1.5s-37.5 -2.16699 -55.5 -3.5l-66 -4v-364c54 0.666992 103.333 2.16699 148 4.5s83.334 4.83301 116.001 7.5c38 2.66699 72 6 102 10
l-22 -120c-39.333 4.66699 -79 9 -119 13c-34 3.33301 -71.167 6.33301 -111.5 9s-78.166 4 -113.499 4v-149z" />
    <glyph glyph-name="g" unicode="g" horiz-adv-x="1212" 
d="M1114 121c0 -8.66699 -0.832031 -15.9971 -2.49902 -21.9971s-5.5 -11 -11.5 -15c-47.333 -33.333 -102.5 -59.833 -165.5 -79.5s-136.833 -29.5 -221.5 -29.5c-95.333 0 -182.166 13.667 -260.499 41s-145.5 65.5 -201.5 114.5s-99.5 107.833 -130.5 176.5
s-46.5 144.667 -46.5 228c0 71.333 14.167 140.666 42.5 207.999s69.166 127 122.499 179s118.166 93.667 194.499 125s162.5 47 258.5 47c50 0 97.333 -2.83301 142 -8.5s87.667 -14.5 129 -26.5l75 -180l-10 -7c-40 46 -88.333 82.5 -145 109.5s-121.667 40.5 -195 40.5
c-60 0 -115.167 -9.66699 -165.5 -29s-94 -47.5 -131 -84.5s-65.833 -82.5 -86.5 -136.5s-31 -115.333 -31 -184c0 -77.333 9.66699 -149 29 -215s48.333 -123.167 87 -171.5s86.5 -86.166 143.5 -113.499s123.5 -41 199.5 -41c65.333 0 116.166 8.33301 152.499 25
s54.5 35.667 54.5 57v53c0 34.667 -0.333008 64.667 -1 90s-1.66699 47.166 -3 65.499s-3.16602 34.166 -5.49902 47.499s-5.16602 25.666 -8.49902 36.999v4h213v-4c-3.33301 -10 -6.33301 -22 -9 -36s-4.83398 -30.667 -6.50098 -50s-3 -42 -4 -68s-1.5 -56 -1.5 -90v-57z
" />
    <glyph glyph-name="h" unicode="h" horiz-adv-x="1241" 
d="M907 514c-20.667 0 -46.333 0.166992 -77 0.5s-64 0.833008 -100 1.5s-73.333 1.16699 -112 1.5s-76 0.5 -112 0.5c-34 0 -65.833 -0.333008 -95.5 -1s-55.167 -1.66699 -76.5 -3v-102c0 -60 0.666992 -112.333 2 -157s3.16602 -83.167 5.49902 -115.5
s5.16602 -59.5 8.49902 -81.5s7.33301 -40 12 -54v-4h-231v4c4.66699 14 8.83398 32 12.501 54s6.66699 49.167 9 81.5s4.16602 70.833 5.49902 115.5s2 97 2 157v252c0 60 -0.666992 112.167 -2 156.5s-3.16602 82.666 -5.49902 114.999s-5.33301 59.5 -9 81.5
s-7.83398 40 -12.501 54v4h231v-4c-4.66699 -14 -8.66699 -32 -12 -54s-6.16602 -49.167 -8.49902 -81.5s-4.16602 -70.666 -5.49902 -114.999s-2 -96.5 -2 -156.5v-68h147c36.667 0 75.334 0.166992 116.001 0.5l118 1c38 0.333008 73.667 0.833008 107 1.5
s61.666 1.66699 84.999 3v62c0 60 -0.666992 112.167 -2 156.5s-3.16602 82.666 -5.49902 114.999s-5.16602 59.5 -8.49902 81.5s-7.33301 40 -12 54v4h231v-4c-4.66699 -14 -8.83398 -32 -12.501 -54s-6.66699 -49.167 -9 -81.5s-4.16602 -70.666 -5.49902 -114.999
s-2 -96.5 -2 -156.5v-252c0 -60 0.666992 -112.333 2 -157s3.16602 -83.167 5.49902 -115.5s5.33301 -59.5 9 -81.5s7.83398 -40 12.501 -54v-4h-231v4c4.66699 14 8.66699 32 12 54s6.16602 49.167 8.49902 81.5s4.16602 70.833 5.49902 115.5s2 97 2 157v102z" />
    <glyph glyph-name="i" unicode="i" horiz-adv-x="518" 
d="M168 664c0 60 -0.666992 112.167 -2 156.5s-3.16602 82.666 -5.49902 114.999s-5.33301 59.5 -9 81.5s-7.83398 40 -12.501 54v4h232v-4c-4.66699 -14 -8.83398 -32 -12.501 -54s-6.66699 -49.167 -9 -81.5s-4.16602 -70.666 -5.49902 -114.999s-2 -96.5 -2 -156.5v-252
c0 -60 0.666992 -112.333 2 -157s3.16602 -83.167 5.49902 -115.5s5.33301 -59.5 9 -81.5s7.83398 -40 12.501 -54v-4h-232v4c4.66699 14 8.83398 32 12.501 54s6.66699 49.167 9 81.5s4.16602 70.833 5.49902 115.5s2 97 2 157v252z" />
    <glyph glyph-name="j" unicode="j" horiz-adv-x="510" 
d="M172 664c0 60 -0.666992 112.166 -2 156.499s-3.16602 82.666 -5.49902 114.999s-5.33301 59.5 -9 81.5s-7.83398 40 -12.501 54v4h232v-4c-4.66699 -14 -8.83398 -32 -12.501 -54s-6.66699 -49.167 -9 -81.5s-4.16602 -70.666 -5.49902 -114.999s-2 -96.5 -2 -156.5
v-463c0 -94.667 -8.16699 -174.667 -24.5 -240s-40 -122.166 -71 -170.499s-68.5 -91.5 -112.5 -129.5s-94 -77.333 -150 -118l-19 23c48.667 44 86.667 87.833 114 131.5s47.5 90.5 60.5 140.5s21 104.5 24 163.5s4.5 125.5 4.5 199.5v463z" />
    <glyph glyph-name="k" unicode="k" horiz-adv-x="1128" 
d="M160 664c0 60 -0.666016 112.164 -1.99902 156.497s-3.16602 82.666 -5.49902 114.999s-5.33301 59.5 -9 81.5s-7.83398 40 -12.501 54v4h231v-4c-4.66699 -14 -8.66699 -32 -12 -54s-6.16602 -49.167 -8.49902 -81.5s-4.16602 -70.666 -5.49902 -114.999
s-2 -96.5 -2 -156.5v-66l457 375c25.333 20.667 44.5 39 57.5 55s19.5 31.667 19.5 47h238v-4c-30 -7.33301 -60.833 -20.666 -92.5 -39.999s-65.167 -43.666 -100.5 -72.999l-399 -327l416 -432c55.333 -58 102.166 -102.167 140.499 -132.5s67.833 -51.166 88.5 -62.499
v-4h-272c-7.33301 13.333 -23 33 -47 59l-95 101l-411 428v-176c0 -60 0.666992 -112.333 2 -157s3.16602 -83.167 5.49902 -115.5s5.16602 -59.5 8.49902 -81.5s7.33301 -40 12 -54v-4h-231v4c4.66699 14 8.83398 32 12.501 54s6.66699 49.167 9 81.5
s4.16602 70.833 5.49902 115.5s2 97 2 157v252z" />
    <glyph glyph-name="l" unicode="l" horiz-adv-x="809" 
d="M334 78c62 0 119.165 2.50195 171.498 7.50195s98.166 10.5 137.499 16.5c46 7.33301 87.667 15.666 125 24.999l-23 -133c-9.33301 0.666992 -25.166 1.5 -47.499 2.5s-45.833 1.66699 -70.5 2s-47.667 0.666016 -69 0.999023s-36 0.5 -44 0.5h-383v4
c4.66699 14 8.83398 32 12.501 54s6.66699 49.167 9 81.5s4.16602 70.833 5.49902 115.5s2 97 2 157v252c0 60 -0.666992 112.167 -2 156.5s-3.16602 82.666 -5.49902 114.999s-5.33301 59.5 -9 81.5s-7.83398 40 -12.501 54v4h231v-4c-4.66699 -14 -8.66699 -32 -12 -54
s-6.16602 -49.167 -8.49902 -81.5s-4.16602 -70.666 -5.49902 -114.999s-2 -96.5 -2 -156.5v-586z" />
    <glyph glyph-name="m" unicode="m" horiz-adv-x="1698" 
d="M61 4c8.66699 9.33301 17.5029 26.3301 26.5029 50.9971s16.167 51.334 21.5 80.001l26.5 159.5l29 184.5l28.5 189.5l26 175.5c8 54 14.667 101.333 20 142s9 70.334 11 89.001h119l477 -854l489 854h97l120 -835c6 -38 11.833 -70.333 17.5 -97
s11.167 -49.167 16.5 -67.5s10.666 -33.166 15.999 -44.499s10 -20.333 14 -27v-4h-246v4c2 5.33301 4.5 14.333 7.5 27s4.5 27.667 4.5 45c0 11.333 -0.833008 27.666 -2.5 48.999s-4.16699 42.333 -7.5 63l-86 613l-455 -799l-71 10l-447 795
c-16.667 -112 -31.334 -215.667 -44.001 -311l-16 -122c-5.33301 -40.667 -10 -78.834 -14 -114.501s-7.33301 -67.167 -10 -94.5s-4 -47.666 -4 -60.999c0 -16.667 0.333008 -31.167 1 -43.5s1.66699 -23.166 3 -32.499c1.33301 -10.667 2.66602 -20 3.99902 -28h-172v4z
" />
    <glyph glyph-name="n" unicode="n" horiz-adv-x="1247" 
d="M1092 -14l-38.998 0.000976562l-795 782v-356c0 -60 0.333008 -112.333 1 -157s1.83398 -83.167 3.50098 -115.5s4 -59.5 7 -81.5s6.83301 -40 11.5 -54v-4h-150v4c4.66699 14 8.66699 32 12 54s6 49.167 8 81.5s3.33301 70.833 4 115.5s1 97 1 157v252
c0 60 -0.333008 112.167 -1 156.5s-2 82.666 -4 114.999s-4.66699 59.5 -8 81.5s-7.33301 40 -12 54v4h62l796 -786v375c0 60 -0.333008 112.167 -1 156.5s-1.83398 82.666 -3.50098 114.999s-3.83398 59.5 -6.50098 81.5s-6.33398 40 -11.001 54v4h149v-4
c-4.66699 -14 -8.5 -32 -11.5 -54s-5.5 -49.167 -7.5 -81.5s-3.33301 -70.666 -4 -114.999s-1 -96.5 -1 -156.5v-678z" />
    <glyph glyph-name="o" unicode="o" horiz-adv-x="1292" 
d="M74 541c0 78.667 14.8311 151.666 44.498 218.999s70.167 125.833 121.5 175.5s112 88.5 182 116.5s145 42 225 42c78.667 0 152.834 -13.167 222.501 -39.5s130.334 -63.833 182.001 -112.5s92.5 -107.667 122.5 -177s45 -147 45 -233
c0 -71.333 -12.667 -140.166 -38 -206.499s-62.333 -125 -111 -176s-108.667 -91.667 -180 -122s-153 -45.5 -245 -45.5c-78 0 -151.667 13 -221 39s-130 63.167 -182 111.5s-93 107 -123 176s-45 146.5 -45 232.5zM669.998 52.999c50.667 0 97.335 10 140.002 30
s79.5 48.667 110.5 86s55 82.833 72 136.5s25.5 114.167 25.5 181.5c0 76.667 -8.16699 147.667 -24.5 213s-41 121.833 -74 169.5s-74.167 85 -123.5 112s-107 40.5 -173 40.5c-50.667 0 -97.334 -9.66699 -140.001 -29s-79.5 -47.333 -110.5 -84
s-55.167 -81.667 -72.5 -135s-26 -114 -26 -182c0 -76 8.5 -146.833 25.5 -212.5s42 -122.667 75 -171s74.167 -86.333 123.5 -114s106.666 -41.5 171.999 -41.5z" />
    <glyph glyph-name="p" unicode="p" horiz-adv-x="903" 
d="M334 487c13.333 -2 26.498 -3.83008 39.498 -5.49707s25.833 -2.5 38.5 -2.5c38 0 72.833 5.83301 104.5 17.5s58.667 29.167 81 52.5s39.666 53 51.999 89s18.5 78 18.5 126c0 38.667 -4.33301 73.667 -13 105s-21.5 58.166 -38.5 80.499s-38.167 39.666 -63.5 51.999
s-54.666 18.5 -87.999 18.5c-21.333 0 -40.166 -0.833008 -56.499 -2.5s-30.166 -3.5 -41.499 -5.5c-12.667 -2.66699 -23.667 -5.33398 -33 -8.00098v-517zM333.998 418.003c0 -60 0.668945 -112.666 2.00195 -157.999s3.16602 -84.5 5.49902 -117.5
s5.16602 -60.833 8.49902 -83.5s7.33301 -41 12 -55v-4h-231v4c4.66699 14 8.83398 32 12.501 54s6.66699 49.167 9 81.5s4.16602 70.833 5.49902 115.5s2 97 2 157v252c0 60 -0.666992 112.167 -2 156.5s-3.16602 82.666 -5.49902 114.999s-5.33301 59.5 -9 81.5
s-7.83398 40 -12.501 54v4l44 -2c12.667 -0.666992 26.167 -1.16699 40.5 -1.5s27.833 -0.5 40.5 -0.5c21.333 0 52.833 2 94.5 6s90.834 6 147.501 6c52 0 100.333 -6.83301 145 -20.5s83.167 -33.834 115.5 -60.501s57.666 -59.167 75.999 -97.5s27.5 -82.5 27.5 -132.5
c0 -58.667 -11.333 -110.5 -34 -155.5s-53.5 -82.667 -92.5 -113s-84.833 -53.166 -137.5 -68.499s-108.667 -23 -168 -23c-31.333 0 -63.333 2 -96 6z" />
    <glyph glyph-name="q" unicode="q" horiz-adv-x="1292" 
d="M74 541c0 78.667 14.8301 151.66 44.4971 218.993s70.167 125.833 121.5 175.5s112 88.5 182 116.5s145 42 225 42c78.667 0 152.834 -13.167 222.501 -39.5s130.334 -63.833 182.001 -112.5s92.5 -107.667 122.5 -177s45 -147 45 -233
c0 -55.333 -7.5 -109.166 -22.5 -161.499s-37.333 -101 -67 -146s-66 -85.167 -109 -120.5s-92.5 -63.333 -148.5 -84c26.667 -49.333 56.334 -98.666 89.001 -147.999s72.834 -95.166 120.501 -137.499s105 -79.666 172 -111.999s148.167 -56.166 243.5 -71.499
c-0.666992 -2 -1.33398 -4.33301 -2.00098 -7c-1.33301 -4 -3.33301 -9 -6 -15c-70.667 2 -136.834 10.5 -198.501 25.5s-119.167 34.167 -172.5 57.5s-102.666 50 -147.999 80s-86.833 61.333 -124.5 94s-71.667 65.834 -102 99.501s-57.5 65.834 -81.5 96.501h-17
c-78 0 -151.667 13 -221 39s-130 63.167 -182 111.5s-93 107 -123 176s-45 146.5 -45 232.5zM669.997 52.9932c50.667 0 97.335 10 140.002 30s79.5 48.667 110.5 86s55 82.833 72 136.5s25.5 114.167 25.5 181.5c0 76.667 -8.16699 147.667 -24.5 213
s-41 121.833 -74 169.5s-74.167 85 -123.5 112s-107 40.5 -173 40.5c-50.667 0 -97.334 -9.66699 -140.001 -29s-79.5 -47.333 -110.5 -84s-55.167 -81.667 -72.5 -135s-26 -114 -26 -182c0 -76 8.5 -146.833 25.5 -212.5s42 -122.667 75 -171s74.167 -86.333 123.5 -114
s106.666 -41.5 171.999 -41.5z" />
    <glyph glyph-name="r" unicode="r" horiz-adv-x="1022" 
d="M334 522c13.333 -2 26.8301 -3.49902 40.4971 -4.49902s26.834 -1.5 39.501 -1.5c83.333 0 146.5 22.333 189.5 67s64.5 111.667 64.5 201c0 73.333 -17.167 131.333 -51.5 174s-84.833 64 -151.5 64c-21.333 0 -40.166 -0.833008 -56.499 -2.5
s-30.166 -3.5 -41.499 -5.5c-12.667 -2.66699 -23.667 -5.33398 -33 -8.00098v-484zM486.997 457.001c-13.333 -2 -26.498 -3.16504 -39.498 -3.49805s-26.167 -0.5 -39.5 -0.5c-10.667 0 -22.334 0.333008 -35.001 1s-25.667 1.66699 -39 3v-49
c0 -59.333 0.666992 -111.166 2 -155.499s3.16602 -82.5 5.49902 -114.5s5.16602 -58.833 8.49902 -80.5s7.33301 -39.5 12 -53.5v-4h-231v4c4.66699 14 8.83398 32 12.501 54s6.66699 49.167 9 81.5s4.16602 70.833 5.49902 115.5s2 97 2 157v252
c0 60 -0.666992 112.167 -2 156.5s-3.16602 82.666 -5.49902 114.999s-5.33301 59.5 -9 81.5s-7.83398 40 -12.501 54v4c10.667 -0.666992 22 -1.33398 34 -2.00098c10 -0.666992 21.167 -1.16699 33.5 -1.5s24.833 -0.5 37.5 -0.5c21.333 0 53 2 95 6s91.333 6 148 6
c57.333 0 109.5 -7 156.5 -21s87.333 -34 121 -60s59.667 -57.667 78 -95s27.5 -79 27.5 -125c0 -36 -5 -68.833 -15 -98.5s-24 -56.334 -42 -80.001s-39.333 -44.5 -64 -62.5s-52 -33.667 -82 -47l209 -295c18 -24 36.167 -47 54.5 -69s35.833 -41.667 52.5 -59
s32.334 -31.833 47.001 -43.5s27 -19.5 37 -23.5v-4h-262c0 6 -4.16699 16.5 -12.5 31.5s-18 30.667 -29 47l-33 47.5l-24.5 34z" />
    <glyph glyph-name="s" unicode="s" horiz-adv-x="762" 
d="M618 866l-20 -0.00292969c-4 11.333 -10.5 25.666 -19.5 42.999s-21 34.333 -36 51s-33.5 30.834 -55.5 42.501s-48.333 17.5 -79 17.5c-23.333 0 -44.166 -3.83301 -62.499 -11.5s-33.833 -18.167 -46.5 -31.5s-22.334 -29.166 -29.001 -47.499s-10 -38.166 -10 -59.499
c0 -34.667 10.5 -67.667 31.5 -99s47.167 -62.5 78.5 -93.5s65.333 -62.167 102 -93.5s70.667 -64 102 -98s57.5 -70 78.5 -108s31.5 -78.667 31.5 -122c0 -32 -5.83301 -65 -17.5 -99s-30.5 -64.667 -56.5 -92s-59.333 -49.833 -100 -67.5s-90 -26.5 -148 -26.5
c-32 0 -62.5 2.66699 -91.5 8s-55.667 11.833 -80 19.5s-46 16 -65 25s-34.833 17.5 -47.5 25.5l18 189h21c6.66699 -23.333 16.5 -46.666 29.5 -69.999s29 -44.5 48 -63.5s41.333 -34.333 67 -46s55.167 -17.5 88.5 -17.5c23.333 0 45.333 3.83301 66 11.5
s38.5 18.5 53.5 32.5s26.833 31.167 35.5 51.5s13 43.166 13 68.499c0 30 -6 57.833 -18 83.5s-28 50.334 -48 74.001s-42.5 46.5 -67.5 68.5l-77.5 67c-26.667 22.667 -52.5 45.834 -77.5 69.501s-47.5 49.167 -67.5 76.5s-36 56.5 -48 87.5s-18 65.167 -18 102.5
c0 39.333 8.33301 74.666 25 105.999s38.667 57.833 66 79.5s58.666 38.334 93.999 50.001s72 17.5 110 17.5c28 0 54.167 -2 78.5 -6s46.333 -8.83301 66 -14.5s36.834 -11.334 51.501 -17.001l36 -13.5z" />
    <glyph glyph-name="t" unicode="t" horiz-adv-x="985" 
d="M406 1001c-60.667 0 -115.834 -2.66699 -165.501 -8s-92.5 -11 -128.5 -17c-41.333 -7.33301 -78.666 -15.333 -111.999 -24l20 129c10 -1.33301 26.333 -2.33301 49 -3s46.5 -1.16699 71.5 -1.5s48.667 -0.666016 71 -0.999023s37.833 -0.5 46.5 -0.5h473
c8 0 22.833 0.166992 44.5 0.5s44.834 0.666016 69.501 0.999023s48.334 0.833008 71.001 1.5s39 1.66699 49 3l20 -129c-32 8.66699 -68.667 16.667 -110 24c-35.333 6 -77.833 11.667 -127.5 17s-105.5 8 -167.5 8v-589c0 -60 0.666992 -112.333 2 -157
s3.16602 -83.167 5.49902 -115.5s5.16602 -59.5 8.49902 -81.5s7.33301 -40 12 -54v-4h-231v4c4.66699 14 8.66699 32 12 54s6.33301 49.167 9 81.5s4.66699 70.833 6 115.5s2 97 2 157v589z" />
    <glyph glyph-name="u" unicode="u" horiz-adv-x="1208" 
d="M954 668c0 59.333 -0.336914 111.001 -1.00391 155.001s-2 82 -4 114s-4.33301 58.833 -7 80.5s-6 39.5 -10 53.5v4h147v-4c-4 -14 -7.33301 -32 -10 -54s-5 -49.167 -7 -81.5s-3.33301 -70.666 -4 -114.999s-1 -96.5 -1 -156.5v-287c0 -72 -11.167 -133.333 -33.5 -184
s-53.166 -92.167 -92.499 -124.5s-86.166 -56 -140.499 -71s-113.833 -22.5 -178.5 -22.5c-65.333 0 -126 7.16699 -182 21.5s-104.5 37.166 -145.5 68.499s-73.333 72 -97 122s-35.5 110.667 -35.5 182v295c0 60 -0.666992 112.167 -2 156.5s-3.33301 82.666 -6 114.999
s-5.66699 59.5 -9 81.5s-7.33301 40 -12 54v4h231v-4c-4.66699 -14 -8.66699 -31.833 -12 -53.5s-6.16602 -48.5 -8.49902 -80.5s-4.16602 -70 -5.49902 -114s-2 -95.667 -2 -155v-299c0 -59.333 9 -108.166 27 -146.499s41.667 -68.833 71 -91.5s62.666 -38.5 99.999 -47.5
s75.666 -13.5 114.999 -13.5c40 0 78.833 4.5 116.5 13.5s71.334 24.833 101.001 47.5s53.334 53.167 71.001 91.5s26.5 87.166 26.5 146.499v299z" />
    <glyph glyph-name="v" unicode="v" 
d="M242 1075l0.000976562 -4.00195c-1.33301 -3.33301 -2.33301 -8.66602 -3 -15.999s-1 -13.666 -1 -18.999c0 -21.333 3.16699 -45.166 9.5 -71.499s18.166 -59.166 35.499 -98.499l266 -602l268 594c6 12.667 12 26.167 18 40.5s11.667 29.166 17 44.499
s9.66602 30.833 12.999 46.5s5 31.167 5 46.5c0 8.66699 -0.666992 16.167 -2 22.5s-2.66602 10.5 -3.99902 12.5v4h189v-4c-12.667 -13.333 -29 -36.833 -49 -70.5s-40.667 -76.5 -62 -128.5l-399 -886h-64l-368 835c-13.333 30.667 -27.5 60.167 -42.5 88.5
s-29 53.666 -42 75.999s-24.5 41 -34.5 56s-17 24.833 -21 29.5v4h271z" />
    <glyph glyph-name="w" unicode="w" horiz-adv-x="1583" 
d="M856 979l278.999 -709.005l235 588c6 12.667 12 26.834 18 42.501s11.5 31.667 16.5 48s9 32 12 47s4.5 28.5 4.5 40.5c0 8.66699 -0.666992 16.167 -2 22.5s-2.66602 10.5 -3.99902 12.5v4h187v-4c-13.333 -13.333 -29 -35.166 -47 -65.499s-39.333 -74.833 -64 -133.5
l-373 -886h-55l-270 661l-275 -661h-57l-344 835c-12.667 30.667 -26.167 60.167 -40.5 88.5s-28 53.666 -41 75.999s-24.333 41 -34 56s-16.167 24.833 -19.5 29.5v4h274v-4c-1.33301 -3.33301 -2.33301 -8.66602 -3 -15.999s-1 -13.666 -1 -18.999
c0 -21.333 3.33301 -45.166 10 -71.499s17.667 -59.166 33 -98.499l240 -600l282 713h39z" />
    <glyph glyph-name="x" unicode="x" horiz-adv-x="1116" 
d="M520 459l-258.002 -326.001c-9.33301 -11.333 -18.5 -23.333 -27.5 -36s-17.167 -25 -24.5 -37s-13.166 -23.167 -17.499 -33.5s-6.5 -19.166 -6.5 -26.499h-170v4l47 44.5c20 19 41.333 43.167 64 72.5l332 420l-326 438c-18.667 23.333 -36.667 43.5 -54 60.5
s-30 27.5 -38 31.5v4h285c0 -12 4.16699 -30.833 12.5 -56.5s25.166 -55.834 50.499 -90.501l184 -252l211 266c8.66699 11.333 17.334 23.333 26.001 36s16.334 25 23.001 37s12.167 23.167 16.5 33.5s6.5 19.166 6.5 26.499h168v-4c-10 -7.33301 -22.333 -18.333 -37 -33
s-33.667 -37 -57 -67l-293 -373l352 -477c23.333 -32 45.333 -58.167 66 -78.5s35.667 -33.166 45 -38.499v-4h-283c0 12.667 -4.5 31.834 -13.5 57.501s-26.167 55.5 -51.5 89.5z" />
    <glyph glyph-name="y" unicode="y" horiz-adv-x="1012" 
d="M602 412c0 -60 0.666016 -112.334 1.99902 -157.001s3.16602 -83.167 5.49902 -115.5s5.33301 -59.5 9 -81.5s7.83398 -40 12.501 -54v-4h-232v4c4.66699 14 8.83398 32 12.501 54s6.66699 49.167 9 81.5s4.16602 70.833 5.49902 115.5s2 97 2 157v69l-360 475
c-24 32 -47 57.833 -69 77.5s-38.667 32.167 -50 37.5v4h284c0 -12 4.33301 -30.5 13 -55.5s26.334 -55.5 53.001 -91.5l254 -336l260 350c18.667 25.333 32.834 50.333 42.501 75s14.5 44 14.5 58h183v-4c-16.667 -11.333 -33.834 -25.666 -51.501 -42.999
s-38.167 -42 -61.5 -74l-338 -458v-84z" />
    <glyph glyph-name="z" unicode="z" horiz-adv-x="995" 
d="M264 76h316c54.667 0 105 3 151 9s86 12.667 120 20c39.333 8.66699 75 18.667 107 30l-47 -143c-8.66699 0.666992 -23.167 1.5 -43.5 2.5s-42 2 -65 3s-44.5 1.66699 -64.5 2s-34 0.5 -42 0.5h-680v27l693 972h-242c-58 0 -111 -3.16699 -159 -9.5
s-90 -13.166 -126 -20.499c-41.333 -8.66699 -79.333 -18.334 -114 -29.001l67 143c8.66699 -1.33301 23.5 -2.33301 44.5 -3s43 -1.5 66 -2.5s44.333 -1.66699 64 -2s33.167 -0.5 40.5 -0.5h611v-18z" />
    <glyph glyph-name="braceleft" unicode="{" horiz-adv-x="637" 
d="M250 418c0 24.667 -2.83301 47.4971 -8.5 68.4971s-15.167 39.5 -28.5 55.5s-30.833 29 -52.5 39s-48.5 16.333 -80.5 19v41c32 2.66699 58.833 9 80.5 19s39.167 23 52.5 39s22.833 34.5 28.5 55.5s8.5 43.833 8.5 68.5c0 24 -2.16699 52.5 -6.5 85.5l-14 104
c-5 36.333 -9.66699 72.833 -14 109.5s-6.5 70.334 -6.5 101.001c0 52 8.33301 95.5 25 130.5s39.5 63 68.5 84s63.5 35.833 103.5 44.5s83 13 129 13l14 -37c-22 0 -45.333 -1 -70 -3s-47.167 -9.33301 -67.5 -22s-37.333 -32.667 -51 -60s-20.5 -66 -20.5 -116
c0 -27.333 1.83301 -57.833 5.5 -91.5l12 -105c4.33301 -36.333 8.33301 -73 12 -110s5.5 -72.5 5.5 -106.5c0 -36.667 -5.16699 -67.667 -15.5 -93s-24.5 -46.5 -42.5 -63.5s-38.833 -30.667 -62.5 -41s-48.5 -18.833 -74.5 -25.5c26 -6.66699 50.833 -15.334 74.5 -26.001
s44.5 -24.667 62.5 -42s32.167 -38.666 42.5 -63.999s15.5 -56 15.5 -92c0 -34 -1.83301 -69.5 -5.5 -106.5s-7.66699 -73.667 -12 -110l-12 -105c-3.66699 -33.667 -5.5 -64.167 -5.5 -91.5c0 -50 6.83301 -88.667 20.5 -116s30.667 -47.333 51 -60s42.833 -20 67.5 -22
s48 -3 70 -3l-14 -37c-46 0 -89 4.33301 -129 13s-74.5 23.5 -103.5 44.5s-51.833 49 -68.5 84s-25 78.5 -25 130.5c0 30.667 2.16699 64.334 6.5 101.001s9 73.334 14 110.001l14 104.5c4.33301 33 6.5 61.167 6.5 84.5z" />
    <glyph glyph-name="bar" unicode="|" 
d="M459 1565h106v-2048h-106v2048z" />
    <glyph glyph-name="braceright" unicode="}" horiz-adv-x="637" 
d="M387 823c0 -24.667 2.83301 -47.4961 8.5 -68.4961s15.167 -39.5 28.5 -55.5s30.833 -29 52.5 -39s48.5 -16.333 80.5 -19v-41c-32 -2.66699 -58.833 -9 -80.5 -19s-39.167 -23 -52.5 -39s-22.833 -34.5 -28.5 -55.5s-8.5 -43.833 -8.5 -68.5
c0 -23.333 2.16699 -51.5 6.5 -84.5l14 -104.5c5 -36.667 9.66699 -73.334 14 -110.001s6.5 -70.334 6.5 -101.001c0 -52 -8.33301 -95.5 -25 -130.5s-39.5 -63 -68.5 -84s-63.5 -35.833 -103.5 -44.5s-83 -13 -129 -13l-14 37c22 0 45.333 1 70 3s47.167 9.33301 67.5 22
s37.333 32.667 51 60s20.5 66 20.5 116c0 27.333 -1.83301 57.833 -5.5 91.5l-12 105c-4.33301 36.333 -8.33301 73 -12 110s-5.5 72.5 -5.5 106.5c0 36.667 5.16699 67.667 15.5 93s24.5 46.5 42.5 63.5s38.833 30.833 62.5 41.5s48.5 19.334 74.5 26.001
c-26 6.66699 -50.833 15.167 -74.5 25.5s-44.5 24.166 -62.5 41.499s-32.167 38.666 -42.5 63.999s-15.5 56 -15.5 92c0 34 1.83301 69.5 5.5 106.5s7.66699 73.667 12 110l12 105c3.66699 33.667 5.5 64.167 5.5 91.5c0 50 -6.83301 88.667 -20.5 116
s-30.667 47.333 -51 60s-42.833 20 -67.5 22s-48 3 -70 3l14 37c46 0 89 -4.33301 129 -13s74.5 -23.5 103.5 -44.5s51.833 -49 68.5 -84s25 -78.5 25 -130.5c0 -30.667 -2.16699 -64.334 -6.5 -101.001s-9 -73.167 -14 -109.5l-14 -104c-4.33301 -33 -6.5 -61.5 -6.5 -85.5
z" />
    <glyph glyph-name="asciitilde" unicode="~" horiz-adv-x="1331" 
d="M915 690c27.333 0 51.333 3.66699 72 11s39 17 55 29s29.667 25.333 41 40s21 29 29 43l72 -49c-30 -58 -68.167 -101.167 -114.5 -129.5s-99.833 -42.5 -160.5 -42.5c-36.667 0 -76.667 6.33301 -120 19s-87 26.834 -131 42.501s-86.833 29.834 -128.5 42.501
s-79.5 19 -113.5 19c-27.333 0 -51.333 -3.66699 -72 -11s-39 -17 -55 -29s-29.667 -25.333 -41 -40s-21 -29 -29 -43l-72 49c30 58 68.167 101.167 114.5 129.5s99.833 42.5 160.5 42.5c36.667 0 76.667 -6.33301 120 -19s87 -26.834 131 -42.501
s86.833 -29.834 128.5 -42.501s79.5 -19 113.5 -19z" />
    <glyph glyph-name="nonbreakingspace" unicode="&#xa0;" horiz-adv-x="614" 
 />
    <glyph glyph-name="exclamdown" unicode="&#xa1;" horiz-adv-x="502" 
d="M356 1346c0 -15.333 -2.83301 -29.5 -8.5 -42.5s-13.167 -24.167 -22.5 -33.5s-20.5 -16.833 -33.5 -22.5s-26.833 -8.5 -41.5 -8.5c-15.333 0 -29.666 2.83301 -42.999 8.5s-24.833 13.167 -34.5 22.5s-17.334 20.5 -23.001 33.5s-8.5 27.167 -8.5 42.5
c0 30.667 10.333 56.334 31 77.001s46.667 31 78 31c14.667 0 28.5 -2.83301 41.5 -8.5s24.167 -13.334 33.5 -23.001s16.833 -21 22.5 -34s8.5 -27.167 8.5 -42.5zM268 1106l32.499 -390l23.5 -283l16.5 -194.5c4.33301 -51 8.16602 -92.333 11.499 -124
s6.33301 -55.667 9 -72s5.33398 -29.166 8.00098 -38.499v-4h-238v4c2.66699 9.33301 5.33398 22.166 8.00098 38.499s5.5 40.333 8.5 72l11.5 124c4.66699 51 10.167 115.833 16.5 194.5l23 283l32.5 390h37z" />
    <glyph glyph-name="cent" unicode="&#xa2;" horiz-adv-x="973" 
d="M532 102c-65.333 4 -125.498 17.502 -180.498 40.502s-102.5 54.5 -142.5 94.5s-71.167 88.167 -93.5 144.5s-33.5 120.166 -33.5 191.499c0 62.667 11.167 121.334 33.5 176.001s53.5 102.667 93.5 144s87.5 74.833 142.5 100.5s115.167 41.167 180.5 46.5v226h62v-224
c32 -1.33301 65.333 -5 100 -11s66 -13.667 94 -23l72 -170l-12 -7c-13.333 19.333 -29.333 37.333 -48 54s-39.167 31 -61.5 43s-45.833 21.5 -70.5 28.5s-49.334 11.167 -74.001 12.5v-793h24c26.667 0 53 3.83301 79 11.5s50.5 18.667 73.5 33s44.167 31.5 63.5 51.5
s35.666 42.667 48.999 68l12 -6l-74 -178c-15.333 -8 -32.333 -15.167 -51 -21.5s-38 -11.833 -58 -16.5s-40 -8.33398 -60 -11.001s-39.333 -4.33398 -58 -5.00098v-243h-62v243zM274.002 616.002c0 -54 5.33398 -104.998 16.001 -152.998s26.834 -90.833 48.501 -128.5
s48.5 -69.5 80.5 -95.5s69.667 -44.333 113 -55v781c-38.667 -5.33301 -73.834 -17 -105.501 -35s-58.834 -41.833 -81.501 -71.5s-40.167 -64.834 -52.5 -105.501s-18.5 -86.334 -18.5 -137.001z" />
    <glyph glyph-name="sterling" unicode="&#xa3;" horiz-adv-x="1130" 
d="M172 610c22.667 -1.33301 53.499 -2.33496 92.499 -3.00195s79.167 -1 120.5 -1c-8.66699 38 -20.667 74.667 -36 110l-45 108.5c-14.667 37 -27.334 76 -38.001 117s-16 86.167 -16 135.5c0 46.667 6.16699 88.334 18.5 125.001s28.833 69.167 49.5 97.5
s44.334 52.5 71.001 72.5s54.334 36.333 83.001 49s57.334 22 86.001 28s55 9 79 9c37.333 0 70.5 -1.66699 99.5 -5s55.833 -8.16602 80.5 -14.499s47.834 -14 69.501 -23l67.5 -29.5l47 -202l-14 -6c-5.33301 12 -15 28.333 -29 49s-32.833 41 -56.5 61
s-52.834 37.333 -87.501 52s-75.334 22 -122.001 22c-30 0 -59.333 -4.83301 -88 -14.5s-54 -25.5 -76 -47.5s-39.667 -50.667 -53 -86s-20 -78.333 -20 -129c0 -40.667 3.66699 -80 11 -118s15.333 -76.333 24 -115s16.667 -78.167 24 -118.5s11.333 -82.833 12 -127.5
c72.667 1.33301 133.667 3.66602 183 6.99902s81.333 6.66602 96 9.99902l-19 -103c-22.667 0.666992 -47.667 1.66699 -75 3c-23.333 1.33301 -51.166 2.33301 -83.499 3s-68.166 1.33398 -107.499 2.00098c-7.33301 -49.333 -23.333 -103 -48 -161s-62 -123 -112 -195h447
c21.333 0 42.166 0.5 62.499 1.5s39 2.66699 56 5s31.667 5.5 44 9.5s21.5 9 27.5 15h4v-203h-878v20c52.667 48.667 96.667 95 132 139s63.5 85.833 84.5 125.5s35.833 77.667 44.5 114s13 71.5 13 105.5c0 4 -0.333008 8 -1 12s-1 8 -1 12
c-21.333 0 -43 -0.166992 -65 -0.5s-42.833 -0.666016 -62.5 -0.999023s-37.834 -1 -54.501 -2l-41 -2.5v88z" />
    <glyph glyph-name="currency" unicode="&#xa4;" horiz-adv-x="1241" 
d="M623 1208c-43.333 0 -84.5 -8.49902 -123.5 -25.499s-73.167 -40.167 -102.5 -69.5s-52.666 -63.5 -69.999 -102.5s-26 -80.167 -26 -123.5c0 -45.333 8.33301 -87.666 25 -126.999s39.5 -73.5 68.5 -102.5s63.167 -52 102.5 -69s81.333 -25.5 126 -25.5
c44 0 85.5 8.66699 124.5 26s73 40.833 102 70.5s52 64.167 69 103.5s25.5 80.666 25.5 123.999c0 42.667 -8.33301 83.5 -25 122.5s-39.334 73.167 -68.001 102.5s-62.667 52.666 -102 69.999s-81.333 26 -126 26zM158 1407l204.001 -205.001c42 31.333 84 54.5 126 69.5
s86.333 22.5 133 22.5c93.333 0 180.666 -30.667 261.999 -92l202 205l60 -61l-203 -203c58.667 -77.333 88 -163.333 88 -258c0 -97.333 -29.333 -183.333 -88 -258l203 -203l-60 -62l-202 205c-76.667 -60 -164 -90 -262 -90c-50 0 -95.833 7.33301 -137.5 22
s-82.167 37.334 -121.5 68.001l-204 -205l-60 62l205 203c-60 79.333 -90 165.333 -90 258s30 178.667 90 258l-205 203z" />
    <glyph glyph-name="yen" unicode="&#xa5;" horiz-adv-x="1292" 
d="M184 772c37.333 -1.33301 83.1641 -2.33887 137.497 -3.00586s113.833 -1 178.5 -1h2l-344 508c-14 20.667 -28 39.667 -42 57s-27.167 32.5 -39.5 45.5s-23.333 23.833 -33 32.5s-17.5 15 -23.5 19v4h304c0 -15.333 5.5 -40.5 16.5 -75.5s31.833 -76.167 62.5 -123.5
l287 -438l281 458l30.5 51c10.333 17.333 19.666 34 27.999 50s15 30.667 20 44s7.5 24.666 7.5 33.999h194v-4c-13.333 -12.667 -31 -31.5 -53 -56.5s-46.667 -58.167 -74 -99.5l-329 -506c44.667 0.666992 86.334 1.33398 125.001 2.00098s73.167 1.5 103.5 2.5
s55.833 2.16699 76.5 3.5s35.667 2.66602 45 3.99902l-29 -84c-30 0.666992 -63.667 1.33398 -101 2.00098c-32 0.666992 -70.167 1.33398 -114.5 2.00098s-93.166 1.33398 -146.499 2.00098l-6 -8v-151c50.667 0.666992 97.834 1.33398 141.501 2.00098
s82.834 1.5 117.501 2.5s63.834 2.16699 87.501 3.5s40.5 2.66602 50.5 3.99902l-29 -84c-30.667 0.666992 -65 1.33398 -103 2.00098c-32.667 0.666992 -71.5 1.33398 -116.5 2.00098s-94.5 1.33398 -148.5 2.00098v-86c0 -56.667 0.666992 -106.167 2 -148.5
s3.33301 -78.833 6 -109.5s5.66699 -56.334 9 -77.001s7 -38 11 -52v-4h-239v4c4 14 7.66699 31.333 11 52s6.33301 46.334 9 77.001s4.66699 67.167 6 109.5s2 91.833 2 148.5v88h-24c-36 0 -71.833 -0.166992 -107.5 -0.5s-69.5 -0.666016 -101.5 -0.999023
s-61.333 -1 -88 -2l-68 -2.5l8 74c37.333 -1.33301 83.166 -2.33301 137.499 -3s113.833 -1 178.5 -1h65v133l-20 29h-4c-36 0 -71.833 -0.166992 -107.5 -0.5s-69.5 -0.833008 -101.5 -1.5s-61.333 -1.5 -88 -2.5l-68 -2.5z" />
    <glyph glyph-name="brokenbar" unicode="&#xa6;" 
d="M459 408h106v-758h-106v758zM459 1432h106v-758h-106v758z" />
    <glyph glyph-name="section" unicode="&#xa7;" 
d="M811 498c0 -42 -8.83496 -83.4951 -26.502 -124.495s-45.167 -76.167 -82.5 -105.5c23.333 -30.667 41.833 -63.167 55.5 -97.5s20.5 -71.5 20.5 -111.5c0 -34.667 -5.16699 -69.334 -15.5 -104.001s-27 -65.667 -50 -93s-53.333 -49.666 -91 -66.999
s-83.834 -26 -138.501 -26c-28.667 0 -56.334 2.66699 -83.001 8s-51.667 12.333 -75 21s-44.166 18 -62.499 28s-33.5 19.667 -45.5 29l6 215h25c8.66699 -30 19.834 -59.167 33.501 -87.5s30.5 -53.5 50.5 -75.5s43.667 -39.667 71 -53s59 -20 95 -20
c29.333 0 55 4.83301 77 14.5s40.333 23 55 40s25.667 37 33 60s11 47.833 11 74.5c0 36.667 -6.66699 70.167 -20 100.5s-30.666 58.833 -51.999 85.5s-45.833 52.167 -73.5 76.5l-85 73.5c-29 24.667 -57.333 50.167 -85 76.5s-52.167 54.666 -73.5 84.999
s-38.666 63.666 -51.999 99.999s-20 76.5 -20 120.5c0 50 9.33301 92.833 28 128.5s44 65.167 76 88.5c-21.333 31.333 -38.5 64.833 -51.5 100.5s-19.5 76.167 -19.5 121.5c0 46 8.5 86.333 25.5 121s39.667 63.667 68 87s60.5 40.833 96.5 52.5s73 17.5 111 17.5
c41.333 0 77.5 -4.33301 108.5 -13s56.167 -17.334 75.5 -26.001v-182h-22c-6 14 -14.333 30 -25 48s-24.167 35 -40.5 51s-35.666 29.5 -57.999 40.5s-48.166 16.5 -77.499 16.5c-28 0 -52.833 -4.83301 -74.5 -14.5s-39.834 -22.834 -54.501 -39.501
s-25.834 -36 -33.501 -58s-11.5 -45 -11.5 -69c0 -32 6.83301 -62.5 20.5 -91.5s31.667 -57.167 54 -84.5s47.833 -54 76.5 -80l87.5 -79l87.5 -82c28.667 -28 54.167 -57.333 76.5 -88s40.333 -63.334 54 -98.001s20.5 -71.667 20.5 -111zM706.998 461.005
c0 34 -5.83301 65.3311 -17.5 93.998s-27.167 55.834 -46.5 81.501s-41.666 50 -66.999 73l-78 69.5l-80 70.5c-26.667 23.667 -51.334 49.167 -74.001 76.5c-16.667 -19.333 -28 -42.5 -34 -69.5s-9 -54.5 -9 -82.5c0 -30 5.83301 -58.333 17.5 -85
s27.167 -52.667 46.5 -78s41.5 -50.166 66.5 -74.499l78.5 -73l81.5 -74.5c27 -25.333 52.5 -51.333 76.5 -78c14 20.667 24 44.5 30 71.5s9 53.167 9 78.5z" />
    <glyph glyph-name="dieresis" unicode="&#xa8;" 
d="M236 1313c0 12.667 2.33301 24.667 7 36s11.167 21.166 19.5 29.499s18 14.833 29 19.5s23.167 7 36.5 7c12.667 0 24.667 -2.33301 36 -7s21.166 -11.167 29.499 -19.5s14.833 -18.166 19.5 -29.499s7 -23.333 7 -36s-2.33301 -24.667 -7 -36
s-11.167 -21.166 -19.5 -29.499s-18.166 -14.833 -29.499 -19.5s-23.333 -7 -36 -7c-13.333 0 -25.5 2.33301 -36.5 7s-20.667 11.167 -29 19.5s-14.833 18.166 -19.5 29.499s-7 23.333 -7 36zM604 1313c0 12.667 2.33301 24.667 7 36s11.167 21.166 19.5 29.499
s18.166 14.833 29.499 19.5s23.333 7 36 7s24.667 -2.33301 36 -7s21.166 -11.167 29.499 -19.5s14.833 -18.166 19.5 -29.499s7 -23.333 7 -36s-2.33301 -24.667 -7 -36s-11.167 -21.166 -19.5 -29.499s-18.166 -14.833 -29.499 -19.5s-23.333 -7 -36 -7
s-24.667 2.33301 -36 7s-21.166 11.167 -29.499 19.5s-14.833 18.166 -19.5 29.499s-7 23.333 -7 36z" />
    <glyph glyph-name="copyright" unicode="&#xa9;" horiz-adv-x="1733" 
d="M164 680c0 64.667 8.33105 126.832 24.998 186.499s40.334 115.5 71.001 167.5s67.334 99.333 110.001 142s90 79.334 142 110.001s107.833 54.334 167.5 71.001s121.834 25 186.501 25s126.834 -8.33301 186.501 -25s115.5 -40.334 167.5 -71.001
s99.5 -67.334 142.5 -110.001s79.833 -90 110.5 -142s54.334 -107.833 71.001 -167.5s25 -121.834 25 -186.501c0 -96.667 -18.5 -187.667 -55.5 -273s-87.333 -159.833 -151 -223.5s-138.167 -114 -223.5 -151s-176.333 -55.5 -273 -55.5
c-64.667 0 -126.834 8.33301 -186.501 25s-115.5 40.334 -167.5 71.001s-99.333 67.5 -142 110.5s-79.334 90.5 -110.001 142.5s-54.334 107.833 -71.001 167.5s-25 121.834 -25 186.501zM1161 947.998l-10.0039 -6c-28.667 26.667 -62.167 49 -100.5 67
s-81.166 27 -128.499 27c-46 0 -88 -7.16699 -126 -21.5s-70.667 -35.333 -98 -63s-48.5 -61.5 -63.5 -101.5s-22.5 -85.667 -22.5 -137c0 -57.333 7.16699 -110.5 21.5 -159.5s35.833 -91.5 64.5 -127.5s64.334 -64.167 107.001 -84.5s92.334 -30.5 149.001 -30.5
c42 0 82.333 9.83301 121 29.5s71.667 46.167 99 79.5l12 -6l-47 -125c-28 -14.667 -60.167 -25.834 -96.5 -33.501s-72.5 -11.5 -108.5 -11.5c-71.333 0 -136.666 10.333 -195.999 31s-110.166 49.834 -152.499 87.501s-75.333 83 -99 136s-35.5 112.167 -35.5 177.5
c0 54.667 10.5 107.834 31.5 159.501s51.333 97.5 91 137.5s87.667 72.167 144 96.5s120.166 36.5 191.499 36.5c38 0 75 -3.83301 111 -11.5s70 -18.834 102 -33.501zM259.994 679.998c0 -83.333 15.833 -161.831 47.5 -235.498s75 -138 130 -193s119.333 -98.333 193 -130
s152.167 -47.5 235.5 -47.5c55.333 0 108.833 7.16699 160.5 21.5s100 34.666 145 60.999s86 58 123 95s68.667 78 95 123s46.833 93.167 61.5 144.5s22 105 22 161c0 55.333 -7.33301 108.833 -22 160.5s-35.167 100 -61.5 145s-58 86 -95 123s-78 68.667 -123 95
s-93.333 46.666 -145 60.999s-105.167 21.5 -160.5 21.5c-83.333 0 -161.833 -15.833 -235.5 -47.5s-138 -75 -193 -130s-98.333 -119.333 -130 -193s-47.5 -152.167 -47.5 -235.5z" />
    <glyph glyph-name="ordfeminine" unicode="&#xaa;" horiz-adv-x="760" 
d="M66 969c0 34.667 7.16406 64.498 21.4971 89.498s33.5 46.5 57.5 64.5s51.333 32.5 82 43.5s62.334 19.667 95.001 26s64.834 10.666 96.501 12.999s60.834 3.83301 87.501 4.5v21c0 58 -14.5 101.167 -43.5 129.5s-66.5 42.5 -112.5 42.5c-31.333 0 -65 -6 -101 -18
s-71.333 -34.667 -106 -68l-10 8l47 100c30 12.667 59 21.334 87 26.001s59 7 93 7c46 0 86.667 -5.5 122 -16.5s65 -26.167 89 -45.5s42 -41.833 54 -67.5s18 -53.5 18 -83.5v-213c0 -37.333 0.5 -69.833 1.5 -97.5s2.33301 -51.5 4 -71.5s3.66699 -36.667 6 -50
s4.83301 -24.333 7.5 -33v-4h-168v4c2 6.66699 3.83301 14.834 5.5 24.501s3.16699 20.834 4.5 33.501c-10 -8 -21.667 -16.5 -35 -25.5s-28.166 -17 -44.499 -24s-34.333 -12.833 -54 -17.5s-40.834 -7 -63.501 -7c-76.667 0 -136 18 -178 54s-63 86.333 -63 151z
M505.997 1153c-40.667 -0.666992 -78.499 -2.83301 -113.499 -6.5s-65.5 -11.5 -91.5 -23.5s-46.5 -29.667 -61.5 -53s-22.5 -55 -22.5 -95c0 -51.333 12.667 -88.833 38 -112.5s57.666 -35.5 96.999 -35.5c18.667 0 36.167 2.83301 52.5 8.5s31 13 44 22
s24.333 18.5 34 28.5s17.5 19.667 23.5 29v117v121z" />
    <glyph glyph-name="guillemotleft" unicode="&#xab;" horiz-adv-x="911" 
d="M82 537c5.33301 4 14.833 12.168 28.5 24.501l49 45.5l63.5 61.5l72 73l74 79c24.667 27 47.667 53.833 69 80.5l37 -27c-20 -28.667 -39.667 -58.334 -59 -89.001l-55 -91l-48 -86.5l-39 -75.5l39 -75l47.5 -86c17 -30 35.167 -60.333 54.5 -91s39.333 -60.667 60 -90
l-37 -26c-21.333 26 -44.333 52.667 -69 80l-74 79l-72 72.5l-63.5 61.5l-49 45.5l-28.5 25.5v9zM430 537.001c5.33301 4 14.833 12.168 28.5 24.501l49 45.5l63.5 61.5l72 73l74 79c24.667 27 47.667 53.833 69 80.5l37 -27c-20 -28.667 -39.5 -58.334 -58.5 -89.001
l-54.5 -91l-48 -86.5l-39 -75.5l39 -75l47.5 -86l54 -91c19 -30.667 38.833 -60.667 59.5 -90l-37 -26c-21.333 26 -44.333 52.667 -69 80l-74 79l-72 72.5l-63.5 61.5l-49 45.5l-28.5 25.5v9z" />
    <glyph glyph-name="logicalnot" unicode="&#xac;" horiz-adv-x="1331" 
d="M1065 303v451h-922v102h1024v-553h-102z" />
    <glyph glyph-name="uni00AD" unicode="&#xad;" horiz-adv-x="840" 
d="M82 457v143h676v-143h-676z" />
    <glyph glyph-name="registered" unicode="&#xae;" horiz-adv-x="1352" 
d="M678 1374c-61.333 0 -118.831 -11.9971 -172.498 -35.9971s-100.834 -56.5 -141.501 -97.5s-72.667 -88.833 -96 -143.5s-35 -112.334 -35 -173.001s11.5 -118 34.5 -172s54.333 -101.333 94 -142s86.5 -73 140.5 -97s112 -36 174 -36
c63.333 0 122.166 12.167 176.499 36.5s101.333 57.166 141 98.499s70.667 88.833 93 142.5s33.5 110.167 33.5 169.5c0 62.667 -12 121.5 -36 176.5s-56.333 102.667 -97 143s-87.667 72.166 -141 95.499s-109.333 35 -168 35zM678.002 1458
c71.333 0 138.999 -13.8359 202.999 -41.5029s120.333 -65.5 169 -113.5s87.167 -104.667 115.5 -170s42.5 -135.666 42.5 -210.999c0 -68 -13.5 -134 -40.5 -198s-64.5 -120.667 -112.5 -170s-104.667 -88.833 -170 -118.5s-136.333 -44.5 -213 -44.5
c-70.667 0 -138 14 -202 42s-120.167 66.167 -168.5 114.5s-86.833 104.833 -115.5 169.5s-43 133.667 -43 207c0 72.667 14 141.334 42 206.001s66.333 121.334 115 170.001s105.334 87.167 170.001 115.5s134 42.5 208 42.5zM592.001 793
c0 -48.667 1.00293 -85.335 3.00293 -110.002s5 -42.667 9 -54v-4h-135v4c4 11.333 7 29.333 9 54s3 61.334 3 110.001v284c0 49.333 -1.5 86.5 -4.5 111.5s-5.5 42.5 -7.5 52.5v4c11.333 -0.666992 22.666 -1 33.999 -1c9.33301 -0.666992 18.833 -1 28.5 -1h25.5
c11.333 0 26.5 1.33301 45.5 4s43.5 4 73.5 4s57.5 -3.66699 82.5 -11s46.833 -18.166 65.5 -32.499s33.167 -32 43.5 -53s15.5 -44.833 15.5 -71.5c0 -27.333 -4.16699 -51.166 -12.5 -71.499s-18.666 -37.5 -30.999 -51.5s-25.5 -25.333 -39.5 -34s-26.667 -15 -38 -19
l145 -211c15.333 -21.333 28.666 -36.833 39.999 -46.5s22.666 -16.5 33.999 -20.5v-4h-156c0 5.33301 -2.16699 12.5 -6.5 21.5s-9.5 18.167 -15.5 27.5l-146 211c-1.33301 0 -4.83301 0.166992 -10.5 0.5s-11.834 0.666016 -18.501 0.999023l-20 1
c-6.66699 0.333008 -12 0.833008 -16 1.5v-96zM592.004 935.999c6 -1.33301 12.332 -2.33301 18.999 -3s13.334 -1 20.001 -1c19.333 0 37.333 2.66699 54 8s31.167 14 43.5 26s22 27.333 29 46s10.5 41.667 10.5 69c0 43.333 -10.5 75.333 -31.5 96s-48.167 31 -81.5 31
c-8 0 -15.833 -0.5 -23.5 -1.5s-14.5 -2.16699 -20.5 -3.5l-19 -5v-262z" />
    <glyph glyph-name="macron" unicode="&#xaf;" 
d="M246 1364h532v-98h-532v98z" />
    <glyph glyph-name="degree" unicode="&#xb0;" horiz-adv-x="586" 
d="M61 1227c0 32 6.16699 62 18.5 90s29 52.5 50 73.5s45.5 37.5 73.5 49.5s58 18 90 18s62 -6 90 -18s52.5 -28.5 73.5 -49.5s37.5 -45.5 49.5 -73.5s18 -58 18 -90s-6 -62 -18 -90s-28.5 -52.5 -49.5 -73.5s-45.5 -37.667 -73.5 -50s-58 -18.5 -90 -18.5
s-62 6.16699 -90 18.5s-52.5 29 -73.5 50s-37.667 45.5 -50 73.5s-18.5 58 -18.5 90zM143 1227c0 -20.667 4 -40 12 -58s18.833 -33.833 32.5 -47.5s29.5 -24.5 47.5 -32.5s37.333 -12 58 -12s40 4 58 12s33.667 18.833 47 32.5s24 29.5 32 47.5s12 37.333 12 58
s-4 40 -12 58s-18.667 33.667 -32 47s-29 24 -47 32s-37.333 12 -58 12s-40 -4 -58 -12s-33.833 -18.667 -47.5 -32s-24.5 -29 -32.5 -47s-12 -37.333 -12 -58z" />
    <glyph glyph-name="plusminus" unicode="&#xb1;" horiz-adv-x="1331" 
d="M717 692v-450h-103v450h-471v103h471v450h103v-450h471v-103h-471zM143 37v102h1045v-102h-1045z" />
    <glyph glyph-name="twosuperior" unicode="&#xb2;" horiz-adv-x="733" 
d="M113 645c8 9.33301 21.834 23.168 41.501 41.501s41.667 40.166 66 65.499s49.5 54.166 75.5 86.499s49.833 67.166 71.5 104.499s39.5 76.833 53.5 118.5s21 85.167 21 130.5c0 36 -4.33301 66.5 -13 91.5s-20.167 45 -34.5 60s-31.333 25.833 -51 32.5
s-40.5 10 -62.5 10c-32 0 -60.833 -4.16699 -86.5 -12.5s-47.834 -18.166 -66.501 -29.499s-33.834 -22.833 -45.501 -34.5s-19.5 -20.834 -23.5 -27.501l-12 8l41 115c22.667 9.33301 43.834 17.333 63.501 24s39.5 12.167 59.5 16.5s40.833 7.5 62.5 9.5s45.167 3 70.5 3
c28 0 58 -4 90 -12s61.667 -21.167 89 -39.5s50 -42.333 68 -72s27 -66.167 27 -109.5c0 -45.333 -10.5 -89.666 -31.5 -132.999s-47 -84.833 -78 -124.5s-64.333 -76.834 -100 -111.501l-97.5 -94h211c16 0 32.667 0.333008 50 1s33.5 1.83398 48.5 3.50098
s28.167 3.83398 39.5 6.50098s19.333 5.66699 24 9h4v-155h-575v18v0z" />
    <glyph glyph-name="threesuperior" unicode="&#xb3;" horiz-adv-x="672" 
d="M180 1110c20.667 2.66699 42.166 7.33203 64.499 13.999s42.833 16.667 61.5 30s34.167 30.5 46.5 51.5s18.5 46.5 18.5 76.5c0 34 -9.66699 60.667 -29 80s-50 29 -92 29c-28 0 -53.333 -2.83301 -76 -8.5s-42.667 -13.334 -60 -23.001s-32.5 -20.5 -45.5 -32.5
s-24.167 -24.333 -33.5 -37l-12 6l40 117c32 12.667 66.167 23.334 102.5 32.001s79.5 13 129.5 13c20.667 0 45.167 -2.5 73.5 -7.5s55 -13.667 80 -26s46.333 -29.166 64 -50.499s26.5 -48 26.5 -80c0 -26.667 -5.83301 -50 -17.5 -70s-26.167 -37.333 -43.5 -52
s-35.666 -26.667 -54.999 -36s-36.666 -16.666 -51.999 -21.999c24.667 -1.33301 50.334 -5.83301 77.001 -13.5s50.667 -19.167 72 -34.5s39 -35.333 53 -60s21 -55 21 -91c0 -40.667 -8.66699 -79.167 -26 -115.5s-40.5 -70.333 -69.5 -102
s-62.833 -60.834 -101.5 -87.501s-79.167 -50.5 -121.5 -71.5s-85.5 -39 -129.5 -54s-86 -26.833 -126 -35.5l-16 36c57.333 13.333 111.166 32.166 161.499 56.499s94.166 54 131.499 89s66.833 75.5 88.5 121.5s32.5 97 32.5 153c0 32 -4.5 58.333 -13.5 79
s-20.667 37 -35 49s-30.5 20.333 -48.5 25s-35.667 7 -53 7c-12 0 -23.333 -0.666992 -34 -2s-20 -2.66602 -28 -3.99902c-9.33301 -2 -18 -4 -26 -6v57v0z" />
    <glyph glyph-name="acute" unicode="&#xb4;" 
d="M741 1321l-150 -53l-69 -26c-24 -9.33301 -48.333 -19.333 -73 -30l-74.5 -32.5c-25 -11 -48.833 -22.5 -71.5 -34.5l-22 37c43.333 28.667 86.5 60 129.5 94l118.5 96l120 105z" />
    <glyph glyph-name="micro" unicode="&#xb5;" horiz-adv-x="1169" 
d="M573 109c33.333 0 66.168 4.83594 98.501 14.5029s61.166 24.667 86.499 45s45.666 46.166 60.999 77.499s23 68.666 23 111.999v275c0 56.667 -0.833008 106.167 -2.5 148.5s-3.66699 78.833 -6 109.5s-5.33301 56.334 -9 77.001s-7.5 38 -11.5 52v4h231v-4
c-4 -14 -7.66699 -31.333 -11 -52s-6.33301 -46.334 -9 -77.001s-4.66699 -67.167 -6 -109.5s-2 -91.833 -2 -148.5v-242c0 -56.667 0.666992 -106.167 2 -148.5s3.33301 -78.833 6 -109.5s5.66699 -56.334 9 -77.001s7 -38 11 -52v-4h-231v4
c4 14.667 7.83301 33.667 11.5 57s6.83398 53 9.50098 89c-24 -54.667 -58 -98.5 -102 -131.5s-97 -49.5 -159 -49.5c-32 0 -60.667 4.33301 -86 13s-48 20.5 -68 35.5s-37.5 32.333 -52.5 52s-27.833 40.167 -38.5 61.5v-88c0 -56.667 0.666992 -106.167 2 -148.5
s3.33301 -78.833 6 -109.5s5.66699 -56.334 9 -77.001s7 -38 11 -52v-4h-231v4c4 14 7.83301 31.333 11.5 52s6.66699 46.334 9 77.001s4.33301 67.167 6 109.5s2.5 91.833 2.5 148.5v590c0 56.667 -0.833008 106.167 -2.5 148.5s-3.66699 78.833 -6 109.5
s-5.33301 56.334 -9 77.001s-7.5 38 -11.5 52v4h231v-4c-4 -14 -7.66699 -31.333 -11 -52s-6.33301 -46.334 -9 -77.001s-4.66699 -67.167 -6 -109.5s-2 -91.833 -2 -148.5v-268c0 -43.333 6.16699 -81 18.5 -113s29.5 -58.5 51.5 -79.5s48 -36.833 78 -47.5
s62.333 -16 97 -16z" />
    <glyph glyph-name="paragraph" unicode="&#xb6;" horiz-adv-x="963" 
d="M770 1331l0.000976562 -3.99902c-4 -14 -7.16699 -31.333 -9.5 -52s-4.16602 -46.334 -5.49902 -77.001s-2.16602 -67.167 -2.49902 -109.5s-0.5 -91.833 -0.5 -148.5v-651c0 -57.333 0.166992 -107 0.5 -149s1.16602 -78.333 2.49902 -109
s3.16602 -56.334 5.49902 -77.001s5.5 -38 9.5 -52v-4h-123v4c1.33301 4.66699 3.16602 18 5.49902 40s4.5 50.333 6.5 85s3.66699 74.5 5 119.5s2 92.5 2 142.5v966h-119v-966c0 -57.333 0.166992 -107 0.5 -149s1.16602 -78.333 2.49902 -109
s3.16602 -56.334 5.49902 -77.001s5.5 -38 9.5 -52v-4h-123v4c4 14 7.33301 31.333 10 52s4.66699 46.334 6 77.001s2.16602 67 2.49902 109s0.5 91.667 0.5 149v344c-51.333 1.33301 -100 10 -146 26s-86.167 39.5 -120.5 70.5s-61.666 69.5 -81.999 115.5
s-30.5 99.667 -30.5 161c0 53.333 7.66699 100.833 23 142.5s37.333 77 66 106s63.334 51 104.001 66s86.334 22.5 137.001 22.5c26 0 48.167 -0.666992 66.5 -2s37 -2.83301 56 -4.5s40.833 -3.16699 65.5 -4.5s56 -1.66602 94 -0.999023h76z" />
    <glyph glyph-name="periodcentered" unicode="&#xb7;" horiz-adv-x="420" 
d="M102 707c0 14.667 2.83301 28.5 8.5 41.5s13.334 24.167 23.001 33.5s21 16.833 34 22.5s26.833 8.5 41.5 8.5c15.333 0 29.5 -2.83301 42.5 -8.5s24.333 -13.167 34 -22.5s17.334 -20.5 23.001 -33.5s8.5 -26.833 8.5 -41.5c0 -31.333 -10.333 -57.333 -31 -78
s-46.334 -31 -77.001 -31c-14.667 0 -28.5 2.83301 -41.5 8.5s-24.333 13.334 -34 23.001s-17.334 21.167 -23.001 34.5s-8.5 27.666 -8.5 42.999z" />
    <glyph glyph-name="cedilla" unicode="&#xb8;" 
d="M741 -285c0 -26 -6.33789 -49.667 -19.0049 -71s-30.167 -39.5 -52.5 -54.5s-48.666 -26.5 -78.999 -34.5s-63.166 -12 -98.499 -12c-41.333 0 -80.166 4.5 -116.499 13.5s-70.166 21.5 -101.499 37.5l19 46l29 -13.5c10.667 -5 22.5 -9.5 35.5 -13.5
s27.667 -7.33301 44 -10s34.833 -4 55.5 -4c44 0 79.833 10.667 107.5 32s41.5 49.333 41.5 84c0 38 -13 66 -39 84s-58 27 -96 27c-6 0 -14 -0.333008 -24 -1s-17.667 -1.66699 -23 -3l65 178h46l-48 -129c8.66699 1.33301 16.834 2.33301 24.501 3s16.167 1 25.5 1
c37.333 0 69 -4.83301 95 -14.5s47 -22 63 -37s27.667 -32.167 35 -51.5s11 -38.333 11 -57z" />
    <glyph glyph-name="onesuperior" unicode="&#xb9;" horiz-adv-x="422" 
d="M117 631c2.66699 8 5.00195 18 7.00195 30s3.83301 26.5 5.5 43.5s3 37.5 4 61.5s1.5 52 1.5 84v371c0 32 -2.5 57.5 -7.5 76.5s-10.833 33.833 -17.5 44.5s-13.834 18 -21.501 22s-13.834 7.33301 -18.501 10v4l235 66v-4c-3.33301 -8 -6 -18 -8 -30
s-3.83301 -26.5 -5.5 -43.5s-2.83398 -37.5 -3.50098 -61.5s-1 -52 -1 -84v-371c0 -32 0.333008 -60 1 -84s1.83398 -44.5 3.50098 -61.5s3.5 -31.5 5.5 -43.5s4.66699 -22 8 -30v-4h-188v4z" />
    <glyph glyph-name="ordmasculine" unicode="&#xba;" horiz-adv-x="866" 
d="M63 1110c0 50 9.50391 96.167 28.5039 138.5s45.167 79 78.5 110s72.666 55.333 117.999 73s94 26.5 146 26.5c51.333 0 99.333 -8.33301 144 -25s83.667 -40.167 117 -70.5s59.666 -67.166 78.999 -110.499s29 -92 29 -146c0 -45.333 -8.16699 -88.833 -24.5 -130.5
s-40.333 -78.5 -72 -110.5s-70.5 -57.5 -116.5 -76.5s-98.667 -28.5 -158 -28.5c-50.667 0 -98.334 8.16699 -143.001 24.5s-83.834 39.666 -117.501 69.999s-60.167 67 -79.5 110s-29 91.5 -29 145.5zM444.004 823c30 0 57.167 6.00293 81.5 18.0029
s45.166 29.167 62.499 51.5s30.833 49.333 40.5 81s14.5 66.834 14.5 105.501c0 44.667 -4.5 86.167 -13.5 124.5s-22.667 71.666 -41 99.999s-41.333 50.666 -69 66.999s-60.167 24.5 -97.5 24.5c-29.333 0 -56.166 -6 -80.499 -18s-45.333 -29 -63 -51
s-31.334 -48.667 -41.001 -80s-14.5 -66.333 -14.5 -105c0 -44.667 4.83301 -86.334 14.5 -125.001s23.834 -72.334 42.501 -101.001s41.667 -51.167 69 -67.5s59 -24.5 95 -24.5z" />
    <glyph glyph-name="guillemotright" unicode="&#xbb;" horiz-adv-x="911" 
d="M829 528l-27.999 -25.002l-49 -45l-64 -61.5l-72 -73l-74 -79c-24.667 -27 -47.667 -53.833 -69 -80.5l-37 26c20 28.667 39.667 58.334 59 89.001l55 91l48 86.5l39 75.5l-39 75.5l-47.5 86c-17 29.667 -35.167 59.834 -54.5 90.501s-39.333 60.667 -60 90l37 27
c21.333 -26.667 44.333 -53.5 69 -80.5l74 -78.5l72 -72.5l64 -61.5l49 -46c13.333 -12.667 22.666 -21 27.999 -25v-9zM481.001 527.998l-27.999 -25.002l-49 -45l-64 -61.5l-72 -73l-74 -79c-24.667 -27 -47.667 -53.833 -69 -80.5l-37 26
c20 28.667 39.667 58.334 59 89.001l55 91l48 86.5l39 75.5l-39 75.5l-47.5 86c-17 29.667 -35.167 59.834 -54.5 90.501s-39.333 60.667 -60 90l37 27c21.333 -26.667 44.333 -53.5 69 -80.5l74 -78.5l72 -72.5l64 -61.5l49 -46c13.333 -12.667 22.666 -21 27.999 -25v-9z
" />
    <glyph glyph-name="onequarter" unicode="&#xbc;" horiz-adv-x="1440" 
d="M137 631c2.66699 8 5.16602 18 7.49902 30s4.33301 26.5 6 43.5s3 37.5 4 61.5s1.5 52 1.5 84v371c0 32 -2.5 57.5 -7.5 76.5s-11 33.833 -18 44.5s-14.167 18 -21.5 22l-18.999 10v4l236 66v-4c-3.33301 -8 -6.16602 -18 -8.49902 -30s-4.33301 -26.5 -6 -43.5
s-2.83398 -37.5 -3.50098 -61.5s-1 -52 -1 -84v-371c0 -32 0.333008 -60 1 -84s1.83398 -44.5 3.50098 -61.5s3.66699 -31.5 6 -43.5s5.16602 -22 8.49902 -30v-4h-189v4zM1241 831l-0.000976562 -3.99902c-2 -8 -3.83301 -17.833 -5.5 -29.5s-3 -26.167 -4 -43.5
s-1.66699 -38 -2 -62s-0.5 -52 -0.5 -84v-344c38 0 68.833 1.16699 92.5 3.5s42.5 5.16602 56.5 8.49902h4v-100h-4c-14 2 -32.833 3.83301 -56.5 5.5s-54.5 3.16699 -92.5 4.5c0 -27.333 0.333008 -50.833 1 -70.5s1.83398 -36.5 3.50098 -50.5s3.5 -25.667 5.5 -35
s4.66699 -18 8 -26v-4h-192v4c2 8 4 16.667 6 26s3.83301 21 5.5 35s3 30.833 4 50.5s1.83301 43.167 2.5 70.5h-411v35l563 610h16zM1073 264.001v297l-274 -297h274zM1106 1458l82 -53l-938 -1436l-82 54z" />
    <glyph glyph-name="onehalf" unicode="&#xbd;" horiz-adv-x="1559" 
d="M137 631c2.66699 8 5.16602 18 7.49902 30s4.33301 26.5 6 43.5s3 37.5 4 61.5s1.5 52 1.5 84v371c0 32 -2.5 57.5 -7.5 76.5s-11 33.833 -18 44.5s-14.167 18 -21.5 22l-18.999 10v4l236 66v-4c-3.33301 -8 -6.16602 -18 -8.49902 -30s-4.33301 -26.5 -6 -43.5
s-2.83398 -37.5 -3.50098 -61.5s-1 -52 -1 -84v-371c0 -32 0.333008 -60 1 -84s1.83398 -44.5 3.50098 -61.5s3.66699 -31.5 6 -43.5s5.16602 -22 8.49902 -30v-4h-189v4zM1106 1458l82 -53l-938 -1436l-82 54zM900.999 18l45.002 39.999c20.667 18.667 44 41.167 70 67.5
s52.833 56.166 80.5 89.499s53 69.5 76 108.5s41.833 79.833 56.5 122.5s22 86.667 22 132c0 30.667 -4 57.5 -12 80.5s-18.833 42 -32.5 57s-30 26.167 -49 33.5s-39.5 11 -61.5 11c-32 0 -60.5 -5 -85.5 -15s-46.5 -21.833 -64.5 -35.5s-32.333 -27.167 -43 -40.5
s-18 -23.333 -22 -30l-13 8l50 131l60.5 24c17.667 6.66699 35.167 12.167 52.5 16.5s35.666 7.5 54.999 9.5s41.666 3 66.999 3c28 0 58 -4 90 -12s61.667 -21.167 89 -39.5s50 -42.333 68 -72s27 -66.167 27 -109.5c0 -45.333 -11.5 -89.5 -34.5 -132.5
s-51.333 -84.333 -85 -124s-69.334 -77 -107.001 -112l-100.5 -94.5h211c16 0 32.5 0.333008 49.5 1s33 1.83398 48 3.50098s28.333 3.83398 40 6.50098s19.834 6 24.501 10h4v-156h-576v18z" />
    <glyph glyph-name="threequarters" unicode="&#xbe;" horiz-adv-x="1583" 
d="M1384 831v-3.99902c-2 -8 -3.83301 -17.833 -5.5 -29.5s-3 -26.167 -4 -43.5s-1.66699 -38 -2 -62s-0.5 -52 -0.5 -84v-344c38 0 68.833 1.16699 92.5 3.5s42.834 5.16602 57.501 8.49902h4v-100h-4c-14.667 2 -33.834 3.83301 -57.501 5.5s-54.5 3.16699 -92.5 4.5
c0 -27.333 0.333008 -50.833 1 -70.5s1.83398 -36.5 3.50098 -50.5s3.66699 -25.667 6 -35s5.16602 -18 8.49902 -26v-4h-193v4c2 8 4 16.667 6 26s3.83301 21 5.5 35s3.16699 30.833 4.5 50.5s2.33301 43.167 3 70.5h-412v35l563 610h16zM1217 264.001v297l-275 -297h275z
M1249 1458l82 -53l-938 -1436l-82 54zM201 1110c20.667 2.66699 42.166 7.33008 64.499 13.9971s42.833 16.667 61.5 30s34 30.5 46 51.5s18 46.5 18 76.5c0 34 -9.66699 60.667 -29 80s-50 29 -92 29c-28 0 -53.167 -2.83301 -75.5 -8.5s-42.333 -13.334 -60 -23.001
s-33 -20.5 -46 -32.5s-24.167 -24.333 -33.5 -37l-12 6l41 117c31.333 12.667 65.166 23.334 101.499 32.001s79.5 13 129.5 13c20.667 0 45.167 -2.5 73.5 -7.5s55 -13.667 80 -26s46.333 -29.166 64 -50.499s26.5 -48 26.5 -80c0 -26.667 -5.83301 -50 -17.5 -70
s-26 -37.333 -43 -52s-35.333 -26.667 -55 -36s-37.167 -16.666 -52.5 -21.999c25.333 -1.33301 51.166 -5.83301 77.499 -13.5s50.333 -19.167 72 -34.5s39.334 -35.333 53.001 -60s20.5 -55 20.5 -91s-8.16699 -70.333 -24.5 -103s-38.666 -63 -66.999 -91
s-61 -54 -98 -78s-76.333 -45.333 -118 -64s-84 -34.667 -127 -48s-84.5 -23.666 -124.5 -30.999l-16 37c57.333 12 110.333 28.5 159 49.5s90.834 46.833 126.501 77.5s63.5 66.167 83.5 106.5s30 85.166 30 134.499c0 32 -4.5 58.333 -13.5 79s-20.667 37 -35 49
s-30.333 20.333 -48 25s-35.167 7 -52.5 7c-12 0 -23.333 -0.666992 -34 -2s-20 -2.66602 -28 -3.99902c-9.33301 -2 -18 -4 -26 -6v57z" />
    <glyph glyph-name="questiondown" unicode="&#xbf;" horiz-adv-x="817" 
d="M592 1339c0 -14.667 -2.83301 -28.5 -8.5 -41.5s-13.167 -24.167 -22.5 -33.5s-20.666 -16.833 -33.999 -22.5s-27.333 -8.5 -42 -8.5c-15.333 0 -29.5 2.83301 -42.5 8.5s-24.333 13.167 -34 22.5s-17.334 20.5 -23.001 33.5s-8.5 26.833 -8.5 41.5
c0 31.333 10.333 57.333 31 78s46.334 31 77.001 31c14.667 0 28.667 -2.83301 42 -8.5s24.666 -13.334 33.999 -23.001s16.833 -21.167 22.5 -34.5s8.5 -27.666 8.5 -42.999zM477 53c36.667 0 69.834 5.8291 99.501 17.4961s55.5 26 77.5 43s40 35 54 54
s23.667 36.167 29 51.5h19l-35 -182l-40.5 -18.5c-16.333 -7.66699 -35.5 -15.167 -57.5 -22.5s-46.833 -13.666 -74.5 -18.999s-58.167 -8 -91.5 -8c-45.333 0 -90.333 5.66699 -135 17s-84.834 29.666 -120.501 54.999s-64.5 58.333 -86.5 99s-33 90.334 -33 149.001
c0 48.667 9.5 94.834 28.5 138.501s42.833 86.334 71.5 128.001s59.5 83 92.5 124s63.833 83.333 92.5 127s52.5 89.5 71.5 137.5s28.5 100 28.5 156h47c0 -61.333 -6.16699 -117.5 -18.5 -168.5s-27.833 -98.5 -46.5 -142.5s-39 -86 -61 -126s-42.333 -79.667 -61 -119
s-34.167 -79.666 -46.5 -120.999s-18.5 -85.333 -18.5 -132c0 -42.667 6 -79 18 -109s28 -54.5 48 -73.5s43 -33 69 -42s52.667 -13.5 80 -13.5z" />
    <glyph glyph-name="Agrave" unicode="&#xc0;" horiz-adv-x="1389" 
d="M1135 0l0.000976562 4.00098c1.33301 3.33301 2.33301 8.33301 3 15s1 12.667 1 18c0 20.667 -2.83301 43.5 -8.5 68.5s-16.5 56.167 -32.5 93.5l-121 272c-37.333 1.33301 -87 2 -149 2h-201h-152.5c-49 0 -93.167 -0.666992 -132.5 -2l-115 -264l-32 -81
c-11.333 -29.333 -17 -59 -17 -89c0 -8.66699 0.666992 -15.834 2 -21.501s2.66602 -9.5 3.99902 -11.5v-4h-204v4c12 12.667 27 35.167 45 67.5s37.667 72.833 59 121.5l573 1271h80l543 -1222c12.667 -28.667 25.834 -56.5 39.501 -83.5s26.5 -51.167 38.5 -72.5
s22.667 -39.333 32 -54s15.666 -24 18.999 -28v-4h-274zM487.001 559.001c38.667 0 78.333 0.166992 119 0.5l119.5 1l112.5 1c36 0.333008 68.667 0.833008 98 1.5l-281 635l-276 -639h108zM453 1887c38 -35.333 77.667 -70.333 119 -105l118.5 -96
c43.667 -34 87.167 -65.333 130.5 -94l-22 -37c-23.333 12 -47.333 23.5 -72 34.5l-74.5 32.5l-73.5 30l-68 26l-150 53z" />
    <glyph glyph-name="Aacute" unicode="&#xc1;" horiz-adv-x="1389" 
d="M1135 0l0.000976562 4.00098c1.33301 3.33301 2.33301 8.33301 3 15s1 12.667 1 18c0 20.667 -2.83301 43.5 -8.5 68.5s-16.5 56.167 -32.5 93.5l-121 272c-37.333 1.33301 -87 2 -149 2h-201h-152.5c-49 0 -93.167 -0.666992 -132.5 -2l-115 -264l-32 -81
c-11.333 -29.333 -17 -59 -17 -89c0 -8.66699 0.666992 -15.834 2 -21.501s2.66602 -9.5 3.99902 -11.5v-4h-204v4c12 12.667 27 35.167 45 67.5s37.667 72.833 59 121.5l573 1271h80l543 -1222c12.667 -28.667 25.834 -56.5 39.501 -83.5s26.5 -51.167 38.5 -72.5
s22.667 -39.333 32 -54s15.666 -24 18.999 -28v-4h-274zM487.001 559.001c38.667 0 78.333 0.166992 119 0.5l119.5 1l112.5 1c36 0.333008 68.667 0.833008 98 1.5l-281 635l-276 -639h108zM1026 1731l-150 -53l-69 -26c-24 -9.33301 -48.333 -19.333 -73 -30l-74.5 -32.5
c-25 -11 -48.833 -22.5 -71.5 -34.5l-22 37c43.333 28.667 86.5 60 129.5 94l118.5 96l120 105z" />
    <glyph glyph-name="Acircumflex" unicode="&#xc2;" horiz-adv-x="1389" 
d="M1135 0l0.000976562 4.00098c1.33301 3.33301 2.33301 8.33301 3 15s1 12.667 1 18c0 20.667 -2.83301 43.5 -8.5 68.5s-16.5 56.167 -32.5 93.5l-121 272c-37.333 1.33301 -87 2 -149 2h-201h-152.5c-49 0 -93.167 -0.666992 -132.5 -2l-115 -264l-32 -81
c-11.333 -29.333 -17 -59 -17 -89c0 -8.66699 0.666992 -15.834 2 -21.501s2.66602 -9.5 3.99902 -11.5v-4h-204v4c12 12.667 27 35.167 45 67.5s37.667 72.833 59 121.5l573 1271h80l543 -1222c12.667 -28.667 25.834 -56.5 39.501 -83.5s26.5 -51.167 38.5 -72.5
s22.667 -39.333 32 -54s15.666 -24 18.999 -28v-4h-274zM487.001 559.001c38.667 0 78.333 0.166992 119 0.5l119.5 1l112.5 1c36 0.333008 68.667 0.833008 98 1.5l-281 635l-276 -639h108zM694 1887l120.003 -105l119 -96c43.333 -34 86.666 -65.333 129.999 -94l-23 -37
l-90 43.5l-92.5 43.5c-30.333 14 -59.5 26.833 -87.5 38.5s-53.333 21.5 -76 29.5c-22.667 -8 -47.834 -17.833 -75.501 -29.5l-87 -38l-92.5 -43l-91 -44.5l-23 37c43.333 28.667 86.666 60 129.999 94l119 96z" />
    <glyph glyph-name="Atilde" unicode="&#xc3;" horiz-adv-x="1389" 
d="M1135 0l0.000976562 4.00098c1.33301 3.33301 2.33301 8.33301 3 15s1 12.667 1 18c0 20.667 -2.83301 43.5 -8.5 68.5s-16.5 56.167 -32.5 93.5l-121 272c-37.333 1.33301 -87 2 -149 2h-201h-152.5c-49 0 -93.167 -0.666992 -132.5 -2l-115 -264l-32 -81
c-11.333 -29.333 -17 -59 -17 -89c0 -8.66699 0.666992 -15.834 2 -21.501s2.66602 -9.5 3.99902 -11.5v-4h-204v4c12 12.667 27 35.167 45 67.5s37.667 72.833 59 121.5l573 1271h80l543 -1222c12.667 -28.667 25.834 -56.5 39.501 -83.5s26.5 -51.167 38.5 -72.5
s22.667 -39.333 32 -54s15.666 -24 18.999 -28v-4h-274zM487.001 559.001c38.667 0 78.333 0.166992 119 0.5l119.5 1l112.5 1c36 0.333008 68.667 0.833008 98 1.5l-281 635l-276 -639h108zM987 1805c-15.333 -28.667 -29.665 -53.5 -42.998 -74.5s-27 -38.5 -41 -52.5
s-29.167 -24.333 -45.5 -31s-34.5 -10 -54.5 -10c-17.333 0 -38 3.83301 -62 11.5s-48.667 16 -74 25l-72 25c-22.667 7.66699 -41 11.5 -55 11.5c-23.333 0 -43.666 -6 -60.999 -18s-34.333 -32.333 -51 -61l-29 16c14.667 28.667 28.667 53.5 42 74.5
s27.166 38.5 41.499 52.5s29.5 24.333 45.5 31s34.333 10 55 10c16.667 0 37.167 -3.83301 61.5 -11.5s49.166 -16.167 74.499 -25.5l72 -25.5c22.667 -7.66699 41 -11.5 55 -11.5c23.333 0 43.666 6.16699 60.999 18.5s34.333 32.833 51 61.5l29 -16v0z" />
    <glyph glyph-name="Adieresis" unicode="&#xc4;" horiz-adv-x="1389" 
d="M1135 0l0.000976562 4.00098c1.33301 3.33301 2.33301 8.33301 3 15s1 12.667 1 18c0 20.667 -2.83301 43.5 -8.5 68.5s-16.5 56.167 -32.5 93.5l-121 272c-37.333 1.33301 -87 2 -149 2h-201h-152.5c-49 0 -93.167 -0.666992 -132.5 -2l-115 -264l-32 -81
c-11.333 -29.333 -17 -59 -17 -89c0 -8.66699 0.666992 -15.834 2 -21.501s2.66602 -9.5 3.99902 -11.5v-4h-204v4c12 12.667 27 35.167 45 67.5s37.667 72.833 59 121.5l573 1271h80l543 -1222c12.667 -28.667 25.834 -56.5 39.501 -83.5s26.5 -51.167 38.5 -72.5
s22.667 -39.333 32 -54s15.666 -24 18.999 -28v-4h-274zM487.001 559.001c38.667 0 78.333 0.166992 119 0.5l119.5 1l112.5 1c36 0.333008 68.667 0.833008 98 1.5l-281 635l-276 -639h108zM418 1723c0 12.667 2.33301 24.667 7 36s11.167 21.166 19.5 29.499
s18 14.833 29 19.5s23.167 7 36.5 7c12.667 0 24.667 -2.33301 36 -7s21.166 -11.167 29.499 -19.5s14.833 -18.166 19.5 -29.499s7 -23.333 7 -36s-2.33301 -24.667 -7 -36s-11.167 -21.166 -19.5 -29.499s-18.166 -14.833 -29.499 -19.5s-23.333 -7 -36 -7
c-13.333 0 -25.5 2.33301 -36.5 7s-20.667 11.167 -29 19.5s-14.833 18.166 -19.5 29.499s-7 23.333 -7 36zM786 1723c0 12.667 2.33301 24.667 7 36s11.167 21.166 19.5 29.499s18.166 14.833 29.499 19.5s23.333 7 36 7s24.667 -2.33301 36 -7
s21.166 -11.167 29.499 -19.5s14.833 -18.166 19.5 -29.499s7 -23.333 7 -36s-2.33301 -24.667 -7 -36s-11.167 -21.166 -19.5 -29.499s-18.166 -14.833 -29.499 -19.5s-23.333 -7 -36 -7s-24.667 2.33301 -36 7s-21.166 11.167 -29.499 19.5s-14.833 18.166 -19.5 29.499
s-7 23.333 -7 36z" />
    <glyph glyph-name="Aring" unicode="&#xc5;" horiz-adv-x="1389" 
d="M1135 0l0.000976562 4.00098c1.33301 3.33301 2.33301 8.33301 3 15s1 12.667 1 18c0 20.667 -2.83301 43.5 -8.5 68.5s-16.5 56.167 -32.5 93.5l-121 272c-37.333 1.33301 -87 2 -149 2h-201h-152.5c-49 0 -93.167 -0.666992 -132.5 -2l-115 -264l-32 -81
c-11.333 -29.333 -17 -59 -17 -89c0 -8.66699 0.666992 -15.834 2 -21.501s2.66602 -9.5 3.99902 -11.5v-4h-204v4c12 12.667 27 35.167 45 67.5s37.667 72.833 59 121.5l573 1271h80l543 -1222c12.667 -28.667 25.834 -56.5 39.501 -83.5s26.5 -51.167 38.5 -72.5
s22.667 -39.333 32 -54s15.666 -24 18.999 -28v-4h-274zM487.001 559.001c38.667 0 78.333 0.166992 119 0.5l119.5 1l112.5 1c36 0.333008 68.667 0.833008 98 1.5l-281 635l-276 -639h108zM559 1766c0 -19.333 3.5 -37.166 10.5 -53.499s16.833 -30.833 29.5 -43.5
s27.167 -22.5 43.5 -29.5s34.166 -10.5 53.499 -10.5c18.667 0 36.334 3.5 53.001 10.5s31.334 16.833 44.001 29.5s22.5 27.167 29.5 43.5s10.5 34.166 10.5 53.499c0 18.667 -3.5 36.334 -10.5 53.001s-16.833 31.334 -29.5 44.001s-27.334 22.5 -44.001 29.5
s-34.334 10.5 -53.001 10.5c-19.333 0 -37.166 -3.5 -53.499 -10.5s-30.833 -16.833 -43.5 -29.5s-22.5 -27.334 -29.5 -44.001s-10.5 -34.334 -10.5 -53.001zM467 1766c0 32 6 61.833 18 89.5s28.333 51.834 49 72.501s44.834 37 72.501 49s57.5 18 89.5 18
s61.833 -6 89.5 -18s51.834 -28.333 72.501 -49s37 -44.834 49 -72.501s18 -57.5 18 -89.5s-6 -61.833 -18 -89.5s-28.333 -52 -49 -73s-44.834 -37.5 -72.501 -49.5s-57.5 -18 -89.5 -18s-61.833 6 -89.5 18s-51.834 28.5 -72.501 49.5s-37 45.333 -49 73
s-18 57.5 -18 89.5z" />
    <glyph glyph-name="AE" unicode="&#xc6;" horiz-adv-x="1710" 
d="M774 715l-158.499 -0.000976562c-51.667 0 -97.167 -0.666992 -136.5 -2l-295 -510l-21 -38.5c-7.33301 -13.667 -14.166 -27.5 -20.499 -41.5s-11.5 -28.333 -15.5 -43s-6 -29 -6 -43c0 -8.66699 0.666992 -15.834 2 -21.501s2.66602 -9.5 3.99902 -11.5v-4h-250v4
c21.333 13.333 46.333 35.5 75 66.5s57 70.167 85 117.5l508 850l82 143.5l62 116c17.333 33.667 31.5 62.167 42.5 85.5s18.5 40.333 22.5 51h137c80.667 0 159.834 0.333008 237.501 1s148.667 1.5 213 2.5s119.333 2.5 165 4.5s76.5 4.66699 92.5 8l-49 -133
c-22 6 -47.667 11.333 -77 16c-25.333 4 -56.166 7.83301 -92.499 11.5s-78.166 5.5 -125.499 5.5c-16 0 -35 -0.5 -57 -1.5s-43.333 -2.16699 -64 -3.5l-73 -4v-546c68.667 0.666992 130.5 2.66699 185.5 6s101.833 6.66602 140.5 9.99902c45.333 4 85.333 8.66699 120 14
l-30 -145c-46 6 -93 11.667 -141 17c-41.333 4.66699 -86.333 8.83398 -135 12.501s-95.334 5.5 -140.001 5.5v-627c78 0 150.167 3.33301 216.5 10s124.166 14.334 173.499 23.001c57.333 9.33301 109.666 20.333 156.999 33l-29 -162c-8 0.666992 -20 1.33398 -36 2.00098
s-33.833 1.33398 -53.5 2.00098s-40.334 1.16699 -62.001 1.5s-42.167 0.666016 -61.5 0.999023s-36.5 0.666016 -51.5 0.999023s-25.833 0.5 -32.5 0.5h-432v4c4 14 7.83301 31.333 11.5 52s6.66699 46.334 9 77.001s4.33301 67.167 6 109.5s2.5 91.833 2.5 148.5v324h-105
zM524.001 790.999h355v251v159c0 44 -0.666992 82 -2 114h-50z" />
    <glyph glyph-name="Ccedilla" unicode="&#xc7;" horiz-adv-x="1386" 
d="M1079 -285c0 -26 -6.33398 -49.6641 -19.001 -70.9971s-30.167 -39.5 -52.5 -54.5s-48.833 -26.5 -79.5 -34.5s-63.667 -12 -99 -12c-40.667 0 -79.167 4.5 -115.5 13.5s-70.166 21.5 -101.499 37.5l19 46l29 -13.5c10.667 -5 22.5 -9.5 35.5 -13.5
s27.667 -7.33301 44 -10s34.833 -4 55.5 -4c44 0 79.833 10.667 107.5 32s41.5 49.333 41.5 84c0 38 -13 66 -39 84s-58 27 -96 27c-6 0 -14 -0.333008 -24 -1s-17.667 -1.66699 -23 -3l55 151c-109.333 9.33301 -209 33.666 -299 72.999s-167.333 91.333 -232 156
s-114.834 140.334 -150.501 227.001s-53.5 182 -53.5 286c0 63.333 8.16699 125.666 24.5 186.999s40.166 119.666 71.499 174.999s70 106.166 116 152.499s98.5 86.5 157.5 120.5s124 60.5 195 79.5s147.833 28.5 230.5 28.5c128.667 0 248 -19.667 358 -59l68 -185l-9 -4
c-52 48 -114.5 86.333 -187.5 115s-153.167 43 -240.5 43c-84 0 -161 -13.167 -231 -39.5s-130.167 -64.5 -180.5 -114.5s-89.5 -111.333 -117.5 -184s-42 -155.334 -42 -248.001c0 -102 13.333 -197.167 40 -285.5s66.334 -164.833 119.001 -229.5
s118.5 -115.5 197.5 -152.5s171.167 -55.5 276.5 -55.5c38 0 76 4 114 12s74.5 19.833 109.5 35.5s68 34.667 99 57s59.167 47.833 84.5 76.5l11 -7l-80 -204c-50 -19.333 -105.167 -34.166 -165.5 -44.499s-121.166 -15.5 -182.499 -15.5
c-9.33301 0 -18.666 0.333008 -27.999 1s-18.666 1 -27.999 1l-37 -100c8.66699 1.33301 16.667 2.33301 24 3s15.666 1 24.999 1c37.333 0 69 -4.83301 95 -14.5s47.167 -22 63.5 -37s28.166 -32.167 35.499 -51.5s11 -38.333 11 -57z" />
    <glyph glyph-name="Egrave" unicode="&#xc8;" horiz-adv-x="1004" 
d="M143 1434c83.333 0 166.167 0.331055 248.5 0.998047s157.833 1.5 226.5 2.5s127.334 2.5 176.001 4.5s81.667 4.66699 99 8l-49 -133c-22 6 -47.667 11.333 -77 16c-25.333 4 -56.166 7.83301 -92.499 11.5s-78.166 5.5 -125.499 5.5c-16 0 -35.167 -0.5 -57.5 -1.5
s-43.833 -2.16699 -64.5 -3.5l-73 -4v-546c68.667 0.666992 130.667 2.66699 186 6s102.333 6.66602 141 9.99902c45.333 4 85.333 8.66699 120 14l-31 -145c-46 6 -93 11.667 -141 17c-41.333 4.66699 -86.333 8.83398 -135 12.501s-95.334 5.5 -140.001 5.5v-627
c78.667 0 151 3.33301 217 10s123.667 14.334 173 23.001c57.333 9.33301 109.666 20.333 156.999 33l-29 -162c-8 0.666992 -20 1.33398 -36 2.00098s-33.833 1.33398 -53.5 2.00098s-40.334 1.16699 -62.001 1.5s-42.167 0.666016 -61.5 0.999023
s-36.5 0.666016 -51.5 0.999023s-25.833 0.5 -32.5 0.5h-432v4c4 14 7.83301 31.333 11.5 52s6.83398 46.334 9.50098 77.001s4.66699 67.167 6 109.5s2 91.833 2 148.5v651c0 56.667 -0.666992 106.167 -2 148.5s-3.33301 79 -6 110s-5.83398 56.833 -9.50098 77.5
s-7.5 38 -11.5 52v4v0zM364.001 1887c38 -35.333 77.667 -70.333 119 -105l118.5 -96c43.667 -34 87.167 -65.333 130.5 -94l-22 -37c-23.333 12 -47.333 23.5 -72 34.5l-74.5 32.5l-73.5 30l-68 26l-150 53z" />
    <glyph glyph-name="Eacute" unicode="&#xc9;" horiz-adv-x="1004" 
d="M143 1434c83.333 0 166.167 0.331055 248.5 0.998047s157.833 1.5 226.5 2.5s127.334 2.5 176.001 4.5s81.667 4.66699 99 8l-49 -133c-22 6 -47.667 11.333 -77 16c-25.333 4 -56.166 7.83301 -92.499 11.5s-78.166 5.5 -125.499 5.5c-16 0 -35.167 -0.5 -57.5 -1.5
s-43.833 -2.16699 -64.5 -3.5l-73 -4v-546c68.667 0.666992 130.667 2.66699 186 6s102.333 6.66602 141 9.99902c45.333 4 85.333 8.66699 120 14l-31 -145c-46 6 -93 11.667 -141 17c-41.333 4.66699 -86.333 8.83398 -135 12.501s-95.334 5.5 -140.001 5.5v-627
c78.667 0 151 3.33301 217 10s123.667 14.334 173 23.001c57.333 9.33301 109.666 20.333 156.999 33l-29 -162c-8 0.666992 -20 1.33398 -36 2.00098s-33.833 1.33398 -53.5 2.00098s-40.334 1.16699 -62.001 1.5s-42.167 0.666016 -61.5 0.999023
s-36.5 0.666016 -51.5 0.999023s-25.833 0.5 -32.5 0.5h-432v4c4 14 7.83301 31.333 11.5 52s6.83398 46.334 9.50098 77.001s4.66699 67.167 6 109.5s2 91.833 2 148.5v651c0 56.667 -0.666992 106.167 -2 148.5s-3.33301 79 -6 110s-5.83398 56.833 -9.50098 77.5
s-7.5 38 -11.5 52v4v0zM774.001 1731l-150 -53l-69 -26c-24 -9.33301 -48.333 -19.333 -73 -30l-74.5 -32.5c-25 -11 -48.833 -22.5 -71.5 -34.5l-22 37c43.333 28.667 86.5 60 129.5 94l118.5 96l120 105z" />
    <glyph glyph-name="Ecircumflex" unicode="&#xca;" horiz-adv-x="1004" 
d="M143 1434c83.333 0 166.167 0.331055 248.5 0.998047s157.833 1.5 226.5 2.5s127.334 2.5 176.001 4.5s81.667 4.66699 99 8l-49 -133c-22 6 -47.667 11.333 -77 16c-25.333 4 -56.166 7.83301 -92.499 11.5s-78.166 5.5 -125.499 5.5c-16 0 -35.167 -0.5 -57.5 -1.5
s-43.833 -2.16699 -64.5 -3.5l-73 -4v-546c68.667 0.666992 130.667 2.66699 186 6s102.333 6.66602 141 9.99902c45.333 4 85.333 8.66699 120 14l-31 -145c-46 6 -93 11.667 -141 17c-41.333 4.66699 -86.333 8.83398 -135 12.501s-95.334 5.5 -140.001 5.5v-627
c78.667 0 151 3.33301 217 10s123.667 14.334 173 23.001c57.333 9.33301 109.666 20.333 156.999 33l-29 -162c-8 0.666992 -20 1.33398 -36 2.00098s-33.833 1.33398 -53.5 2.00098s-40.334 1.16699 -62.001 1.5s-42.167 0.666016 -61.5 0.999023
s-36.5 0.666016 -51.5 0.999023s-25.833 0.5 -32.5 0.5h-432v4c4 14 7.83301 31.333 11.5 52s6.83398 46.334 9.50098 77.001s4.66699 67.167 6 109.5s2 91.833 2 148.5v651c0 56.667 -0.666992 106.167 -2 148.5s-3.33301 79 -6 110s-5.83398 56.833 -9.50098 77.5
s-7.5 38 -11.5 52v4v0zM503.001 1887l120.003 -105l119 -96c43.333 -34 86.666 -65.333 129.999 -94l-23 -37l-90 43.5l-92.5 43.5c-30.333 14 -59.5 26.833 -87.5 38.5s-53.333 21.5 -76 29.5c-22.667 -8 -47.834 -17.833 -75.501 -29.5l-87 -38l-92.5 -43l-91 -44.5
l-23 37c43.333 28.667 86.666 60 129.999 94l119 96z" />
    <glyph glyph-name="Edieresis" unicode="&#xcb;" horiz-adv-x="1004" 
d="M143 1434c83.333 0 166.167 0.331055 248.5 0.998047s157.833 1.5 226.5 2.5s127.334 2.5 176.001 4.5s81.667 4.66699 99 8l-49 -133c-22 6 -47.667 11.333 -77 16c-25.333 4 -56.166 7.83301 -92.499 11.5s-78.166 5.5 -125.499 5.5c-16 0 -35.167 -0.5 -57.5 -1.5
s-43.833 -2.16699 -64.5 -3.5l-73 -4v-546c68.667 0.666992 130.667 2.66699 186 6s102.333 6.66602 141 9.99902c45.333 4 85.333 8.66699 120 14l-31 -145c-46 6 -93 11.667 -141 17c-41.333 4.66699 -86.333 8.83398 -135 12.501s-95.334 5.5 -140.001 5.5v-627
c78.667 0 151 3.33301 217 10s123.667 14.334 173 23.001c57.333 9.33301 109.666 20.333 156.999 33l-29 -162c-8 0.666992 -20 1.33398 -36 2.00098s-33.833 1.33398 -53.5 2.00098s-40.334 1.16699 -62.001 1.5s-42.167 0.666016 -61.5 0.999023
s-36.5 0.666016 -51.5 0.999023s-25.833 0.5 -32.5 0.5h-432v4c4 14 7.83301 31.333 11.5 52s6.83398 46.334 9.50098 77.001s4.66699 67.167 6 109.5s2 91.833 2 148.5v651c0 56.667 -0.666992 106.167 -2 148.5s-3.33301 79 -6 110s-5.83398 56.833 -9.50098 77.5
s-7.5 38 -11.5 52v4v0zM227.001 1723c0 12.667 2.33301 24.667 7 36s11.167 21.166 19.5 29.499s18 14.833 29 19.5s23.167 7 36.5 7c12.667 0 24.667 -2.33301 36 -7s21.166 -11.167 29.499 -19.5s14.833 -18.166 19.5 -29.499s7 -23.333 7 -36s-2.33301 -24.667 -7 -36
s-11.167 -21.166 -19.5 -29.499s-18.166 -14.833 -29.499 -19.5s-23.333 -7 -36 -7c-13.333 0 -25.5 2.33301 -36.5 7s-20.667 11.167 -29 19.5s-14.833 18.166 -19.5 29.499s-7 23.333 -7 36zM595.001 1723c0 12.667 2.33301 24.667 7 36s11.167 21.166 19.5 29.499
s18.166 14.833 29.499 19.5s23.333 7 36 7s24.667 -2.33301 36 -7s21.166 -11.167 29.499 -19.5s14.833 -18.166 19.5 -29.499s7 -23.333 7 -36s-2.33301 -24.667 -7 -36s-11.167 -21.166 -19.5 -29.499s-18.166 -14.833 -29.499 -19.5s-23.333 -7 -36 -7
s-24.667 2.33301 -36 7s-21.166 11.167 -29.499 19.5s-14.833 18.166 -19.5 29.499s-7 23.333 -7 36z" />
    <glyph glyph-name="Igrave" unicode="&#xcc;" horiz-adv-x="543" 
d="M152 4c4 14 7.66699 31.333 11 52s6.33301 46.334 9 77.001s4.66699 67.167 6 109.5s2 91.833 2 148.5v651c0 56.667 -0.666992 106.167 -2 148.5s-3.33301 79 -6 110s-5.66699 56.833 -9 77.5s-7 38 -11 52v4h239v-4c-4 -14 -7.83301 -31.333 -11.5 -52
s-6.66699 -46.5 -9 -77.5s-4.33301 -67.667 -6 -110s-2.5 -91.833 -2.5 -148.5v-651c0 -56.667 0.833008 -106.167 2.5 -148.5s3.66699 -78.833 6 -109.5s5.33301 -56.334 9 -77.001s7.5 -38 11.5 -52v-4h-239v4zM93 1887c38 -35.333 77.667 -70.333 119 -105l118.5 -96
c43.667 -34 87.167 -65.333 130.5 -94l-22 -37c-23.333 12 -47.333 23.5 -72 34.5l-74.5 32.5l-73.5 30l-68 26l-150 53z" />
    <glyph glyph-name="Iacute" unicode="&#xcd;" horiz-adv-x="543" 
d="M152 4c4 14 7.66699 31.333 11 52s6.33301 46.334 9 77.001s4.66699 67.167 6 109.5s2 91.833 2 148.5v651c0 56.667 -0.666992 106.167 -2 148.5s-3.33301 79 -6 110s-5.66699 56.833 -9 77.5s-7 38 -11 52v4h239v-4c-4 -14 -7.83301 -31.333 -11.5 -52
s-6.66699 -46.5 -9 -77.5s-4.33301 -67.667 -6 -110s-2.5 -91.833 -2.5 -148.5v-651c0 -56.667 0.833008 -106.167 2.5 -148.5s3.66699 -78.833 6 -109.5s5.33301 -56.334 9 -77.001s7.5 -38 11.5 -52v-4h-239v4zM543 1731l-150 -53l-69 -26
c-24 -9.33301 -48.333 -19.333 -73 -30l-74.5 -32.5c-25 -11 -48.833 -22.5 -71.5 -34.5l-22 37c43.333 28.667 86.5 60 129.5 94l118.5 96l120 105z" />
    <glyph glyph-name="Icircumflex" unicode="&#xce;" horiz-adv-x="543" 
d="M152 4c4 14 7.66699 31.333 11 52s6.33301 46.334 9 77.001s4.66699 67.167 6 109.5s2 91.833 2 148.5v651c0 56.667 -0.666992 106.167 -2 148.5s-3.33301 79 -6 110s-5.66699 56.833 -9 77.5s-7 38 -11 52v4h239v-4c-4 -14 -7.83301 -31.333 -11.5 -52
s-6.66699 -46.5 -9 -77.5s-4.33301 -67.667 -6 -110s-2.5 -91.833 -2.5 -148.5v-651c0 -56.667 0.833008 -106.167 2.5 -148.5s3.66699 -78.833 6 -109.5s5.33301 -56.334 9 -77.001s7.5 -38 11.5 -52v-4h-239v4zM273 1887l120.003 -105l119 -96
c43.333 -34 86.666 -65.333 129.999 -94l-23 -37l-90 43.5l-92.5 43.5c-30.333 14 -59.5 26.833 -87.5 38.5s-53.333 21.5 -76 29.5c-22.667 -8 -47.834 -17.833 -75.501 -29.5l-87 -38l-92.5 -43l-91 -44.5l-23 37c43.333 28.667 86.666 60 129.999 94l119 96z" />
    <glyph glyph-name="Idieresis" unicode="&#xcf;" horiz-adv-x="543" 
d="M152 4c4 14 7.66699 31.333 11 52s6.33301 46.334 9 77.001s4.66699 67.167 6 109.5s2 91.833 2 148.5v651c0 56.667 -0.666992 106.167 -2 148.5s-3.33301 79 -6 110s-5.66699 56.833 -9 77.5s-7 38 -11 52v4h239v-4c-4 -14 -7.83301 -31.333 -11.5 -52
s-6.66699 -46.5 -9 -77.5s-4.33301 -67.667 -6 -110s-2.5 -91.833 -2.5 -148.5v-651c0 -56.667 0.833008 -106.167 2.5 -148.5s3.66699 -78.833 6 -109.5s5.33301 -56.334 9 -77.001s7.5 -38 11.5 -52v-4h-239v4zM-3 1723c0 12.667 2.33301 24.667 7 36
s11.167 21.166 19.5 29.499s18 14.833 29 19.5s23.167 7 36.5 7c12.667 0 24.667 -2.33301 36 -7s21.166 -11.167 29.499 -19.5s14.833 -18.166 19.5 -29.499s7 -23.333 7 -36s-2.33301 -24.667 -7 -36s-11.167 -21.166 -19.5 -29.499s-18.166 -14.833 -29.499 -19.5
s-23.333 -7 -36 -7c-13.333 0 -25.5 2.33301 -36.5 7s-20.667 11.167 -29 19.5s-14.833 18.166 -19.5 29.499s-7 23.333 -7 36zM365 1723c0 12.667 2.33301 24.667 7 36s11.167 21.166 19.5 29.499s18.166 14.833 29.499 19.5s23.333 7 36 7s24.667 -2.33301 36 -7
s21.166 -11.167 29.499 -19.5s14.833 -18.166 19.5 -29.499s7 -23.333 7 -36s-2.33301 -24.667 -7 -36s-11.167 -21.166 -19.5 -29.499s-18.166 -14.833 -29.499 -19.5s-23.333 -7 -36 -7s-24.667 2.33301 -36 7s-21.166 11.167 -29.499 19.5s-14.833 18.166 -19.5 29.499
s-7 23.333 -7 36z" />
    <glyph glyph-name="Eth" unicode="&#xd0;" horiz-adv-x="1462" 
d="M-6 791c18.667 -2.66699 44.1699 -4.16504 76.5029 -4.49805s66.166 -0.5 101.499 -0.5v256c0 56.667 -0.666992 106.5 -2 149.5s-3.33301 80 -6 111s-5.83398 57.167 -9.50098 78.5s-7.5 39 -11.5 53v4c15.333 -0.666992 29.666 -1.33398 42.999 -2.00098
c11.333 -0.666992 23 -1.16699 35 -1.5s21.667 -0.5 29 -0.5c12.667 0 33.834 0.666992 63.501 2s63.5 2.66602 101.5 3.99902l118.5 4c41 1.33301 79.5 2 115.5 2c96.667 0 188.667 -12 276 -36s164 -63.333 230 -118s118.333 -126.334 157 -215.001s58 -197.667 58 -327
c0 -92.667 -10.167 -176 -30.5 -250s-48.833 -139.333 -85.5 -196s-80.5 -105.167 -131.5 -145.5s-107.333 -73.5 -169 -99.5s-127.5 -45 -197.5 -57s-142.333 -18 -217 -18c-26.667 0 -58.834 0.833008 -96.501 2.5s-75.5 3.5 -113.5 5.5l-107.5 5.5
c-33.667 1.66699 -59.834 2.5 -78.501 2.5v4c4 14 7.83301 31.333 11.5 52s6.83398 46.334 9.50098 77.001s4.66699 67.167 6 109.5s2 91.833 2 148.5v303l-190 -6zM362.003 1348l-3.99805 -210c-0.666992 -29.333 -1.16699 -59.333 -1.5 -90l-1 -90.5l-1 -85.5
c-0.333008 -27.333 -0.5 -51.666 -0.5 -72.999v-13c73.333 1.33301 134.833 3.33301 184.5 6s81.834 5.66699 96.501 9l-19 -115c-22 0.666992 -46.333 1.66699 -73 3c-23.333 1.33301 -51 2.33301 -83 3s-67.333 1.33398 -106 2.00098c0 -48.667 0.333008 -101.5 1 -158.5
s1.66699 -113.333 3 -169s3 -108.167 5 -157.5s4 -91 6 -125c9.33301 -1.33301 21.833 -2.83301 37.5 -4.5s32.167 -3 49.5 -4s34.333 -1.83301 51 -2.5s30.667 -1 42 -1c46.667 0 94.5 3.16699 143.5 9.5s96.333 18.166 142 35.499s88.667 41.166 129 71.499
s75.666 69.5 105.999 117.5s54.166 105.833 71.499 173.5s26 147.5 26 239.5c0 102 -12.333 192.833 -37 272.5s-60.834 146.834 -108.501 201.501s-106.667 96.167 -177 124.5s-151.166 42.5 -242.499 42.5c-18 0 -38.333 -0.5 -61 -1.5l-67.5 -3
c-22.333 -1 -43.333 -2.33301 -63 -4s-35.834 -2.83398 -48.501 -3.50098z" />
    <glyph glyph-name="Ntilde" unicode="&#xd1;" horiz-adv-x="1513" 
d="M199 1434l1030 -1096v704c0 56.667 -0.666992 106.167 -2 148.5s-3.33301 79 -6 110s-5.83398 56.833 -9.50098 77.5s-7.5 38 -11.5 52v4h178v-4c-4 -14 -7.66699 -31.333 -11 -52s-6.33301 -46.5 -9 -77.5s-4.66699 -67.667 -6 -110s-2 -91.833 -2 -148.5v-1062h-35
l-1030 1095v-684c0 -56.667 0.666992 -106.167 2 -148.5s3.33301 -78.833 6 -109.5s5.66699 -56.334 9 -77.001s7 -38 11 -52v-4h-178v4c4 14 7.83301 31.333 11.5 52s6.83398 46.334 9.50098 77.001s4.66699 67.167 6 109.5s2 91.833 2 148.5v651
c0 56.667 -0.666992 106.167 -2 148.5s-3.33301 79 -6 110s-5.83398 56.833 -9.50098 77.5s-7.5 38 -11.5 52v4h64zM1063 1805c-15.333 -28.667 -29.665 -53.5 -42.998 -74.5s-27 -38.5 -41 -52.5s-29.167 -24.333 -45.5 -31s-34.5 -10 -54.5 -10
c-17.333 0 -38 3.83301 -62 11.5s-48.667 16 -74 25l-72 25c-22.667 7.66699 -41 11.5 -55 11.5c-23.333 0 -43.666 -6 -60.999 -18s-34.333 -32.333 -51 -61l-29 16c14.667 28.667 28.667 53.5 42 74.5s27.166 38.5 41.499 52.5s29.5 24.333 45.5 31s34.333 10 55 10
c16.667 0 37.167 -3.83301 61.5 -11.5s49.166 -16.167 74.499 -25.5l72 -25.5c22.667 -7.66699 41 -11.5 55 -11.5c23.333 0 43.666 6.16699 60.999 18.5s34.333 32.833 51 61.5l29 -16v0z" />
    <glyph glyph-name="Ograve" unicode="&#xd2;" horiz-adv-x="1651" 
d="M797 1458c111.333 0 214.165 -18.165 308.498 -54.498s175.833 -87.333 244.5 -153s122.334 -144.5 161.001 -236.5s58 -193.667 58 -305c0 -63.333 -7.33301 -125.666 -22 -186.999s-36.167 -119.333 -64.5 -174s-63.166 -105.167 -104.499 -151.5
s-88.5 -86.333 -141.5 -120s-111.5 -60 -175.5 -79s-133 -28.5 -207 -28.5c-111.333 0 -214.166 17.833 -308.499 53.5s-175.833 86.167 -244.5 151.5s-122.334 143.833 -161.001 235.5s-58 193.5 -58 305.5c0 63.333 7.33301 125.666 22 186.999
s36.167 119.666 64.5 174.999s63 106.166 104 152.499s88 86.5 141 120.5s111.667 60.5 176 79.5s133.5 28.5 207.5 28.5zM853.999 59.002c74 0 141.67 13.333 203.003 40s114.166 65.334 158.499 116.001s78.833 112.5 103.5 185.5s37 155.833 37 248.5
c0 102.667 -11.833 197.834 -35.5 285.501s-58.834 163.667 -105.501 228s-104.834 114.666 -174.501 150.999s-150.834 54.5 -243.501 54.5c-74 0 -141.667 -13.167 -203 -39.5s-114.166 -64.5 -158.499 -114.5s-78.833 -111.333 -103.5 -184s-37 -155.334 -37 -248.001
c0 -102 11.667 -197.167 35 -285.5s58.333 -164.833 105 -229.5s105 -115.5 175 -152.5s151.333 -55.5 244 -55.5zM651.002 1887c38 -35.333 77.667 -70.333 119 -105l118.5 -96c43.667 -34 87.167 -65.333 130.5 -94l-22 -37c-23.333 12 -47.333 23.5 -72 34.5l-74.5 32.5
l-73.5 30l-68 26l-150 53z" />
    <glyph glyph-name="Oacute" unicode="&#xd3;" horiz-adv-x="1651" 
d="M797 1458c111.333 0 214.165 -18.165 308.498 -54.498s175.833 -87.333 244.5 -153s122.334 -144.5 161.001 -236.5s58 -193.667 58 -305c0 -63.333 -7.33301 -125.666 -22 -186.999s-36.167 -119.333 -64.5 -174s-63.166 -105.167 -104.499 -151.5
s-88.5 -86.333 -141.5 -120s-111.5 -60 -175.5 -79s-133 -28.5 -207 -28.5c-111.333 0 -214.166 17.833 -308.499 53.5s-175.833 86.167 -244.5 151.5s-122.334 143.833 -161.001 235.5s-58 193.5 -58 305.5c0 63.333 7.33301 125.666 22 186.999
s36.167 119.666 64.5 174.999s63 106.166 104 152.499s88 86.5 141 120.5s111.667 60.5 176 79.5s133.5 28.5 207.5 28.5zM853.999 59.002c74 0 141.67 13.333 203.003 40s114.166 65.334 158.499 116.001s78.833 112.5 103.5 185.5s37 155.833 37 248.5
c0 102.667 -11.833 197.834 -35.5 285.501s-58.834 163.667 -105.501 228s-104.834 114.666 -174.501 150.999s-150.834 54.5 -243.501 54.5c-74 0 -141.667 -13.167 -203 -39.5s-114.166 -64.5 -158.499 -114.5s-78.833 -111.333 -103.5 -184s-37 -155.334 -37 -248.001
c0 -102 11.667 -197.167 35 -285.5s58.333 -164.833 105 -229.5s105 -115.5 175 -152.5s151.333 -55.5 244 -55.5zM1054 1731l-150 -53l-69 -26c-24 -9.33301 -48.333 -19.333 -73 -30l-74.5 -32.5c-25 -11 -48.833 -22.5 -71.5 -34.5l-22 37
c43.333 28.667 86.5 60 129.5 94l118.5 96l120 105z" />
    <glyph glyph-name="Ocircumflex" unicode="&#xd4;" horiz-adv-x="1651" 
d="M797 1458c111.333 0 214.165 -18.165 308.498 -54.498s175.833 -87.333 244.5 -153s122.334 -144.5 161.001 -236.5s58 -193.667 58 -305c0 -63.333 -7.33301 -125.666 -22 -186.999s-36.167 -119.333 -64.5 -174s-63.166 -105.167 -104.499 -151.5
s-88.5 -86.333 -141.5 -120s-111.5 -60 -175.5 -79s-133 -28.5 -207 -28.5c-111.333 0 -214.166 17.833 -308.499 53.5s-175.833 86.167 -244.5 151.5s-122.334 143.833 -161.001 235.5s-58 193.5 -58 305.5c0 63.333 7.33301 125.666 22 186.999
s36.167 119.666 64.5 174.999s63 106.166 104 152.499s88 86.5 141 120.5s111.667 60.5 176 79.5s133.5 28.5 207.5 28.5zM853.999 59.002c74 0 141.67 13.333 203.003 40s114.166 65.334 158.499 116.001s78.833 112.5 103.5 185.5s37 155.833 37 248.5
c0 102.667 -11.833 197.834 -35.5 285.501s-58.834 163.667 -105.501 228s-104.834 114.666 -174.501 150.999s-150.834 54.5 -243.501 54.5c-74 0 -141.667 -13.167 -203 -39.5s-114.166 -64.5 -158.499 -114.5s-78.833 -111.333 -103.5 -184s-37 -155.334 -37 -248.001
c0 -102 11.667 -197.167 35 -285.5s58.333 -164.833 105 -229.5s105 -115.5 175 -152.5s151.333 -55.5 244 -55.5zM825.002 1887l120.003 -105l119 -96c43.333 -34 86.666 -65.333 129.999 -94l-23 -37l-90 43.5l-92.5 43.5c-30.333 14 -59.5 26.833 -87.5 38.5
s-53.333 21.5 -76 29.5c-22.667 -8 -47.834 -17.833 -75.501 -29.5l-87 -38l-92.5 -43l-91 -44.5l-23 37c43.333 28.667 86.666 60 129.999 94l119 96z" />
    <glyph glyph-name="Otilde" unicode="&#xd5;" horiz-adv-x="1651" 
d="M797 1458c111.333 0 214.165 -18.165 308.498 -54.498s175.833 -87.333 244.5 -153s122.334 -144.5 161.001 -236.5s58 -193.667 58 -305c0 -63.333 -7.33301 -125.666 -22 -186.999s-36.167 -119.333 -64.5 -174s-63.166 -105.167 -104.499 -151.5
s-88.5 -86.333 -141.5 -120s-111.5 -60 -175.5 -79s-133 -28.5 -207 -28.5c-111.333 0 -214.166 17.833 -308.499 53.5s-175.833 86.167 -244.5 151.5s-122.334 143.833 -161.001 235.5s-58 193.5 -58 305.5c0 63.333 7.33301 125.666 22 186.999
s36.167 119.666 64.5 174.999s63 106.166 104 152.499s88 86.5 141 120.5s111.667 60.5 176 79.5s133.5 28.5 207.5 28.5zM853.999 59.002c74 0 141.67 13.333 203.003 40s114.166 65.334 158.499 116.001s78.833 112.5 103.5 185.5s37 155.833 37 248.5
c0 102.667 -11.833 197.834 -35.5 285.501s-58.834 163.667 -105.501 228s-104.834 114.666 -174.501 150.999s-150.834 54.5 -243.501 54.5c-74 0 -141.667 -13.167 -203 -39.5s-114.166 -64.5 -158.499 -114.5s-78.833 -111.333 -103.5 -184s-37 -155.334 -37 -248.001
c0 -102 11.667 -197.167 35 -285.5s58.333 -164.833 105 -229.5s105 -115.5 175 -152.5s151.333 -55.5 244 -55.5zM1118 1805c-15.333 -28.667 -29.665 -53.5 -42.998 -74.5s-27 -38.5 -41 -52.5s-29.167 -24.333 -45.5 -31s-34.5 -10 -54.5 -10
c-17.333 0 -38 3.83301 -62 11.5s-48.667 16 -74 25l-72 25c-22.667 7.66699 -41 11.5 -55 11.5c-23.333 0 -43.666 -6 -60.999 -18s-34.333 -32.333 -51 -61l-29 16c14.667 28.667 28.667 53.5 42 74.5s27.166 38.5 41.499 52.5s29.5 24.333 45.5 31s34.333 10 55 10
c16.667 0 37.167 -3.83301 61.5 -11.5s49.166 -16.167 74.499 -25.5l72 -25.5c22.667 -7.66699 41 -11.5 55 -11.5c23.333 0 43.666 6.16699 60.999 18.5s34.333 32.833 51 61.5l29 -16v0z" />
    <glyph glyph-name="Odieresis" unicode="&#xd6;" horiz-adv-x="1651" 
d="M797 1458c111.333 0 214.165 -18.165 308.498 -54.498s175.833 -87.333 244.5 -153s122.334 -144.5 161.001 -236.5s58 -193.667 58 -305c0 -63.333 -7.33301 -125.666 -22 -186.999s-36.167 -119.333 -64.5 -174s-63.166 -105.167 -104.499 -151.5
s-88.5 -86.333 -141.5 -120s-111.5 -60 -175.5 -79s-133 -28.5 -207 -28.5c-111.333 0 -214.166 17.833 -308.499 53.5s-175.833 86.167 -244.5 151.5s-122.334 143.833 -161.001 235.5s-58 193.5 -58 305.5c0 63.333 7.33301 125.666 22 186.999
s36.167 119.666 64.5 174.999s63 106.166 104 152.499s88 86.5 141 120.5s111.667 60.5 176 79.5s133.5 28.5 207.5 28.5zM853.999 59.002c74 0 141.67 13.333 203.003 40s114.166 65.334 158.499 116.001s78.833 112.5 103.5 185.5s37 155.833 37 248.5
c0 102.667 -11.833 197.834 -35.5 285.501s-58.834 163.667 -105.501 228s-104.834 114.666 -174.501 150.999s-150.834 54.5 -243.501 54.5c-74 0 -141.667 -13.167 -203 -39.5s-114.166 -64.5 -158.499 -114.5s-78.833 -111.333 -103.5 -184s-37 -155.334 -37 -248.001
c0 -102 11.667 -197.167 35 -285.5s58.333 -164.833 105 -229.5s105 -115.5 175 -152.5s151.333 -55.5 244 -55.5zM549.002 1723c0 12.667 2.33301 24.667 7 36s11.167 21.166 19.5 29.499s18 14.833 29 19.5s23.167 7 36.5 7c12.667 0 24.667 -2.33301 36 -7
s21.166 -11.167 29.499 -19.5s14.833 -18.166 19.5 -29.499s7 -23.333 7 -36s-2.33301 -24.667 -7 -36s-11.167 -21.166 -19.5 -29.499s-18.166 -14.833 -29.499 -19.5s-23.333 -7 -36 -7c-13.333 0 -25.5 2.33301 -36.5 7s-20.667 11.167 -29 19.5
s-14.833 18.166 -19.5 29.499s-7 23.333 -7 36zM917.002 1723c0 12.667 2.33301 24.667 7 36s11.167 21.166 19.5 29.499s18.166 14.833 29.499 19.5s23.333 7 36 7s24.667 -2.33301 36 -7s21.166 -11.167 29.499 -19.5s14.833 -18.166 19.5 -29.499s7 -23.333 7 -36
s-2.33301 -24.667 -7 -36s-11.167 -21.166 -19.5 -29.499s-18.166 -14.833 -29.499 -19.5s-23.333 -7 -36 -7s-24.667 2.33301 -36 7s-21.166 11.167 -29.499 19.5s-14.833 18.166 -19.5 29.499s-7 23.333 -7 36z" />
    <glyph glyph-name="multiply" unicode="&#xd7;" horiz-adv-x="1331" 
d="M737 702l391 -391l-71 -71l-391 391l-392 -391l-71 71l391 391l-391 392l71 71l392 -391l391 391l71 -71z" />
    <glyph glyph-name="Oslash" unicode="&#xd8;" horiz-adv-x="1651" 
d="M367 119c-90 66 -160.001 149.335 -210.001 250.002s-75 216 -75 346c0 63.333 7.33301 125.666 22 186.999s36.167 119.666 64.5 174.999s63 106.166 104 152.499s88 86.5 141 120.5s111.667 60.5 176 79.5s133.5 28.5 207.5 28.5c72 0 140.5 -7.5 205.5 -22.5
s125.5 -37.5 181.5 -67.5l131 201l82 -53l-129 -197c46.667 -32.667 88.5 -70.5 125.5 -113.5s68.5 -90.167 94.5 -141.5s46 -106.833 60 -166.5s21 -122.5 21 -188.5c0 -63.333 -7.33301 -125.666 -22 -186.999s-36.167 -119.333 -64.5 -174
s-63.166 -105.167 -104.499 -151.5s-88.5 -86.333 -141.5 -120s-111.5 -60 -175.5 -79s-133 -28.5 -207 -28.5c-76.667 0 -149 8.16699 -217 24.5s-130.667 40.5 -188 72.5l-146 -222l-82 54zM853.999 59.002c74 0 141.668 13.332 203.001 39.999
s114.166 65.334 158.499 116.001s78.833 112.5 103.5 185.5s37 155.833 37 248.5c0 112 -14.167 214.667 -42.5 308s-70.166 173 -125.499 239l-668 -1022c43.333 -37.333 92.666 -65.833 147.999 -85.5s117.333 -29.5 186 -29.5zM295 782.001
c0 -108 12.665 -207.832 37.998 -299.499s64 -170.5 116 -236.5l667 1018c-43.333 32.667 -91.166 58.167 -143.499 76.5s-110.833 27.5 -175.5 27.5c-74 0 -141.667 -13.167 -203 -39.5s-114.166 -64.5 -158.499 -114.5s-78.833 -111.333 -103.5 -184
s-37 -155.334 -37 -248.001z" />
    <glyph glyph-name="Ugrave" unicode="&#xd9;" horiz-adv-x="1454" 
d="M1169 1042c0 56.667 -0.661133 106.166 -1.99414 148.499s-3.33301 79 -6 110s-5.66699 56.833 -9 77.5s-7 38 -11 52v4h178v-4c-4 -14 -7.83301 -31.333 -11.5 -52s-6.66699 -46.5 -9 -77.5s-4.33301 -67.667 -6 -110s-2.5 -91.833 -2.5 -148.5v-540
c0 -95.333 -13.667 -176.666 -41 -243.999s-65.333 -122.5 -114 -165.5s-107 -74.333 -175 -94s-142.333 -29.5 -223 -29.5s-155.834 9.33301 -225.501 28s-130.334 48.834 -182.001 90.501s-92.167 95.667 -121.5 162s-44 147.166 -44 242.499v550
c0 56.667 -0.666992 106.167 -2 148.5s-3.33301 79 -6 110s-5.83398 56.833 -9.50098 77.5s-7.5 38 -11.5 52v4h240v-4c-4 -14 -7.83301 -31.333 -11.5 -52s-6.83398 -46.5 -9.50098 -77.5s-4.66699 -67.667 -6 -110s-2 -91.833 -2 -148.5v-561
c0 -79.333 11.833 -144.833 35.5 -196.5s54.834 -92.667 93.501 -123s82.667 -51.5 132 -63.5s99.666 -18 150.999 -18s101.666 6 150.999 18s93.166 33.167 131.499 63.5s69.333 71.333 93 123s35.5 117.167 35.5 196.5v561zM588.006 1887
c38 -35.333 77.667 -70.333 119 -105l118.5 -96c43.667 -34 87.167 -65.333 130.5 -94l-22 -37c-23.333 12 -47.333 23.5 -72 34.5l-74.5 32.5l-73.5 30l-68 26l-150 53z" />
    <glyph glyph-name="Uacute" unicode="&#xda;" horiz-adv-x="1454" 
d="M1169 1042c0 56.667 -0.661133 106.166 -1.99414 148.499s-3.33301 79 -6 110s-5.66699 56.833 -9 77.5s-7 38 -11 52v4h178v-4c-4 -14 -7.83301 -31.333 -11.5 -52s-6.66699 -46.5 -9 -77.5s-4.33301 -67.667 -6 -110s-2.5 -91.833 -2.5 -148.5v-540
c0 -95.333 -13.667 -176.666 -41 -243.999s-65.333 -122.5 -114 -165.5s-107 -74.333 -175 -94s-142.333 -29.5 -223 -29.5s-155.834 9.33301 -225.501 28s-130.334 48.834 -182.001 90.501s-92.167 95.667 -121.5 162s-44 147.166 -44 242.499v550
c0 56.667 -0.666992 106.167 -2 148.5s-3.33301 79 -6 110s-5.83398 56.833 -9.50098 77.5s-7.5 38 -11.5 52v4h240v-4c-4 -14 -7.83301 -31.333 -11.5 -52s-6.83398 -46.5 -9.50098 -77.5s-4.66699 -67.667 -6 -110s-2 -91.833 -2 -148.5v-561
c0 -79.333 11.833 -144.833 35.5 -196.5s54.834 -92.667 93.501 -123s82.667 -51.5 132 -63.5s99.666 -18 150.999 -18s101.666 6 150.999 18s93.166 33.167 131.499 63.5s69.333 71.333 93 123s35.5 117.167 35.5 196.5v561zM997.006 1731l-150 -53l-69 -26
c-24 -9.33301 -48.333 -19.333 -73 -30l-74.5 -32.5c-25 -11 -48.833 -22.5 -71.5 -34.5l-22 37c43.333 28.667 86.5 60 129.5 94l118.5 96l120 105z" />
    <glyph glyph-name="Ucircumflex" unicode="&#xdb;" horiz-adv-x="1454" 
d="M1169 1042c0 56.667 -0.661133 106.166 -1.99414 148.499s-3.33301 79 -6 110s-5.66699 56.833 -9 77.5s-7 38 -11 52v4h178v-4c-4 -14 -7.83301 -31.333 -11.5 -52s-6.66699 -46.5 -9 -77.5s-4.33301 -67.667 -6 -110s-2.5 -91.833 -2.5 -148.5v-540
c0 -95.333 -13.667 -176.666 -41 -243.999s-65.333 -122.5 -114 -165.5s-107 -74.333 -175 -94s-142.333 -29.5 -223 -29.5s-155.834 9.33301 -225.501 28s-130.334 48.834 -182.001 90.501s-92.167 95.667 -121.5 162s-44 147.166 -44 242.499v550
c0 56.667 -0.666992 106.167 -2 148.5s-3.33301 79 -6 110s-5.83398 56.833 -9.50098 77.5s-7.5 38 -11.5 52v4h240v-4c-4 -14 -7.83301 -31.333 -11.5 -52s-6.83398 -46.5 -9.50098 -77.5s-4.66699 -67.667 -6 -110s-2 -91.833 -2 -148.5v-561
c0 -79.333 11.833 -144.833 35.5 -196.5s54.834 -92.667 93.501 -123s82.667 -51.5 132 -63.5s99.666 -18 150.999 -18s101.666 6 150.999 18s93.166 33.167 131.499 63.5s69.333 71.333 93 123s35.5 117.167 35.5 196.5v561zM748.006 1887l120.003 -105l119 -96
c43.333 -34 86.666 -65.333 129.999 -94l-23 -37l-90 43.5l-92.5 43.5c-30.333 14 -59.5 26.833 -87.5 38.5s-53.333 21.5 -76 29.5c-22.667 -8 -47.834 -17.833 -75.501 -29.5l-87 -38l-92.5 -43l-91 -44.5l-23 37c43.333 28.667 86.666 60 129.999 94l119 96z" />
    <glyph glyph-name="Udieresis" unicode="&#xdc;" horiz-adv-x="1454" 
d="M1169 1042c0 56.667 -0.661133 106.166 -1.99414 148.499s-3.33301 79 -6 110s-5.66699 56.833 -9 77.5s-7 38 -11 52v4h178v-4c-4 -14 -7.83301 -31.333 -11.5 -52s-6.66699 -46.5 -9 -77.5s-4.33301 -67.667 -6 -110s-2.5 -91.833 -2.5 -148.5v-540
c0 -95.333 -13.667 -176.666 -41 -243.999s-65.333 -122.5 -114 -165.5s-107 -74.333 -175 -94s-142.333 -29.5 -223 -29.5s-155.834 9.33301 -225.501 28s-130.334 48.834 -182.001 90.501s-92.167 95.667 -121.5 162s-44 147.166 -44 242.499v550
c0 56.667 -0.666992 106.167 -2 148.5s-3.33301 79 -6 110s-5.83398 56.833 -9.50098 77.5s-7.5 38 -11.5 52v4h240v-4c-4 -14 -7.83301 -31.333 -11.5 -52s-6.83398 -46.5 -9.50098 -77.5s-4.66699 -67.667 -6 -110s-2 -91.833 -2 -148.5v-561
c0 -79.333 11.833 -144.833 35.5 -196.5s54.834 -92.667 93.501 -123s82.667 -51.5 132 -63.5s99.666 -18 150.999 -18s101.666 6 150.999 18s93.166 33.167 131.499 63.5s69.333 71.333 93 123s35.5 117.167 35.5 196.5v561zM472.006 1723c0 12.667 2.33301 24.667 7 36
s11.167 21.166 19.5 29.499s18 14.833 29 19.5s23.167 7 36.5 7c12.667 0 24.667 -2.33301 36 -7s21.166 -11.167 29.499 -19.5s14.833 -18.166 19.5 -29.499s7 -23.333 7 -36s-2.33301 -24.667 -7 -36s-11.167 -21.166 -19.5 -29.499s-18.166 -14.833 -29.499 -19.5
s-23.333 -7 -36 -7c-13.333 0 -25.5 2.33301 -36.5 7s-20.667 11.167 -29 19.5s-14.833 18.166 -19.5 29.499s-7 23.333 -7 36zM840.006 1723c0 12.667 2.33301 24.667 7 36s11.167 21.166 19.5 29.499s18.166 14.833 29.499 19.5s23.333 7 36 7s24.667 -2.33301 36 -7
s21.166 -11.167 29.499 -19.5s14.833 -18.166 19.5 -29.499s7 -23.333 7 -36s-2.33301 -24.667 -7 -36s-11.167 -21.166 -19.5 -29.499s-18.166 -14.833 -29.499 -19.5s-23.333 -7 -36 -7s-24.667 2.33301 -36 7s-21.166 11.167 -29.499 19.5s-14.833 18.166 -19.5 29.499
s-7 23.333 -7 36z" />
    <glyph glyph-name="Yacute" unicode="&#xdd;" horiz-adv-x="1272" 
d="M727 688l0.00195312 -296.999c0 -56.667 0.666992 -106.167 2 -148.5s3.33301 -78.833 6 -109.5s5.83398 -56.334 9.50098 -77.001s7.5 -38 11.5 -52v-4h-240v4c4 14 7.83301 31.333 11.5 52s6.66699 46.334 9 77.001s4.33301 67.167 6 109.5s2.5 91.833 2.5 148.5v277
l-447 608c-15.333 20.667 -30.5 39.667 -45.5 57s-29.167 32.5 -42.5 45.5s-25.333 23.833 -36 32.5s-19 15 -25 19v4h303c0 -15.333 6.5 -40.5 19.5 -75.5s36.5 -76.167 70.5 -123.5l328 -449l321 469l34 51c11.333 17.333 21.666 34 30.999 50s16.833 30.667 22.5 44
s8.5 24.666 8.5 33.999h195v-4c-14.667 -12.667 -34.334 -31.5 -59.001 -56.5s-51.334 -58.167 -80.001 -99.5zM907.002 1731l-150 -53l-69 -26c-24 -9.33301 -48.333 -19.333 -73 -30l-74.5 -32.5c-25 -11 -48.833 -22.5 -71.5 -34.5l-22 37
c43.333 28.667 86.5 60 129.5 94l118.5 96l120 105z" />
    <glyph glyph-name="Thorn" unicode="&#xde;" horiz-adv-x="1069" 
d="M383 1430c-3.33301 -12.667 -6.66602 -27.668 -9.99902 -45.001s-6.33301 -38.333 -9 -63s-4.83398 -53.167 -6.50098 -85.5s-2.83398 -69.833 -3.50098 -112.5c24.667 2 53.167 4.66699 85.5 8s69.5 5 111.5 5c64 0 123.167 -8.5 177.5 -25.5s101.5 -41.667 141.5 -74
s71.167 -71.833 93.5 -118.5s33.5 -99.667 33.5 -159c0 -72.667 -14.833 -135.834 -44.5 -189.501s-70 -98.167 -121 -133.5s-110.167 -61.666 -177.5 -78.999s-138.666 -26 -213.999 -26c-14 0 -28.167 0.333008 -42.5 1s-28.833 1.66699 -43.5 3v-2
c0 -28.667 0.833008 -60.5 2.5 -95.5s3.66699 -68.5 6 -100.5s5.33301 -60.333 9 -85s7.5 -41 11.5 -49v-4h-240v4c2.66699 5.33301 5.33398 15.5 8.00098 30.5s5 33.167 7 54.5s3.83301 44.833 5.5 70.5s3.16699 51.834 4.5 78.501s2.33301 53.167 3 79.5s1 50.833 1 73.5
v651c0 56.667 -0.666992 106.167 -2 148.5s-3.33301 79 -6 110s-5.83398 56.833 -9.50098 77.5s-7.5 38 -11.5 52v4h240v-4zM354 413.999c18.667 -3.33301 36.665 -6.00098 53.998 -8.00098s34.333 -3 51 -3c51.333 0 97.833 7.16699 139.5 21.5s77.167 35.833 106.5 64.5
s52 64.834 68 108.501s24 95.167 24 154.5c0 48 -5.66699 91.5 -17 130.5s-28.166 72.333 -50.499 100s-50.5 49 -84.5 64s-73.667 22.5 -119 22.5c-28.667 0 -53.667 -1.16699 -75 -3.5s-39.333 -4.83301 -54 -7.5c-17.333 -3.33301 -31.666 -7 -42.999 -11v-5v-628z" />
    <glyph glyph-name="germandbls" unicode="&#xdf;" horiz-adv-x="1524" 
d="M618 866l-20 -0.00292969c-4 11.333 -10.5 25.666 -19.5 42.999s-21 34.333 -36 51s-33.5 30.834 -55.5 42.501s-48.333 17.5 -79 17.5c-23.333 0 -44.166 -3.83301 -62.499 -11.5s-33.833 -18.167 -46.5 -31.5s-22.334 -29.166 -29.001 -47.499s-10 -38.166 -10 -59.499
c0 -34.667 10.5 -67.667 31.5 -99s47.167 -62.5 78.5 -93.5s65.333 -62.167 102 -93.5s70.667 -64 102 -98s57.5 -70 78.5 -108s31.5 -78.667 31.5 -122c0 -32 -5.83301 -65 -17.5 -99s-30.5 -64.667 -56.5 -92s-59.333 -49.833 -100 -67.5s-90 -26.5 -148 -26.5
c-32 0 -62.5 2.66699 -91.5 8s-55.667 11.833 -80 19.5s-46 16 -65 25s-34.833 17.5 -47.5 25.5l18 189h21c6.66699 -23.333 16.5 -46.666 29.5 -69.999s29 -44.5 48 -63.5s41.333 -34.333 67 -46s55.167 -17.5 88.5 -17.5c23.333 0 45.333 3.83301 66 11.5
s38.5 18.5 53.5 32.5s26.833 31.167 35.5 51.5s13 43.166 13 68.499c0 30 -6 57.833 -18 83.5s-28 50.334 -48 74.001s-42.5 46.5 -67.5 68.5l-77.5 67c-26.667 22.667 -52.5 45.834 -77.5 69.501s-47.5 49.167 -67.5 76.5s-36 56.5 -48 87.5s-18 65.167 -18 102.5
c0 39.333 8.33301 74.666 25 105.999s38.667 57.833 66 79.5s58.666 38.334 93.999 50.001s72 17.5 110 17.5c28 0 54.167 -2 78.5 -6s46.333 -8.83301 66 -14.5s36.834 -11.334 51.501 -17.001l36 -13.5zM1380 865.997l-20 -0.00292969
c-4 11.333 -10.5 25.666 -19.5 42.999s-21 34.333 -36 51s-33.5 30.834 -55.5 42.501s-48.333 17.5 -79 17.5c-23.333 0 -44.166 -3.83301 -62.499 -11.5s-33.833 -18.167 -46.5 -31.5s-22.334 -29.166 -29.001 -47.499s-10 -38.166 -10 -59.499
c0 -34.667 10.5 -67.667 31.5 -99s47.167 -62.5 78.5 -93.5s65.333 -62.167 102 -93.5s70.667 -64 102 -98s57.5 -70 78.5 -108s31.5 -78.667 31.5 -122c0 -32 -5.83301 -65 -17.5 -99s-30.5 -64.667 -56.5 -92s-59.333 -49.833 -100 -67.5s-90 -26.5 -148 -26.5
c-32 0 -62.5 2.66699 -91.5 8s-55.667 11.833 -80 19.5s-46 16 -65 25s-34.833 17.5 -47.5 25.5l18 189h21c6.66699 -23.333 16.5 -46.666 29.5 -69.999s29 -44.5 48 -63.5s41.333 -34.333 67 -46s55.167 -17.5 88.5 -17.5c23.333 0 45.333 3.83301 66 11.5
s38.5 18.5 53.5 32.5s26.833 31.167 35.5 51.5s13 43.166 13 68.499c0 30 -6 57.833 -18 83.5s-28 50.334 -48 74.001s-42.5 46.5 -67.5 68.5l-77.5 67c-26.667 22.667 -52.5 45.834 -77.5 69.501s-47.5 49.167 -67.5 76.5s-36 56.5 -48 87.5s-18 65.167 -18 102.5
c0 39.333 8.33301 74.666 25 105.999s38.667 57.833 66 79.5s58.666 38.334 93.999 50.001s72 17.5 110 17.5c28 0 54.167 -2 78.5 -6s46.333 -8.83301 66 -14.5s36.834 -11.334 51.501 -17.001l36 -13.5z" />
    <glyph glyph-name="agrave" unicode="&#xe0;" horiz-adv-x="1151" 
d="M784 338l-67.502 -0.00390625h-88.5h-99c-34 0 -66.333 -0.166992 -97 -0.5s-58.667 -0.666016 -84 -0.999023s-45 -0.5 -59 -0.5l-37 -78l-41 -83.5c-11.333 -23.667 -20.666 -44.5 -27.999 -62.5s-12.666 -33.5 -15.999 -46.5s-5 -25.167 -5 -36.5
c0 -7.33301 0.333008 -12.833 1 -16.5s1.66699 -6.5 3 -8.5v-4h-176v4c4.66699 4.66699 12 14.834 22 30.501s21.5 34.834 34.5 57.501l42 77l44.5 89l408 842h75l400 -842c15.333 -32 30.833 -62.667 46.5 -92l43.5 -78.5c13.333 -23 25 -42 35 -57
s16.667 -23.833 20 -26.5v-4h-256c1.33301 5.33301 2 10.166 2 14.499v14.5c0 14.667 -3.16699 32.334 -9.5 53.001s-14 41.834 -23 63.501s-18.333 42.5 -28 62.5l-23.5 50zM327.998 415.996h61c28 0 57.833 0.166992 89.5 0.5s63.5 0.5 95.5 0.5s63 0.166992 93 0.5
s57 0.5 81 0.5l-207 442zM442.998 1510c38 -35.333 77.667 -70.333 119 -105l118.5 -96c43.667 -34 87.167 -65.333 130.5 -94l-22 -37c-23.333 12 -47.333 23.5 -72 34.5l-74.5 32.5l-73.5 30l-68 26l-150 53z" />
    <glyph glyph-name="aacute" unicode="&#xe1;" horiz-adv-x="1151" 
d="M784 338l-67.502 -0.00390625h-88.5h-99c-34 0 -66.333 -0.166992 -97 -0.5s-58.667 -0.666016 -84 -0.999023s-45 -0.5 -59 -0.5l-37 -78l-41 -83.5c-11.333 -23.667 -20.666 -44.5 -27.999 -62.5s-12.666 -33.5 -15.999 -46.5s-5 -25.167 -5 -36.5
c0 -7.33301 0.333008 -12.833 1 -16.5s1.66699 -6.5 3 -8.5v-4h-176v4c4.66699 4.66699 12 14.834 22 30.501s21.5 34.834 34.5 57.501l42 77l44.5 89l408 842h75l400 -842c15.333 -32 30.833 -62.667 46.5 -92l43.5 -78.5c13.333 -23 25 -42 35 -57
s16.667 -23.833 20 -26.5v-4h-256c1.33301 5.33301 2 10.166 2 14.499v14.5c0 14.667 -3.16699 32.334 -9.5 53.001s-14 41.834 -23 63.501s-18.333 42.5 -28 62.5l-23.5 50zM327.998 415.996h61c28 0 57.833 0.166992 89.5 0.5s63.5 0.5 95.5 0.5s63 0.166992 93 0.5
s57 0.5 81 0.5l-207 442zM808.998 1354l-150 -53l-69 -26c-24 -9.33301 -48.333 -19.333 -73 -30l-74.5 -32.5c-25 -11 -48.833 -22.5 -71.5 -34.5l-22 37c43.333 28.667 86.5 60 129.5 94l118.5 96l120 105z" />
    <glyph glyph-name="acircumflex" unicode="&#xe2;" horiz-adv-x="1151" 
d="M784 338l-67.502 -0.00390625h-88.5h-99c-34 0 -66.333 -0.166992 -97 -0.5s-58.667 -0.666016 -84 -0.999023s-45 -0.5 -59 -0.5l-37 -78l-41 -83.5c-11.333 -23.667 -20.666 -44.5 -27.999 -62.5s-12.666 -33.5 -15.999 -46.5s-5 -25.167 -5 -36.5
c0 -7.33301 0.333008 -12.833 1 -16.5s1.66699 -6.5 3 -8.5v-4h-176v4c4.66699 4.66699 12 14.834 22 30.501s21.5 34.834 34.5 57.501l42 77l44.5 89l408 842h75l400 -842c15.333 -32 30.833 -62.667 46.5 -92l43.5 -78.5c13.333 -23 25 -42 35 -57
s16.667 -23.833 20 -26.5v-4h-256c1.33301 5.33301 2 10.166 2 14.499v14.5c0 14.667 -3.16699 32.334 -9.5 53.001s-14 41.834 -23 63.501s-18.333 42.5 -28 62.5l-23.5 50zM327.998 415.996h61c28 0 57.833 0.166992 89.5 0.5s63.5 0.5 95.5 0.5s63 0.166992 93 0.5
s57 0.5 81 0.5l-207 442zM579.998 1510l120.003 -105l119 -96c43.333 -34 86.666 -65.333 129.999 -94l-23 -37l-90 43.5l-92.5 43.5c-30.333 14 -59.5 26.833 -87.5 38.5s-53.333 21.5 -76 29.5c-22.667 -8 -47.834 -17.833 -75.501 -29.5l-87 -38l-92.5 -43l-91 -44.5
l-23 37c43.333 28.667 86.666 60 129.999 94l119 96z" />
    <glyph glyph-name="atilde" unicode="&#xe3;" horiz-adv-x="1151" 
d="M784 338l-67.502 -0.00390625h-88.5h-99c-34 0 -66.333 -0.166992 -97 -0.5s-58.667 -0.666016 -84 -0.999023s-45 -0.5 -59 -0.5l-37 -78l-41 -83.5c-11.333 -23.667 -20.666 -44.5 -27.999 -62.5s-12.666 -33.5 -15.999 -46.5s-5 -25.167 -5 -36.5
c0 -7.33301 0.333008 -12.833 1 -16.5s1.66699 -6.5 3 -8.5v-4h-176v4c4.66699 4.66699 12 14.834 22 30.501s21.5 34.834 34.5 57.501l42 77l44.5 89l408 842h75l400 -842c15.333 -32 30.833 -62.667 46.5 -92l43.5 -78.5c13.333 -23 25 -42 35 -57
s16.667 -23.833 20 -26.5v-4h-256c1.33301 5.33301 2 10.166 2 14.499v14.5c0 14.667 -3.16699 32.334 -9.5 53.001s-14 41.834 -23 63.501s-18.333 42.5 -28 62.5l-23.5 50zM327.998 415.996h61c28 0 57.833 0.166992 89.5 0.5s63.5 0.5 95.5 0.5s63 0.166992 93 0.5
s57 0.5 81 0.5l-207 442zM872.998 1428c-15.333 -28.667 -29.665 -53.5 -42.998 -74.5s-27 -38.5 -41 -52.5s-29.167 -24.333 -45.5 -31s-34.5 -10 -54.5 -10c-17.333 0 -38 3.83301 -62 11.5s-48.667 16 -74 25l-72 25c-22.667 7.66699 -41 11.5 -55 11.5
c-23.333 0 -43.666 -6 -60.999 -18s-34.333 -32.333 -51 -61l-29 16c14.667 28.667 28.667 53.5 42 74.5s27.166 38.5 41.499 52.5s29.5 24.333 45.5 31s34.333 10 55 10c16.667 0 37.167 -3.83301 61.5 -11.5s49.166 -16.167 74.499 -25.5l72 -25.5
c22.667 -7.66699 41 -11.5 55 -11.5c23.333 0 43.666 6.16699 60.999 18.5s34.333 32.833 51 61.5l29 -16v0z" />
    <glyph glyph-name="adieresis" unicode="&#xe4;" horiz-adv-x="1151" 
d="M784 338l-67.502 -0.00390625h-88.5h-99c-34 0 -66.333 -0.166992 -97 -0.5s-58.667 -0.666016 -84 -0.999023s-45 -0.5 -59 -0.5l-37 -78l-41 -83.5c-11.333 -23.667 -20.666 -44.5 -27.999 -62.5s-12.666 -33.5 -15.999 -46.5s-5 -25.167 -5 -36.5
c0 -7.33301 0.333008 -12.833 1 -16.5s1.66699 -6.5 3 -8.5v-4h-176v4c4.66699 4.66699 12 14.834 22 30.501s21.5 34.834 34.5 57.501l42 77l44.5 89l408 842h75l400 -842c15.333 -32 30.833 -62.667 46.5 -92l43.5 -78.5c13.333 -23 25 -42 35 -57
s16.667 -23.833 20 -26.5v-4h-256c1.33301 5.33301 2 10.166 2 14.499v14.5c0 14.667 -3.16699 32.334 -9.5 53.001s-14 41.834 -23 63.501s-18.333 42.5 -28 62.5l-23.5 50zM327.998 415.996h61c28 0 57.833 0.166992 89.5 0.5s63.5 0.5 95.5 0.5s63 0.166992 93 0.5
s57 0.5 81 0.5l-207 442zM303.998 1346c0 12.667 2.33301 24.667 7 36s11.167 21.166 19.5 29.499s18 14.833 29 19.5s23.167 7 36.5 7c12.667 0 24.667 -2.33301 36 -7s21.166 -11.167 29.499 -19.5s14.833 -18.166 19.5 -29.499s7 -23.333 7 -36s-2.33301 -24.667 -7 -36
s-11.167 -21.166 -19.5 -29.499s-18.166 -14.833 -29.499 -19.5s-23.333 -7 -36 -7c-13.333 0 -25.5 2.33301 -36.5 7s-20.667 11.167 -29 19.5s-14.833 18.166 -19.5 29.499s-7 23.333 -7 36zM671.998 1346c0 12.667 2.33301 24.667 7 36s11.167 21.166 19.5 29.499
s18.166 14.833 29.499 19.5s23.333 7 36 7s24.667 -2.33301 36 -7s21.166 -11.167 29.499 -19.5s14.833 -18.166 19.5 -29.499s7 -23.333 7 -36s-2.33301 -24.667 -7 -36s-11.167 -21.166 -19.5 -29.499s-18.166 -14.833 -29.499 -19.5s-23.333 -7 -36 -7
s-24.667 2.33301 -36 7s-21.166 11.167 -29.499 19.5s-14.833 18.166 -19.5 29.499s-7 23.333 -7 36z" />
    <glyph glyph-name="aring" unicode="&#xe5;" horiz-adv-x="1151" 
d="M784 338l-67.502 -0.00390625h-88.5h-99c-34 0 -66.333 -0.166992 -97 -0.5s-58.667 -0.666016 -84 -0.999023s-45 -0.5 -59 -0.5l-37 -78l-41 -83.5c-11.333 -23.667 -20.666 -44.5 -27.999 -62.5s-12.666 -33.5 -15.999 -46.5s-5 -25.167 -5 -36.5
c0 -7.33301 0.333008 -12.833 1 -16.5s1.66699 -6.5 3 -8.5v-4h-176v4c4.66699 4.66699 12 14.834 22 30.501s21.5 34.834 34.5 57.501l42 77l44.5 89l408 842h75l400 -842c15.333 -32 30.833 -62.667 46.5 -92l43.5 -78.5c13.333 -23 25 -42 35 -57
s16.667 -23.833 20 -26.5v-4h-256c1.33301 5.33301 2 10.166 2 14.499v14.5c0 14.667 -3.16699 32.334 -9.5 53.001s-14 41.834 -23 63.501s-18.333 42.5 -28 62.5l-23.5 50zM327.998 415.996h61c28 0 57.833 0.166992 89.5 0.5s63.5 0.5 95.5 0.5s63 0.166992 93 0.5
s57 0.5 81 0.5l-207 442zM442.998 1389c0 -19.333 3.5 -37.166 10.5 -53.499s16.833 -30.833 29.5 -43.5s27.167 -22.5 43.5 -29.5s34.166 -10.5 53.499 -10.5c18.667 0 36.334 3.5 53.001 10.5s31.334 16.833 44.001 29.5s22.5 27.167 29.5 43.5s10.5 34.166 10.5 53.499
c0 18.667 -3.5 36.334 -10.5 53.001s-16.833 31.334 -29.5 44.001s-27.334 22.5 -44.001 29.5s-34.334 10.5 -53.001 10.5c-19.333 0 -37.166 -3.5 -53.499 -10.5s-30.833 -16.833 -43.5 -29.5s-22.5 -27.334 -29.5 -44.001s-10.5 -34.334 -10.5 -53.001zM350.998 1389
c0 32 6 61.833 18 89.5s28.333 51.834 49 72.501s44.834 37 72.501 49s57.5 18 89.5 18s61.833 -6 89.5 -18s51.834 -28.333 72.501 -49s37 -44.834 49 -72.501s18 -57.5 18 -89.5s-6 -61.833 -18 -89.5s-28.333 -52 -49 -73s-44.834 -37.5 -72.501 -49.5
s-57.5 -18 -89.5 -18s-61.833 6 -89.5 18s-51.834 28.5 -72.501 49.5s-37 45.333 -49 73s-18 57.5 -18 89.5z" />
    <glyph glyph-name="ae" unicode="&#xe6;" horiz-adv-x="1427" 
d="M709 1075c65.333 0 131.999 0.169922 199.999 0.50293s130.833 1 188.5 2s107.334 2.16699 149.001 3.5s69.167 3.33301 82.5 6l-39 -108c-17.333 4.66699 -37.333 9 -60 13c-19.333 3.33301 -43.5 6.5 -72.5 9.5s-61.833 4.5 -98.5 4.5
c-13.333 0 -28.666 -0.5 -45.999 -1.5s-34 -2.16699 -50 -3.5l-58 -4v-395c54 0.666992 102.667 2 146 4s80.333 4.66699 111 8c36 2.66699 67.667 6.33398 95 11.001l-24 -119c-36.667 4.66699 -73.667 8.66699 -111 12c-32 3.33301 -67.167 6.16602 -105.5 8.49902
s-75.5 3.5 -111.5 3.5v-454c62 0 119 2.5 171 7.5s97.333 10.5 136 16.5c45.333 7.33301 86.333 15.666 123 24.999l-22 -131c-10 0.666992 -26.167 1.5 -48.5 2.5s-45.833 1.66699 -70.5 2s-47.667 0.666016 -69 0.999023s-36 0.5 -44 0.5h-379v4
c4.66699 14 8.83398 32 12.501 54s6.66699 49.167 9 81.5s4.16602 70.833 5.49902 115.5s2 97 2 157v112h-158h-157l-160 -274l-50 -83.5c-14 -23 -25.5 -43 -34.5 -60s-15.667 -31.5 -20 -43.5s-6.5 -23.333 -6.5 -34c0 -7.33301 0.5 -12.833 1.5 -16.5
s2.16699 -6.5 3.5 -8.5v-4h-211v4c9.33301 4.66699 21.166 14.667 35.499 30s30 34.166 47 56.499s34.667 47.333 53 75s36.5 56.5 54.5 86.5l395 655c15.333 25.333 28.333 48.5 39 69.5l27 53.5c8 17.333 14.667 32.333 20 45h99zM458.999 598.003h4h130.5
c47.667 0 93.5 0.666992 137.5 2v401h-35z" />
    <glyph glyph-name="ccedilla" unicode="&#xe7;" horiz-adv-x="1065" 
d="M868 -285c0 -26 -6.33301 -49.6689 -19 -71.002s-30.167 -39.5 -52.5 -54.5s-48.833 -26.5 -79.5 -34.5s-63.667 -12 -99 -12c-40.667 0 -79.167 4.5 -115.5 13.5s-70.166 21.5 -101.499 37.5l19 46l29 -13.5c10.667 -5 22.5 -9.5 35.5 -13.5s27.667 -7.33301 44 -10
s34.833 -4 55.5 -4c44 0 79.833 10.667 107.5 32s41.5 49.333 41.5 84c0 38 -13 66 -39 84s-58 27 -96 27c-6 0 -14 -0.333008 -24 -1s-17.667 -1.66699 -23 -3l59 162c-78 4 -149.833 19.333 -215.5 46s-122.334 63.667 -170.001 111s-84.667 104.5 -111 171.5
s-39.5 143.167 -39.5 228.5c0 78.667 15.333 151.667 46 219s73 125.833 127 175.5s117.833 88.5 191.5 116.5s153.5 42 239.5 42c19.333 0 39.833 -0.833008 61.5 -2.5s43.167 -4.16699 64.5 -7.5s42 -7.16602 62 -11.499s38.667 -8.83301 56 -13.5l75 -180l-12 -7
c-18 22 -39.5 42.333 -64.5 61s-52.333 34.5 -82 47.5s-60.834 23.167 -93.501 30.5s-66 11 -100 11c-55.333 0 -105.833 -9.66699 -151.5 -29s-84.667 -47.5 -117 -84.5s-57.5 -82.167 -75.5 -135.5s-27 -113.666 -27 -180.999c0 -76 8.66699 -146.833 26 -212.5
s43.333 -122.667 78 -171s78 -86.333 130 -114s112.667 -41.5 182 -41.5c33.333 0 66.166 4.16699 98.499 12.5s63 20.166 92 35.499s55.5 33.833 79.5 55.5s44.667 45.834 62 72.501l12 -6l-78 -186c-19.333 -8.66699 -41.166 -16.5 -65.499 -23.5
s-49.5 -12.833 -75.5 -17.5s-52.5 -8.16699 -79.5 -10.5s-52.5 -3.5 -76.5 -3.5h-6l-39 -111c8.66699 1.33301 16.834 2.33301 24.501 3s16.167 1 25.5 1c37.333 0 69 -4.83301 95 -14.5s47 -22 63 -37s27.667 -32.167 35 -51.5s11 -38.333 11 -57z" />
    <glyph glyph-name="egrave" unicode="&#xe8;" horiz-adv-x="856" 
d="M131 1075c65.333 0 132.329 0.169922 200.996 0.50293s132.334 1 191.001 2s109.167 2.16699 151.5 3.5s70.166 3.33301 83.499 6l-39 -108c-18 4.66699 -38.333 9 -61 13c-20 3.33301 -44.167 6.5 -72.5 9.5s-61.166 4.5 -98.499 4.5
c-13.333 0 -28.666 -0.5 -45.999 -1.5s-34 -2.16699 -50 -3.5l-57 -4v-395c54 0.666992 102.667 2 146 4s80.333 4.66699 111 8c36 2.66699 67.667 6.33398 95 11.001l-24 -119c-36.667 4.66699 -73.667 8.66699 -111 12c-32 3.33301 -67.333 6.16602 -106 8.49902
s-75.667 3.5 -111 3.5v-454c62 0 119 2.5 171 7.5s97.333 10.5 136 16.5c45.333 7.33301 86.333 15.666 123 24.999l-23 -131c-10 0.666992 -26.167 1.5 -48.5 2.5s-45.666 1.66699 -69.999 2s-47.166 0.666016 -68.499 0.999023s-36 0.5 -44 0.5h-379v4
c4.66699 14 8.83398 32 12.501 54s6.66699 49.167 9 81.5s4.16602 70.833 5.49902 115.5s2 97 2 157v252c0 60 -0.666992 112.167 -2 156.5s-3.16602 82.666 -5.49902 114.999s-5.33301 59.5 -9 81.5s-7.83398 40 -12.501 54v4v0zM299.996 1510
c38 -35.333 77.667 -70.333 119 -105l118.5 -96c43.667 -34 87.167 -65.333 130.5 -94l-22 -37c-23.333 12 -47.333 23.5 -72 34.5l-74.5 32.5l-73.5 30l-68 26l-150 53z" />
    <glyph glyph-name="eacute" unicode="&#xe9;" horiz-adv-x="856" 
d="M131 1075c65.333 0 132.329 0.169922 200.996 0.50293s132.334 1 191.001 2s109.167 2.16699 151.5 3.5s70.166 3.33301 83.499 6l-39 -108c-18 4.66699 -38.333 9 -61 13c-20 3.33301 -44.167 6.5 -72.5 9.5s-61.166 4.5 -98.499 4.5
c-13.333 0 -28.666 -0.5 -45.999 -1.5s-34 -2.16699 -50 -3.5l-57 -4v-395c54 0.666992 102.667 2 146 4s80.333 4.66699 111 8c36 2.66699 67.667 6.33398 95 11.001l-24 -119c-36.667 4.66699 -73.667 8.66699 -111 12c-32 3.33301 -67.333 6.16602 -106 8.49902
s-75.667 3.5 -111 3.5v-454c62 0 119 2.5 171 7.5s97.333 10.5 136 16.5c45.333 7.33301 86.333 15.666 123 24.999l-23 -131c-10 0.666992 -26.167 1.5 -48.5 2.5s-45.666 1.66699 -69.999 2s-47.166 0.666016 -68.499 0.999023s-36 0.5 -44 0.5h-379v4
c4.66699 14 8.83398 32 12.501 54s6.66699 49.167 9 81.5s4.16602 70.833 5.49902 115.5s2 97 2 157v252c0 60 -0.666992 112.167 -2 156.5s-3.16602 82.666 -5.49902 114.999s-5.33301 59.5 -9 81.5s-7.83398 40 -12.501 54v4v0zM665.996 1354l-150 -53l-69 -26
c-24 -9.33301 -48.333 -19.333 -73 -30l-74.5 -32.5c-25 -11 -48.833 -22.5 -71.5 -34.5l-22 37c43.333 28.667 86.5 60 129.5 94l118.5 96l120 105z" />
    <glyph glyph-name="ecircumflex" unicode="&#xea;" horiz-adv-x="856" 
d="M131 1075c65.333 0 132.329 0.169922 200.996 0.50293s132.334 1 191.001 2s109.167 2.16699 151.5 3.5s70.166 3.33301 83.499 6l-39 -108c-18 4.66699 -38.333 9 -61 13c-20 3.33301 -44.167 6.5 -72.5 9.5s-61.166 4.5 -98.499 4.5
c-13.333 0 -28.666 -0.5 -45.999 -1.5s-34 -2.16699 -50 -3.5l-57 -4v-395c54 0.666992 102.667 2 146 4s80.333 4.66699 111 8c36 2.66699 67.667 6.33398 95 11.001l-24 -119c-36.667 4.66699 -73.667 8.66699 -111 12c-32 3.33301 -67.333 6.16602 -106 8.49902
s-75.667 3.5 -111 3.5v-454c62 0 119 2.5 171 7.5s97.333 10.5 136 16.5c45.333 7.33301 86.333 15.666 123 24.999l-23 -131c-10 0.666992 -26.167 1.5 -48.5 2.5s-45.666 1.66699 -69.999 2s-47.166 0.666016 -68.499 0.999023s-36 0.5 -44 0.5h-379v4
c4.66699 14 8.83398 32 12.501 54s6.66699 49.167 9 81.5s4.16602 70.833 5.49902 115.5s2 97 2 157v252c0 60 -0.666992 112.167 -2 156.5s-3.16602 82.666 -5.49902 114.999s-5.33301 59.5 -9 81.5s-7.83398 40 -12.501 54v4v0zM436.996 1510l120.003 -105l119 -96
c43.333 -34 86.666 -65.333 129.999 -94l-23 -37l-90 43.5l-92.5 43.5c-30.333 14 -59.5 26.833 -87.5 38.5s-53.333 21.5 -76 29.5c-22.667 -8 -47.834 -17.833 -75.501 -29.5l-87 -38l-92.5 -43l-91 -44.5l-23 37c43.333 28.667 86.666 60 129.999 94l119 96z" />
    <glyph glyph-name="edieresis" unicode="&#xeb;" horiz-adv-x="856" 
d="M131 1075c65.333 0 132.329 0.169922 200.996 0.50293s132.334 1 191.001 2s109.167 2.16699 151.5 3.5s70.166 3.33301 83.499 6l-39 -108c-18 4.66699 -38.333 9 -61 13c-20 3.33301 -44.167 6.5 -72.5 9.5s-61.166 4.5 -98.499 4.5
c-13.333 0 -28.666 -0.5 -45.999 -1.5s-34 -2.16699 -50 -3.5l-57 -4v-395c54 0.666992 102.667 2 146 4s80.333 4.66699 111 8c36 2.66699 67.667 6.33398 95 11.001l-24 -119c-36.667 4.66699 -73.667 8.66699 -111 12c-32 3.33301 -67.333 6.16602 -106 8.49902
s-75.667 3.5 -111 3.5v-454c62 0 119 2.5 171 7.5s97.333 10.5 136 16.5c45.333 7.33301 86.333 15.666 123 24.999l-23 -131c-10 0.666992 -26.167 1.5 -48.5 2.5s-45.666 1.66699 -69.999 2s-47.166 0.666016 -68.499 0.999023s-36 0.5 -44 0.5h-379v4
c4.66699 14 8.83398 32 12.501 54s6.66699 49.167 9 81.5s4.16602 70.833 5.49902 115.5s2 97 2 157v252c0 60 -0.666992 112.167 -2 156.5s-3.16602 82.666 -5.49902 114.999s-5.33301 59.5 -9 81.5s-7.83398 40 -12.501 54v4v0zM160.996 1346
c0 12.667 2.33301 24.667 7 36s11.167 21.166 19.5 29.499s18 14.833 29 19.5s23.167 7 36.5 7c12.667 0 24.667 -2.33301 36 -7s21.166 -11.167 29.499 -19.5s14.833 -18.166 19.5 -29.499s7 -23.333 7 -36s-2.33301 -24.667 -7 -36s-11.167 -21.166 -19.5 -29.499
s-18.166 -14.833 -29.499 -19.5s-23.333 -7 -36 -7c-13.333 0 -25.5 2.33301 -36.5 7s-20.667 11.167 -29 19.5s-14.833 18.166 -19.5 29.499s-7 23.333 -7 36zM528.996 1346c0 12.667 2.33301 24.667 7 36s11.167 21.166 19.5 29.499s18.166 14.833 29.499 19.5
s23.333 7 36 7s24.667 -2.33301 36 -7s21.166 -11.167 29.499 -19.5s14.833 -18.166 19.5 -29.499s7 -23.333 7 -36s-2.33301 -24.667 -7 -36s-11.167 -21.166 -19.5 -29.499s-18.166 -14.833 -29.499 -19.5s-23.333 -7 -36 -7s-24.667 2.33301 -36 7
s-21.166 11.167 -29.499 19.5s-14.833 18.166 -19.5 29.499s-7 23.333 -7 36z" />
    <glyph glyph-name="igrave" unicode="&#xec;" horiz-adv-x="518" 
d="M168 664c0 60 -0.666992 112.167 -2 156.5s-3.16602 82.666 -5.49902 114.999s-5.33301 59.5 -9 81.5s-7.83398 40 -12.501 54v4h232v-4c-4.66699 -14 -8.83398 -32 -12.501 -54s-6.66699 -49.167 -9 -81.5s-4.16602 -70.666 -5.49902 -114.999s-2 -96.5 -2 -156.5v-252
c0 -60 0.666992 -112.333 2 -157s3.16602 -83.167 5.49902 -115.5s5.33301 -59.5 9 -81.5s7.83398 -40 12.501 -54v-4h-232v4c4.66699 14 8.83398 32 12.501 54s6.66699 49.167 9 81.5s4.16602 70.833 5.49902 115.5s2 97 2 157v252zM122 1510
c38 -35.333 77.667 -70.333 119 -105l118.5 -96c43.667 -34 87.167 -65.333 130.5 -94l-22 -37c-23.333 12 -47.333 23.5 -72 34.5l-74.5 32.5l-73.5 30l-68 26l-150 53z" />
    <glyph glyph-name="iacute" unicode="&#xed;" horiz-adv-x="518" 
d="M168 664c0 60 -0.666992 112.167 -2 156.5s-3.16602 82.666 -5.49902 114.999s-5.33301 59.5 -9 81.5s-7.83398 40 -12.501 54v4h232v-4c-4.66699 -14 -8.83398 -32 -12.501 -54s-6.66699 -49.167 -9 -81.5s-4.16602 -70.666 -5.49902 -114.999s-2 -96.5 -2 -156.5v-252
c0 -60 0.666992 -112.333 2 -157s3.16602 -83.167 5.49902 -115.5s5.33301 -59.5 9 -81.5s7.83398 -40 12.501 -54v-4h-232v4c4.66699 14 8.83398 32 12.501 54s6.66699 49.167 9 81.5s4.16602 70.833 5.49902 115.5s2 97 2 157v252zM488 1354l-150 -53l-69 -26
c-24 -9.33301 -48.333 -19.333 -73 -30l-74.5 -32.5c-25 -11 -48.833 -22.5 -71.5 -34.5l-22 37c43.333 28.667 86.5 60 129.5 94l118.5 96l120 105z" />
    <glyph glyph-name="icircumflex" unicode="&#xee;" horiz-adv-x="518" 
d="M168 664c0 60 -0.666992 112.167 -2 156.5s-3.16602 82.666 -5.49902 114.999s-5.33301 59.5 -9 81.5s-7.83398 40 -12.501 54v4h232v-4c-4.66699 -14 -8.83398 -32 -12.501 -54s-6.66699 -49.167 -9 -81.5s-4.16602 -70.666 -5.49902 -114.999s-2 -96.5 -2 -156.5v-252
c0 -60 0.666992 -112.333 2 -157s3.16602 -83.167 5.49902 -115.5s5.33301 -59.5 9 -81.5s7.83398 -40 12.501 -54v-4h-232v4c4.66699 14 8.83398 32 12.501 54s6.66699 49.167 9 81.5s4.16602 70.833 5.49902 115.5s2 97 2 157v252zM259 1510l120.003 -105l119 -96
c43.333 -34 86.666 -65.333 129.999 -94l-23 -37l-90 43.5l-92.5 43.5c-30.333 14 -59.5 26.833 -87.5 38.5s-53.333 21.5 -76 29.5c-22.667 -8 -47.834 -17.833 -75.501 -29.5l-87 -38l-92.5 -43l-91 -44.5l-23 37c43.333 28.667 86.666 60 129.999 94l119 96z" />
    <glyph glyph-name="idieresis" unicode="&#xef;" horiz-adv-x="518" 
d="M168 664c0 60 -0.666992 112.167 -2 156.5s-3.16602 82.666 -5.49902 114.999s-5.33301 59.5 -9 81.5s-7.83398 40 -12.501 54v4h232v-4c-4.66699 -14 -8.83398 -32 -12.501 -54s-6.66699 -49.167 -9 -81.5s-4.16602 -70.666 -5.49902 -114.999s-2 -96.5 -2 -156.5v-252
c0 -60 0.666992 -112.333 2 -157s3.16602 -83.167 5.49902 -115.5s5.33301 -59.5 9 -81.5s7.83398 -40 12.501 -54v-4h-232v4c4.66699 14 8.83398 32 12.501 54s6.66699 49.167 9 81.5s4.16602 70.833 5.49902 115.5s2 97 2 157v252zM-17 1346c0 12.667 2.33301 24.667 7 36
s11.167 21.166 19.5 29.499s18 14.833 29 19.5s23.167 7 36.5 7c12.667 0 24.667 -2.33301 36 -7s21.166 -11.167 29.499 -19.5s14.833 -18.166 19.5 -29.499s7 -23.333 7 -36s-2.33301 -24.667 -7 -36s-11.167 -21.166 -19.5 -29.499s-18.166 -14.833 -29.499 -19.5
s-23.333 -7 -36 -7c-13.333 0 -25.5 2.33301 -36.5 7s-20.667 11.167 -29 19.5s-14.833 18.166 -19.5 29.499s-7 23.333 -7 36zM351 1346c0 12.667 2.33301 24.667 7 36s11.167 21.166 19.5 29.499s18.166 14.833 29.499 19.5s23.333 7 36 7s24.667 -2.33301 36 -7
s21.166 -11.167 29.499 -19.5s14.833 -18.166 19.5 -29.499s7 -23.333 7 -36s-2.33301 -24.667 -7 -36s-11.167 -21.166 -19.5 -29.499s-18.166 -14.833 -29.499 -19.5s-23.333 -7 -36 -7s-24.667 2.33301 -36 7s-21.166 11.167 -29.499 19.5s-14.833 18.166 -19.5 29.499
s-7 23.333 -7 36z" />
    <glyph glyph-name="eth" unicode="&#xf0;" horiz-adv-x="1221" 
d="M14 596c15.333 -2 35.998 -3.16602 61.998 -3.49902s54 -0.5 84 -0.5v72c0 60 -0.666992 112.333 -2 157s-3.16602 83.334 -5.49902 116.001s-5.33301 60 -9 82s-7.83398 40 -12.501 54v4c16 -0.666992 31 -1 45 -1c12 -0.666992 23.667 -1 35 -1h25
c9.33301 0 26 0.333008 50 1s51.167 1.5 81.5 2.5s62.333 2 96 3s64.834 1.5 93.501 1.5c78 0 152.333 -9 223 -27s132.834 -47.5 186.501 -88.5s96.167 -94.667 127.5 -161s47 -148.166 47 -245.499c0 -104.667 -18 -193.334 -54 -266.001s-84.667 -131.834 -146 -177.501
s-132.5 -78.667 -213.5 -99s-166.5 -30.5 -256.5 -30.5c-21.333 0 -48 0.666992 -80 2l-98 4c-33.333 1.33301 -64.833 2.66602 -94.5 3.99902s-52.167 2 -67.5 2v4c4.66699 14 8.83398 32 12.501 54s6.66699 49.167 9 81.5s4.16602 70.833 5.49902 115.5s2 97 2 157v100
l-158 -6zM337.998 1004l-2.00391 -158.005c0 -22 -0.166992 -44.5 -0.5 -67.5l-1 -68c-0.333008 -22.333 -0.5 -43.666 -0.5 -63.999v-54.5c75.333 0 133.333 1.33301 174 4s69.334 6 86.001 10l-19 -102c-16 0.666992 -35.667 1.66699 -59 3c-20 1.33301 -45 2.33301 -75 3
s-65.667 1.33398 -107 2.00098c0 -35.333 0.166992 -73.5 0.5 -114.5s0.833008 -81.667 1.5 -122s1.66699 -78.666 3 -114.999s3 -67.166 5 -92.499c6.66699 -1.33301 15.334 -2.5 26.001 -3.5l33.5 -3c11.667 -1 23.167 -1.66699 34.5 -2s21 -0.5 29 -0.5
c36.667 0 73.834 2.33301 111.501 7s74 13.5 109 26.5s67.833 30.833 98.5 53.5s57.5 51.834 80.5 87.501s41 78.667 54 129s19.5 109.833 19.5 178.5c0 151.333 -36.167 268 -108.5 350s-180.166 123 -323.499 123c-14 0 -28.833 -0.333008 -44.5 -1
s-31.167 -1.5 -46.5 -2.5s-29.833 -2.16699 -43.5 -3.5s-25.5 -2.33301 -35.5 -3z" />
    <glyph glyph-name="ntilde" unicode="&#xf1;" horiz-adv-x="1247" 
d="M1092 -14l-38.998 0.000976562l-795 782v-356c0 -60 0.333008 -112.333 1 -157s1.83398 -83.167 3.50098 -115.5s4 -59.5 7 -81.5s6.83301 -40 11.5 -54v-4h-150v4c4.66699 14 8.66699 32 12 54s6 49.167 8 81.5s3.33301 70.833 4 115.5s1 97 1 157v252
c0 60 -0.333008 112.167 -1 156.5s-2 82.666 -4 114.999s-4.66699 59.5 -8 81.5s-7.33301 40 -12 54v4h62l796 -786v375c0 60 -0.333008 112.167 -1 156.5s-1.83398 82.666 -3.50098 114.999s-3.83398 59.5 -6.50098 81.5s-6.33398 40 -11.001 54v4h149v-4
c-4.66699 -14 -8.5 -32 -11.5 -54s-5.5 -49.167 -7.5 -81.5s-3.33301 -70.666 -4 -114.999s-1 -96.5 -1 -156.5v-678zM922.002 1428c-15.333 -28.667 -29.665 -53.5 -42.998 -74.5s-27 -38.5 -41 -52.5s-29.167 -24.333 -45.5 -31s-34.5 -10 -54.5 -10
c-17.333 0 -38 3.83301 -62 11.5s-48.667 16 -74 25l-72 25c-22.667 7.66699 -41 11.5 -55 11.5c-23.333 0 -43.666 -6 -60.999 -18s-34.333 -32.333 -51 -61l-29 16c14.667 28.667 28.667 53.5 42 74.5s27.166 38.5 41.499 52.5s29.5 24.333 45.5 31s34.333 10 55 10
c16.667 0 37.167 -3.83301 61.5 -11.5s49.166 -16.167 74.499 -25.5l72 -25.5c22.667 -7.66699 41 -11.5 55 -11.5c23.333 0 43.666 6.16699 60.999 18.5s34.333 32.833 51 61.5l29 -16v0z" />
    <glyph glyph-name="ograve" unicode="&#xf2;" horiz-adv-x="1292" 
d="M74 541c0 78.667 14.8311 151.666 44.498 218.999s70.167 125.833 121.5 175.5s112 88.5 182 116.5s145 42 225 42c78.667 0 152.834 -13.167 222.501 -39.5s130.334 -63.833 182.001 -112.5s92.5 -107.667 122.5 -177s45 -147 45 -233
c0 -71.333 -12.667 -140.166 -38 -206.499s-62.333 -125 -111 -176s-108.667 -91.667 -180 -122s-153 -45.5 -245 -45.5c-78 0 -151.667 13 -221 39s-130 63.167 -182 111.5s-93 107 -123 176s-45 146.5 -45 232.5zM669.998 52.999c50.667 0 97.335 10 140.002 30
s79.5 48.667 110.5 86s55 82.833 72 136.5s25.5 114.167 25.5 181.5c0 76.667 -8.16699 147.667 -24.5 213s-41 121.833 -74 169.5s-74.167 85 -123.5 112s-107 40.5 -173 40.5c-50.667 0 -97.334 -9.66699 -140.001 -29s-79.5 -47.333 -110.5 -84
s-55.167 -81.667 -72.5 -135s-26 -114 -26 -182c0 -76 8.5 -146.833 25.5 -212.5s42 -122.667 75 -171s74.167 -86.333 123.5 -114s106.666 -41.5 171.999 -41.5zM505.999 1510c38 -35.333 77.667 -70.333 119 -105l118.5 -96c43.667 -34 87.167 -65.333 130.5 -94l-22 -37
c-23.333 12 -47.333 23.5 -72 34.5l-74.5 32.5l-73.5 30l-68 26l-150 53z" />
    <glyph glyph-name="oacute" unicode="&#xf3;" horiz-adv-x="1292" 
d="M74 541c0 78.667 14.8311 151.666 44.498 218.999s70.167 125.833 121.5 175.5s112 88.5 182 116.5s145 42 225 42c78.667 0 152.834 -13.167 222.501 -39.5s130.334 -63.833 182.001 -112.5s92.5 -107.667 122.5 -177s45 -147 45 -233
c0 -71.333 -12.667 -140.166 -38 -206.499s-62.333 -125 -111 -176s-108.667 -91.667 -180 -122s-153 -45.5 -245 -45.5c-78 0 -151.667 13 -221 39s-130 63.167 -182 111.5s-93 107 -123 176s-45 146.5 -45 232.5zM669.998 52.999c50.667 0 97.335 10 140.002 30
s79.5 48.667 110.5 86s55 82.833 72 136.5s25.5 114.167 25.5 181.5c0 76.667 -8.16699 147.667 -24.5 213s-41 121.833 -74 169.5s-74.167 85 -123.5 112s-107 40.5 -173 40.5c-50.667 0 -97.334 -9.66699 -140.001 -29s-79.5 -47.333 -110.5 -84
s-55.167 -81.667 -72.5 -135s-26 -114 -26 -182c0 -76 8.5 -146.833 25.5 -212.5s42 -122.667 75 -171s74.167 -86.333 123.5 -114s106.666 -41.5 171.999 -41.5zM871.999 1354l-150 -53l-69 -26c-24 -9.33301 -48.333 -19.333 -73 -30l-74.5 -32.5
c-25 -11 -48.833 -22.5 -71.5 -34.5l-22 37c43.333 28.667 86.5 60 129.5 94l118.5 96l120 105z" />
    <glyph glyph-name="ocircumflex" unicode="&#xf4;" horiz-adv-x="1292" 
d="M74 541c0 78.667 14.8311 151.666 44.498 218.999s70.167 125.833 121.5 175.5s112 88.5 182 116.5s145 42 225 42c78.667 0 152.834 -13.167 222.501 -39.5s130.334 -63.833 182.001 -112.5s92.5 -107.667 122.5 -177s45 -147 45 -233
c0 -71.333 -12.667 -140.166 -38 -206.499s-62.333 -125 -111 -176s-108.667 -91.667 -180 -122s-153 -45.5 -245 -45.5c-78 0 -151.667 13 -221 39s-130 63.167 -182 111.5s-93 107 -123 176s-45 146.5 -45 232.5zM669.998 52.999c50.667 0 97.335 10 140.002 30
s79.5 48.667 110.5 86s55 82.833 72 136.5s25.5 114.167 25.5 181.5c0 76.667 -8.16699 147.667 -24.5 213s-41 121.833 -74 169.5s-74.167 85 -123.5 112s-107 40.5 -173 40.5c-50.667 0 -97.334 -9.66699 -140.001 -29s-79.5 -47.333 -110.5 -84
s-55.167 -81.667 -72.5 -135s-26 -114 -26 -182c0 -76 8.5 -146.833 25.5 -212.5s42 -122.667 75 -171s74.167 -86.333 123.5 -114s106.666 -41.5 171.999 -41.5zM642.999 1510l120.003 -105l119 -96c43.333 -34 86.666 -65.333 129.999 -94l-23 -37l-90 43.5l-92.5 43.5
c-30.333 14 -59.5 26.833 -87.5 38.5s-53.333 21.5 -76 29.5c-22.667 -8 -47.834 -17.833 -75.501 -29.5l-87 -38l-92.5 -43l-91 -44.5l-23 37c43.333 28.667 86.666 60 129.999 94l119 96z" />
    <glyph glyph-name="otilde" unicode="&#xf5;" horiz-adv-x="1292" 
d="M74 541c0 78.667 14.8311 151.666 44.498 218.999s70.167 125.833 121.5 175.5s112 88.5 182 116.5s145 42 225 42c78.667 0 152.834 -13.167 222.501 -39.5s130.334 -63.833 182.001 -112.5s92.5 -107.667 122.5 -177s45 -147 45 -233
c0 -71.333 -12.667 -140.166 -38 -206.499s-62.333 -125 -111 -176s-108.667 -91.667 -180 -122s-153 -45.5 -245 -45.5c-78 0 -151.667 13 -221 39s-130 63.167 -182 111.5s-93 107 -123 176s-45 146.5 -45 232.5zM669.998 52.999c50.667 0 97.335 10 140.002 30
s79.5 48.667 110.5 86s55 82.833 72 136.5s25.5 114.167 25.5 181.5c0 76.667 -8.16699 147.667 -24.5 213s-41 121.833 -74 169.5s-74.167 85 -123.5 112s-107 40.5 -173 40.5c-50.667 0 -97.334 -9.66699 -140.001 -29s-79.5 -47.333 -110.5 -84
s-55.167 -81.667 -72.5 -135s-26 -114 -26 -182c0 -76 8.5 -146.833 25.5 -212.5s42 -122.667 75 -171s74.167 -86.333 123.5 -114s106.666 -41.5 171.999 -41.5zM935.999 1428c-15.333 -28.667 -29.665 -53.5 -42.998 -74.5s-27 -38.5 -41 -52.5s-29.167 -24.333 -45.5 -31
s-34.5 -10 -54.5 -10c-17.333 0 -38 3.83301 -62 11.5s-48.667 16 -74 25l-72 25c-22.667 7.66699 -41 11.5 -55 11.5c-23.333 0 -43.666 -6 -60.999 -18s-34.333 -32.333 -51 -61l-29 16c14.667 28.667 28.667 53.5 42 74.5s27.166 38.5 41.499 52.5s29.5 24.333 45.5 31
s34.333 10 55 10c16.667 0 37.167 -3.83301 61.5 -11.5s49.166 -16.167 74.499 -25.5l72 -25.5c22.667 -7.66699 41 -11.5 55 -11.5c23.333 0 43.666 6.16699 60.999 18.5s34.333 32.833 51 61.5l29 -16v0z" />
    <glyph glyph-name="odieresis" unicode="&#xf6;" horiz-adv-x="1292" 
d="M74 541c0 78.667 14.8311 151.666 44.498 218.999s70.167 125.833 121.5 175.5s112 88.5 182 116.5s145 42 225 42c78.667 0 152.834 -13.167 222.501 -39.5s130.334 -63.833 182.001 -112.5s92.5 -107.667 122.5 -177s45 -147 45 -233
c0 -71.333 -12.667 -140.166 -38 -206.499s-62.333 -125 -111 -176s-108.667 -91.667 -180 -122s-153 -45.5 -245 -45.5c-78 0 -151.667 13 -221 39s-130 63.167 -182 111.5s-93 107 -123 176s-45 146.5 -45 232.5zM669.998 52.999c50.667 0 97.335 10 140.002 30
s79.5 48.667 110.5 86s55 82.833 72 136.5s25.5 114.167 25.5 181.5c0 76.667 -8.16699 147.667 -24.5 213s-41 121.833 -74 169.5s-74.167 85 -123.5 112s-107 40.5 -173 40.5c-50.667 0 -97.334 -9.66699 -140.001 -29s-79.5 -47.333 -110.5 -84
s-55.167 -81.667 -72.5 -135s-26 -114 -26 -182c0 -76 8.5 -146.833 25.5 -212.5s42 -122.667 75 -171s74.167 -86.333 123.5 -114s106.666 -41.5 171.999 -41.5zM366.999 1346c0 12.667 2.33301 24.667 7 36s11.167 21.166 19.5 29.499s18 14.833 29 19.5s23.167 7 36.5 7
c12.667 0 24.667 -2.33301 36 -7s21.166 -11.167 29.499 -19.5s14.833 -18.166 19.5 -29.499s7 -23.333 7 -36s-2.33301 -24.667 -7 -36s-11.167 -21.166 -19.5 -29.499s-18.166 -14.833 -29.499 -19.5s-23.333 -7 -36 -7c-13.333 0 -25.5 2.33301 -36.5 7
s-20.667 11.167 -29 19.5s-14.833 18.166 -19.5 29.499s-7 23.333 -7 36zM734.999 1346c0 12.667 2.33301 24.667 7 36s11.167 21.166 19.5 29.499s18.166 14.833 29.499 19.5s23.333 7 36 7s24.667 -2.33301 36 -7s21.166 -11.167 29.499 -19.5
s14.833 -18.166 19.5 -29.499s7 -23.333 7 -36s-2.33301 -24.667 -7 -36s-11.167 -21.166 -19.5 -29.499s-18.166 -14.833 -29.499 -19.5s-23.333 -7 -36 -7s-24.667 2.33301 -36 7s-21.166 11.167 -29.499 19.5s-14.833 18.166 -19.5 29.499s-7 23.333 -7 36z" />
    <glyph glyph-name="divide" unicode="&#xf7;" horiz-adv-x="1331" 
d="M143 651v103h1045v-103h-1045zM567 369c0 14 2.5 26.833 7.5 38.5s12 22 21 31s19.5 16 31.5 21s25 7.5 39 7.5c28 0 51.333 -9.33301 70 -28s28 -42 28 -70c0 -14 -2.5 -27 -7.5 -39s-12 -22.5 -21 -31.5s-19.333 -16 -31 -21s-24.5 -7.5 -38.5 -7.5
c-28 0 -51.5 9.5 -70.5 28.5s-28.5 42.5 -28.5 70.5zM567 1036c0 28 9.5 51.5 28.5 70.5s42.5 28.5 70.5 28.5c14 0 26.833 -2.5 38.5 -7.5s22 -12 31 -21s16 -19.5 21 -31.5s7.5 -25 7.5 -39c0 -28 -9.33301 -51.333 -28 -70s-42 -28 -70 -28c-14 0 -27 2.5 -39 7.5
s-22.5 12 -31.5 21s-16 19.333 -21 31s-7.5 24.5 -7.5 38.5z" />
    <glyph glyph-name="oslash" unicode="&#xf8;" horiz-adv-x="1292" 
d="M283 96c-64 48.667 -114.834 110.497 -152.501 185.497s-56.5 161.5 -56.5 259.5c0 78.667 14.833 151.667 44.5 219s70.167 125.833 121.5 175.5s112 88.5 182 116.5s145 42 225 42c50.667 0 99.334 -5.66699 146.001 -17s91 -27.666 133 -48.999l104 154l70 -49
l-101 -148c67.333 -48 120.833 -110.5 160.5 -187.5s59.5 -165.5 59.5 -265.5c0 -71.333 -12.667 -140.166 -38 -206.499s-62.333 -125 -111 -176s-108.667 -91.667 -180 -122s-153 -45.5 -245 -45.5c-53.333 0 -104.333 5.83301 -153 17.5s-94 28.834 -136 51.501
l-118 -172l-70 49zM669.999 52.9971c50.667 0 97.332 10 139.999 30s79.5 48.667 110.5 86s55 82.833 72 136.5s25.5 114.167 25.5 181.5c0 76.667 -8.16699 147.5 -24.5 212.5s-40.833 121.167 -73.5 168.5l-496 -718c30.667 -31.333 66.334 -55.333 107.001 -72
s87 -25 139 -25zM273.997 591.997c0 -74.667 7.66992 -143.668 23.0029 -207.001s38.666 -118.666 69.999 -165.999l493 717c-30.667 26.667 -65.834 47.667 -105.501 63s-83.5 23 -131.5 23c-50.667 0 -97.334 -9.66699 -140.001 -29s-79.5 -47.333 -110.5 -84
s-55.167 -81.667 -72.5 -135s-26 -114 -26 -182z" />
    <glyph glyph-name="ugrave" unicode="&#xf9;" horiz-adv-x="1208" 
d="M954 668c0 59.333 -0.336914 111.001 -1.00391 155.001s-2 82 -4 114s-4.33301 58.833 -7 80.5s-6 39.5 -10 53.5v4h147v-4c-4 -14 -7.33301 -32 -10 -54s-5 -49.167 -7 -81.5s-3.33301 -70.666 -4 -114.999s-1 -96.5 -1 -156.5v-287c0 -72 -11.167 -133.333 -33.5 -184
s-53.166 -92.167 -92.499 -124.5s-86.166 -56 -140.499 -71s-113.833 -22.5 -178.5 -22.5c-65.333 0 -126 7.16699 -182 21.5s-104.5 37.166 -145.5 68.499s-73.333 72 -97 122s-35.5 110.667 -35.5 182v295c0 60 -0.666992 112.167 -2 156.5s-3.33301 82.666 -6 114.999
s-5.66699 59.5 -9 81.5s-7.33301 40 -12 54v4h231v-4c-4.66699 -14 -8.66699 -31.833 -12 -53.5s-6.16602 -48.5 -8.49902 -80.5s-4.16602 -70 -5.49902 -114s-2 -95.667 -2 -155v-299c0 -59.333 9 -108.166 27 -146.499s41.667 -68.833 71 -91.5s62.666 -38.5 99.999 -47.5
s75.666 -13.5 114.999 -13.5c40 0 78.833 4.5 116.5 13.5s71.334 24.833 101.001 47.5s53.334 53.167 71.001 91.5s26.5 87.166 26.5 146.499v299zM491.996 1510c38 -35.333 77.667 -70.333 119 -105l118.5 -96c43.667 -34 87.167 -65.333 130.5 -94l-22 -37
c-23.333 12 -47.333 23.5 -72 34.5l-74.5 32.5l-73.5 30l-68 26l-150 53z" />
    <glyph glyph-name="uacute" unicode="&#xfa;" horiz-adv-x="1208" 
d="M954 668c0 59.333 -0.336914 111.001 -1.00391 155.001s-2 82 -4 114s-4.33301 58.833 -7 80.5s-6 39.5 -10 53.5v4h147v-4c-4 -14 -7.33301 -32 -10 -54s-5 -49.167 -7 -81.5s-3.33301 -70.666 -4 -114.999s-1 -96.5 -1 -156.5v-287c0 -72 -11.167 -133.333 -33.5 -184
s-53.166 -92.167 -92.499 -124.5s-86.166 -56 -140.499 -71s-113.833 -22.5 -178.5 -22.5c-65.333 0 -126 7.16699 -182 21.5s-104.5 37.166 -145.5 68.499s-73.333 72 -97 122s-35.5 110.667 -35.5 182v295c0 60 -0.666992 112.167 -2 156.5s-3.33301 82.666 -6 114.999
s-5.66699 59.5 -9 81.5s-7.33301 40 -12 54v4h231v-4c-4.66699 -14 -8.66699 -31.833 -12 -53.5s-6.16602 -48.5 -8.49902 -80.5s-4.16602 -70 -5.49902 -114s-2 -95.667 -2 -155v-299c0 -59.333 9 -108.166 27 -146.499s41.667 -68.833 71 -91.5s62.666 -38.5 99.999 -47.5
s75.666 -13.5 114.999 -13.5c40 0 78.833 4.5 116.5 13.5s71.334 24.833 101.001 47.5s53.334 53.167 71.001 91.5s26.5 87.166 26.5 146.499v299zM857.996 1354l-150 -53l-69 -26c-24 -9.33301 -48.333 -19.333 -73 -30l-74.5 -32.5c-25 -11 -48.833 -22.5 -71.5 -34.5
l-22 37c43.333 28.667 86.5 60 129.5 94l118.5 96l120 105z" />
    <glyph glyph-name="ucircumflex" unicode="&#xfb;" horiz-adv-x="1208" 
d="M954 668c0 59.333 -0.336914 111.001 -1.00391 155.001s-2 82 -4 114s-4.33301 58.833 -7 80.5s-6 39.5 -10 53.5v4h147v-4c-4 -14 -7.33301 -32 -10 -54s-5 -49.167 -7 -81.5s-3.33301 -70.666 -4 -114.999s-1 -96.5 -1 -156.5v-287c0 -72 -11.167 -133.333 -33.5 -184
s-53.166 -92.167 -92.499 -124.5s-86.166 -56 -140.499 -71s-113.833 -22.5 -178.5 -22.5c-65.333 0 -126 7.16699 -182 21.5s-104.5 37.166 -145.5 68.499s-73.333 72 -97 122s-35.5 110.667 -35.5 182v295c0 60 -0.666992 112.167 -2 156.5s-3.33301 82.666 -6 114.999
s-5.66699 59.5 -9 81.5s-7.33301 40 -12 54v4h231v-4c-4.66699 -14 -8.66699 -31.833 -12 -53.5s-6.16602 -48.5 -8.49902 -80.5s-4.16602 -70 -5.49902 -114s-2 -95.667 -2 -155v-299c0 -59.333 9 -108.166 27 -146.499s41.667 -68.833 71 -91.5s62.666 -38.5 99.999 -47.5
s75.666 -13.5 114.999 -13.5c40 0 78.833 4.5 116.5 13.5s71.334 24.833 101.001 47.5s53.334 53.167 71.001 91.5s26.5 87.166 26.5 146.499v299zM628.996 1510l120.003 -105l119 -96c43.333 -34 86.666 -65.333 129.999 -94l-23 -37l-90 43.5l-92.5 43.5
c-30.333 14 -59.5 26.833 -87.5 38.5s-53.333 21.5 -76 29.5c-22.667 -8 -47.834 -17.833 -75.501 -29.5l-87 -38l-92.5 -43l-91 -44.5l-23 37c43.333 28.667 86.666 60 129.999 94l119 96z" />
    <glyph glyph-name="udieresis" unicode="&#xfc;" horiz-adv-x="1208" 
d="M954 668c0 59.333 -0.336914 111.001 -1.00391 155.001s-2 82 -4 114s-4.33301 58.833 -7 80.5s-6 39.5 -10 53.5v4h147v-4c-4 -14 -7.33301 -32 -10 -54s-5 -49.167 -7 -81.5s-3.33301 -70.666 -4 -114.999s-1 -96.5 -1 -156.5v-287c0 -72 -11.167 -133.333 -33.5 -184
s-53.166 -92.167 -92.499 -124.5s-86.166 -56 -140.499 -71s-113.833 -22.5 -178.5 -22.5c-65.333 0 -126 7.16699 -182 21.5s-104.5 37.166 -145.5 68.499s-73.333 72 -97 122s-35.5 110.667 -35.5 182v295c0 60 -0.666992 112.167 -2 156.5s-3.33301 82.666 -6 114.999
s-5.66699 59.5 -9 81.5s-7.33301 40 -12 54v4h231v-4c-4.66699 -14 -8.66699 -31.833 -12 -53.5s-6.16602 -48.5 -8.49902 -80.5s-4.16602 -70 -5.49902 -114s-2 -95.667 -2 -155v-299c0 -59.333 9 -108.166 27 -146.499s41.667 -68.833 71 -91.5s62.666 -38.5 99.999 -47.5
s75.666 -13.5 114.999 -13.5c40 0 78.833 4.5 116.5 13.5s71.334 24.833 101.001 47.5s53.334 53.167 71.001 91.5s26.5 87.166 26.5 146.499v299zM352.996 1346c0 12.667 2.33301 24.667 7 36s11.167 21.166 19.5 29.499s18 14.833 29 19.5s23.167 7 36.5 7
c12.667 0 24.667 -2.33301 36 -7s21.166 -11.167 29.499 -19.5s14.833 -18.166 19.5 -29.499s7 -23.333 7 -36s-2.33301 -24.667 -7 -36s-11.167 -21.166 -19.5 -29.499s-18.166 -14.833 -29.499 -19.5s-23.333 -7 -36 -7c-13.333 0 -25.5 2.33301 -36.5 7
s-20.667 11.167 -29 19.5s-14.833 18.166 -19.5 29.499s-7 23.333 -7 36zM720.996 1346c0 12.667 2.33301 24.667 7 36s11.167 21.166 19.5 29.499s18.166 14.833 29.499 19.5s23.333 7 36 7s24.667 -2.33301 36 -7s21.166 -11.167 29.499 -19.5
s14.833 -18.166 19.5 -29.499s7 -23.333 7 -36s-2.33301 -24.667 -7 -36s-11.167 -21.166 -19.5 -29.499s-18.166 -14.833 -29.499 -19.5s-23.333 -7 -36 -7s-24.667 2.33301 -36 7s-21.166 11.167 -29.499 19.5s-14.833 18.166 -19.5 29.499s-7 23.333 -7 36z" />
    <glyph glyph-name="yacute" unicode="&#xfd;" horiz-adv-x="1012" 
d="M602 412c0 -60 0.666016 -112.334 1.99902 -157.001s3.16602 -83.167 5.49902 -115.5s5.33301 -59.5 9 -81.5s7.83398 -40 12.501 -54v-4h-232v4c4.66699 14 8.83398 32 12.501 54s6.66699 49.167 9 81.5s4.16602 70.833 5.49902 115.5s2 97 2 157v69l-360 475
c-24 32 -47 57.833 -69 77.5s-38.667 32.167 -50 37.5v4h284c0 -12 4.33301 -30.5 13 -55.5s26.334 -55.5 53.001 -91.5l254 -336l260 350c18.667 25.333 32.834 50.333 42.501 75s14.5 44 14.5 58h183v-4c-16.667 -11.333 -33.834 -25.666 -51.501 -42.999
s-38.167 -42 -61.5 -74l-338 -458v-84zM767.999 1354l-150 -53l-69 -26c-24 -9.33301 -48.333 -19.333 -73 -30l-74.5 -32.5c-25 -11 -48.833 -22.5 -71.5 -34.5l-22 37c43.333 28.667 86.5 60 129.5 94l118.5 96l120 105z" />
    <glyph glyph-name="thorn" unicode="&#xfe;" horiz-adv-x="924" 
d="M160 664c0 60 -0.665039 112.167 -1.99805 156.5s-3.16602 82.666 -5.49902 114.999s-5.33301 59.5 -9 81.5s-7.83398 40 -12.501 54v4h231v-4c-6 -19.333 -11.333 -45.666 -16 -78.999s-8 -78 -10 -134l71 6.5c26 2.33301 55 3.5 87 3.5c52 0 100.333 -6.66699 145 -20
s83.5 -32.5 116.5 -57.5s59 -55.833 78 -92.5s28.5 -78.334 28.5 -125.001c0 -55.333 -10.833 -104 -32.5 -146s-51.834 -77.167 -90.501 -105.5s-84.334 -49.666 -137.001 -63.999s-110 -21.5 -172 -21.5c-13.333 0 -28.5 0.5 -45.5 1.5s-33.167 2.5 -48.5 4.5
c2 -64 5 -114.5 9 -151.5s9.66699 -65.833 17 -86.5v-4h-231v4c4.66699 14 8.83398 32 12.501 54s6.66699 49.167 9 81.5s4.16602 70.833 5.49902 115.5s2 97 2 157v252zM465.002 803c-32 0 -59.332 -2 -81.999 -6s-39 -7.66699 -49 -11v-122v-252v-101
c12 -2 25.167 -3.83301 39.5 -5.5s27.166 -2.5 38.499 -2.5c83.333 0 146.833 21.5 190.5 64.5s65.5 108.833 65.5 197.5c0 72 -17.167 129.667 -51.5 173s-84.833 65 -151.5 65z" />
    <glyph glyph-name="ydieresis" unicode="&#xff;" horiz-adv-x="1012" 
d="M602 412c0 -60 0.666016 -112.334 1.99902 -157.001s3.16602 -83.167 5.49902 -115.5s5.33301 -59.5 9 -81.5s7.83398 -40 12.501 -54v-4h-232v4c4.66699 14 8.83398 32 12.501 54s6.66699 49.167 9 81.5s4.16602 70.833 5.49902 115.5s2 97 2 157v69l-360 475
c-24 32 -47 57.833 -69 77.5s-38.667 32.167 -50 37.5v4h284c0 -12 4.33301 -30.5 13 -55.5s26.334 -55.5 53.001 -91.5l254 -336l260 350c18.667 25.333 32.834 50.333 42.501 75s14.5 44 14.5 58h183v-4c-16.667 -11.333 -33.834 -25.666 -51.501 -42.999
s-38.167 -42 -61.5 -74l-338 -458v-84zM262.999 1346c0 12.667 2.33301 24.667 7 36s11.167 21.166 19.5 29.499s18 14.833 29 19.5s23.167 7 36.5 7c12.667 0 24.667 -2.33301 36 -7s21.166 -11.167 29.499 -19.5s14.833 -18.166 19.5 -29.499s7 -23.333 7 -36
s-2.33301 -24.667 -7 -36s-11.167 -21.166 -19.5 -29.499s-18.166 -14.833 -29.499 -19.5s-23.333 -7 -36 -7c-13.333 0 -25.5 2.33301 -36.5 7s-20.667 11.167 -29 19.5s-14.833 18.166 -19.5 29.499s-7 23.333 -7 36zM630.999 1346c0 12.667 2.33301 24.667 7 36
s11.167 21.166 19.5 29.499s18.166 14.833 29.499 19.5s23.333 7 36 7s24.667 -2.33301 36 -7s21.166 -11.167 29.499 -19.5s14.833 -18.166 19.5 -29.499s7 -23.333 7 -36s-2.33301 -24.667 -7 -36s-11.167 -21.166 -19.5 -29.499s-18.166 -14.833 -29.499 -19.5
s-23.333 -7 -36 -7s-24.667 2.33301 -36 7s-21.166 11.167 -29.499 19.5s-14.833 18.166 -19.5 29.499s-7 23.333 -7 36z" />
    <glyph glyph-name="Amacron" unicode="&#x100;" horiz-adv-x="1389" 
d="M1135 0l0.000976562 4.00098c1.33301 3.33301 2.33301 8.33301 3 15s1 12.667 1 18c0 20.667 -2.83301 43.5 -8.5 68.5s-16.5 56.167 -32.5 93.5l-121 272c-37.333 1.33301 -87 2 -149 2h-201h-152.5c-49 0 -93.167 -0.666992 -132.5 -2l-115 -264l-32 -81
c-11.333 -29.333 -17 -59 -17 -89c0 -8.66699 0.666992 -15.834 2 -21.501s2.66602 -9.5 3.99902 -11.5v-4h-204v4c12 12.667 27 35.167 45 67.5s37.667 72.833 59 121.5l573 1271h80l543 -1222c12.667 -28.667 25.834 -56.5 39.501 -83.5s26.5 -51.167 38.5 -72.5
s22.667 -39.333 32 -54s15.666 -24 18.999 -28v-4h-274zM487.001 559.001c38.667 0 78.333 0.166992 119 0.5l119.5 1l112.5 1c36 0.333008 68.667 0.833008 98 1.5l-281 635l-276 -639h108zM428 1774h532v-98h-532v98z" />
    <glyph glyph-name="amacron" unicode="&#x101;" horiz-adv-x="1151" 
d="M784 338l-67.502 -0.00390625h-88.5h-99c-34 0 -66.333 -0.166992 -97 -0.5s-58.667 -0.666016 -84 -0.999023s-45 -0.5 -59 -0.5l-37 -78l-41 -83.5c-11.333 -23.667 -20.666 -44.5 -27.999 -62.5s-12.666 -33.5 -15.999 -46.5s-5 -25.167 -5 -36.5
c0 -7.33301 0.333008 -12.833 1 -16.5s1.66699 -6.5 3 -8.5v-4h-176v4c4.66699 4.66699 12 14.834 22 30.501s21.5 34.834 34.5 57.501l42 77l44.5 89l408 842h75l400 -842c15.333 -32 30.833 -62.667 46.5 -92l43.5 -78.5c13.333 -23 25 -42 35 -57
s16.667 -23.833 20 -26.5v-4h-256c1.33301 5.33301 2 10.166 2 14.499v14.5c0 14.667 -3.16699 32.334 -9.5 53.001s-14 41.834 -23 63.501s-18.333 42.5 -28 62.5l-23.5 50zM327.998 415.996h61c28 0 57.833 0.166992 89.5 0.5s63.5 0.5 95.5 0.5s63 0.166992 93 0.5
s57 0.5 81 0.5l-207 442zM313.998 1397h532v-98h-532v98z" />
    <glyph glyph-name="Abreve" unicode="&#x102;" horiz-adv-x="1389" 
d="M1135 0l0.000976562 4.00098c1.33301 3.33301 2.33301 8.33301 3 15s1 12.667 1 18c0 20.667 -2.83301 43.5 -8.5 68.5s-16.5 56.167 -32.5 93.5l-121 272c-37.333 1.33301 -87 2 -149 2h-201h-152.5c-49 0 -93.167 -0.666992 -132.5 -2l-115 -264l-32 -81
c-11.333 -29.333 -17 -59 -17 -89c0 -8.66699 0.666992 -15.834 2 -21.501s2.66602 -9.5 3.99902 -11.5v-4h-204v4c12 12.667 27 35.167 45 67.5s37.667 72.833 59 121.5l573 1271h80l543 -1222c12.667 -28.667 25.834 -56.5 39.501 -83.5s26.5 -51.167 38.5 -72.5
s22.667 -39.333 32 -54s15.666 -24 18.999 -28v-4h-274zM487.001 559.001c38.667 0 78.333 0.166992 119 0.5l119.5 1l112.5 1c36 0.333008 68.667 0.833008 98 1.5l-281 635l-276 -639h108zM694 1596c-44.667 0 -83.834 7.66699 -117.501 23s-63.167 36.833 -88.5 64.5
s-46.833 60.667 -64.5 99s-32.5 80.5 -44.5 126.5l39 10c7.33301 -20 16.833 -41.167 28.5 -63.5s27.834 -43 48.501 -62s47 -34.833 79 -47.5s72 -19 120 -19s88 6.33301 120 19s58.333 28.5 79 47.5s36.834 39.667 48.501 62s21.167 43.5 28.5 63.5l39 -10
c-12 -46 -26.833 -88.167 -44.5 -126.5s-39.167 -71.333 -64.5 -99s-54.833 -49.167 -88.5 -64.5s-72.834 -23 -117.501 -23z" />
    <glyph glyph-name="abreve" unicode="&#x103;" horiz-adv-x="1151" 
d="M784 338l-67.502 -0.00390625h-88.5h-99c-34 0 -66.333 -0.166992 -97 -0.5s-58.667 -0.666016 -84 -0.999023s-45 -0.5 -59 -0.5l-37 -78l-41 -83.5c-11.333 -23.667 -20.666 -44.5 -27.999 -62.5s-12.666 -33.5 -15.999 -46.5s-5 -25.167 -5 -36.5
c0 -7.33301 0.333008 -12.833 1 -16.5s1.66699 -6.5 3 -8.5v-4h-176v4c4.66699 4.66699 12 14.834 22 30.501s21.5 34.834 34.5 57.501l42 77l44.5 89l408 842h75l400 -842c15.333 -32 30.833 -62.667 46.5 -92l43.5 -78.5c13.333 -23 25 -42 35 -57
s16.667 -23.833 20 -26.5v-4h-256c1.33301 5.33301 2 10.166 2 14.499v14.5c0 14.667 -3.16699 32.334 -9.5 53.001s-14 41.834 -23 63.501s-18.333 42.5 -28 62.5l-23.5 50zM327.998 415.996h61c28 0 57.833 0.166992 89.5 0.5s63.5 0.5 95.5 0.5s63 0.166992 93 0.5
s57 0.5 81 0.5l-207 442zM579.998 1219c-44.667 0 -83.834 7.66699 -117.501 23s-63.167 36.833 -88.5 64.5s-46.833 60.667 -64.5 99s-32.5 80.5 -44.5 126.5l39 10c7.33301 -20 16.833 -41.167 28.5 -63.5s27.834 -43 48.501 -62s47 -34.833 79 -47.5s72 -19 120 -19
s88 6.33301 120 19s58.333 28.5 79 47.5s36.834 39.667 48.501 62s21.167 43.5 28.5 63.5l39 -10c-12 -46 -26.833 -88.167 -44.5 -126.5s-39.167 -71.333 -64.5 -99s-54.833 -49.167 -88.5 -64.5s-72.834 -23 -117.501 -23z" />
    <glyph glyph-name="Aogonek" unicode="&#x104;" horiz-adv-x="1389" 
d="M1491 -346c-33.333 -21.333 -71.9961 -40.666 -115.996 -57.999s-92 -26 -144 -26c-26 0 -51.333 2.66699 -76 8s-46.667 14.166 -66 26.499s-35 28.333 -47 48s-18 43.5 -18 71.5c0 28.667 7.83301 55.334 23.5 80.001s37.5 48.167 65.5 70.5s61 43.833 99 64.5
s79.667 41 125 61h-202v4c1.33301 3.33301 2.33301 8.33301 3 15s1 12.667 1 18c0 20.667 -2.83301 43.5 -8.5 68.5s-16.5 56.167 -32.5 93.5l-121 272c-37.333 1.33301 -87 2 -149 2h-201h-152.5c-49 0 -93.167 -0.666992 -132.5 -2l-115 -264l-32 -81
c-11.333 -29.333 -17 -59 -17 -89c0 -8.66699 0.666992 -15.834 2 -21.501s2.66602 -9.5 3.99902 -11.5v-4h-204v4c12 12.667 27 35.167 45 67.5s37.667 72.833 59 121.5l573 1271h80l543 -1222c12.667 -28.667 25.834 -56.5 39.501 -83.5s26.5 -51.167 38.5 -72.5
s22.667 -39.333 32 -54s15.666 -24 18.999 -28v-4c-34 -17.333 -65.833 -35.833 -95.5 -55.5s-55.5 -40 -77.5 -61s-39.333 -43 -52 -66s-19 -46.833 -19 -71.5c0 -36 10.833 -63.833 32.5 -83.5s54.5 -29.5 98.5 -29.5c17.333 0 34.666 1.66699 51.999 5
s33.666 7.5 48.999 12.5s29.666 10.5 42.999 16.5s25 12 35 18zM487.004 559c38.667 0 78.333 0.166992 119 0.5l119.5 1l112.5 1c36 0.333008 68.667 0.833008 98 1.5l-281 635l-276 -639h108z" />
    <glyph glyph-name="aogonek" unicode="&#x105;" horiz-adv-x="1151" 
d="M1241 -346c-16 -10.667 -33.6689 -21.0059 -53.002 -31.0059s-40 -19 -62 -27s-45.167 -14.333 -69.5 -19s-49.5 -7 -75.5 -7c-25.333 0 -50.5 2.66699 -75.5 8s-47.167 14.166 -66.5 26.499s-35 28.333 -47 48s-18 43.5 -18 71.5c0 28.667 7.83301 55.334 23.5 80.001
s37.5 48.167 65.5 70.5s61 43.833 99 64.5s79.667 41 125 61h-182c1.33301 5.33301 2 10.166 2 14.499v14.5c0 14.667 -3.16699 32.334 -9.5 53.001s-14 41.834 -23 63.501s-18.333 42.5 -28 62.5l-23.5 50l-39 80h-67.5h-88.5h-99c-34 0 -66.333 -0.166992 -97 -0.5
s-58.667 -0.666016 -84 -0.999023s-45 -0.5 -59 -0.5l-37 -78l-41 -83.5c-11.333 -23.667 -20.666 -44.5 -27.999 -62.5s-12.666 -33.5 -15.999 -46.5s-5 -25.167 -5 -36.5c0 -7.33301 0.333008 -12.833 1 -16.5s1.66699 -6.5 3 -8.5v-4h-176v4
c4.66699 4.66699 12 14.834 22 30.501s21.5 34.834 34.5 57.501l42 77l44.5 89l408 842h75l400 -842c15.333 -32 30.833 -62.667 46.5 -92l43.5 -78.5c13.333 -23 25 -42 35 -57s16.667 -23.833 20 -26.5v-4c-35.333 -17.333 -68 -35.666 -98 -54.999
s-56 -39.666 -78 -60.999s-39.167 -43.5 -51.5 -66.5s-18.5 -46.833 -18.5 -71.5c0 -36 10.833 -63.833 32.5 -83.5s54.834 -29.5 99.501 -29.5c17.333 0 34.5 1.66699 51.5 5s33.167 7.5 48.5 12.5s29.666 10.5 42.999 16.5s25 12 35 18zM327.998 415.994h61
c28 0 57.833 0.166992 89.5 0.5s63.5 0.5 95.5 0.5s63 0.166992 93 0.5s57 0.5 81 0.5l-207 442z" />
    <glyph glyph-name="Cacute" unicode="&#x106;" horiz-adv-x="1386" 
d="M1303 1214l-9.00195 -3.99707c-52 48 -114.5 86.333 -187.5 115s-153.167 43 -240.5 43c-84 0 -161 -13.167 -231 -39.5s-130.167 -64.5 -180.5 -114.5s-89.5 -111.333 -117.5 -184s-42 -155.334 -42 -248.001c0 -102 13.333 -197.167 40 -285.5
s66.334 -164.833 119.001 -229.5s118.5 -115.5 197.5 -152.5s171.167 -55.5 276.5 -55.5c38 0 76 4 114 12s74.5 19.833 109.5 35.5s68 34.667 99 57s59.167 47.833 84.5 76.5l11 -7l-80 -204c-50 -19.333 -105.167 -34.166 -165.5 -44.499s-121.166 -15.5 -182.499 -15.5
c-123.333 0 -236.166 17.833 -338.499 53.5s-190.333 86.167 -264 151.5s-131 143.833 -172 235.5s-61.5 193.5 -61.5 305.5c0 63.333 8.16699 125.666 24.5 186.999s40.166 119.666 71.499 174.999s70 106.166 116 152.499s98.5 86.5 157.5 120.5s124 60.5 195 79.5
s147.833 28.5 230.5 28.5c128.667 0 248 -19.667 358 -59zM1108 1731l-150 -53l-69 -26c-24 -9.33301 -48.333 -19.333 -73 -30l-74.5 -32.5c-25 -11 -48.833 -22.5 -71.5 -34.5l-22 37c43.333 28.667 86.5 60 129.5 94l118.5 96l120 105z" />
    </font>
</defs>
</svg>
